<svg width="110" height="97" viewBox="0 0 110 97" fill="none" xmlns="http://www.w3.org/2000/svg">
<path fill-rule="evenodd" clip-rule="evenodd" d="M12.4694 59.3435C11.9026 58.3452 12.2431 57.0711 13.23 56.4977C15.9622 54.9105 19.1072 53.0691 22.5415 51.0417C28.4576 47.549 30.8894 44.0617 31.7427 41.3732C32.6007 38.6698 31.9476 36.5361 31.2666 35.4982C30.6373 34.5389 30.8959 33.2452 31.8442 32.6086C32.7925 31.9721 34.0715 32.2336 34.7008 33.1929C36.0605 35.2652 36.9157 38.7134 35.667 42.6476C34.4135 46.5968 31.1232 50.8026 24.619 54.6424C21.177 56.6744 18.0238 58.5205 15.2828 60.1129C14.2958 60.6863 13.0363 60.3418 12.4694 59.3435Z" fill="black"/>
<path d="M15.6628 61.8109C16.4112 60.4359 16.5567 58.8083 15.9807 57.3477C15.5708 56.3057 14.7407 55.114 13.0746 54.2626C13.0746 54.2626 12.3074 53.8788 11.3705 52.9791C10.6353 52.2642 9.42032 52.3885 8.88615 53.2678C8.87848 53.2829 8.87233 53.2949 8.86466 53.31C8.53996 53.8667 8.6113 54.576 9.00529 55.0903C9.41409 55.6276 10.0766 56.4112 10.9364 57.1718C10.9364 57.1718 8.42931 57.1622 5.55086 60.0071C5.55086 60.0071 4.4003 61.0927 4.73189 62.2887C4.81333 62.5831 4.98386 62.8513 5.21837 63.0459C5.52903 63.3068 6.06267 63.5538 6.78633 63.1588C6.78633 63.1588 5.8418 64.2714 6.00238 65.4014C6.0896 66.0272 6.55273 66.5546 7.1611 66.7068C7.82055 66.8703 8.84947 66.6723 10.0166 64.8238C10.0166 64.8238 9.78054 65.5489 10.1439 66.2724C10.4658 66.9136 11.2223 67.0206 11.777 66.6523C12.7909 65.9843 13.2154 64.9334 13.7437 63.8868C13.7437 63.8868 14.8745 63.2721 15.6704 61.811L15.6628 61.8109Z" fill="#755FFF"/>
<path d="M15.6628 61.8109C16.4112 60.4359 16.5567 58.8083 15.9807 57.3477C15.5708 56.3057 14.7407 55.114 13.0746 54.2626C13.0746 54.2626 12.3074 53.8788 11.3705 52.9791C10.6353 52.2642 9.42032 52.3885 8.88615 53.2678C8.87848 53.2829 8.87233 53.2949 8.86466 53.31C8.53996 53.8667 8.6113 54.576 9.00529 55.0903C9.41409 55.6276 10.0766 56.4112 10.9364 57.1718C10.9364 57.1718 8.42931 57.1622 5.55086 60.0071C5.55086 60.0071 4.4003 61.0927 4.73189 62.2887C4.81333 62.5831 4.98386 62.8513 5.21837 63.0459C5.52903 63.3068 6.06267 63.5538 6.78633 63.1588C6.78633 63.1588 5.8418 64.2714 6.00238 65.4014C6.0896 66.0272 6.55273 66.5546 7.1611 66.7068C7.82055 66.8703 8.84947 66.6723 10.0166 64.8238C10.0166 64.8238 9.78054 65.5489 10.1439 66.2724C10.4658 66.9136 11.2223 67.0206 11.777 66.6523C12.7909 65.9843 13.2154 64.9334 13.7437 63.8868C13.7437 63.8868 14.8745 63.2721 15.6704 61.811L15.6628 61.8109Z" fill="url(#paint0_linear_360_1751)" fill-opacity="0.8"/>
<path fill-rule="evenodd" clip-rule="evenodd" d="M5.83035 60.3115L5.83051 60.3113L5.83067 60.3112L5.83085 60.311L5.83093 60.3109L5.83113 60.3108L5.83379 60.3083L5.83721 60.3049C7.23192 58.9264 8.52636 58.2491 9.45886 57.9152C9.92597 57.748 10.3041 57.6663 10.5607 57.6264C10.689 57.6064 10.7869 57.5969 10.8504 57.5923C10.8822 57.5901 10.9053 57.5891 10.9192 57.5886C10.9262 57.5884 10.9309 57.5883 10.9333 57.5883C10.9338 57.5883 10.9343 57.5883 10.9346 57.5883C10.9348 57.5883 10.935 57.5883 10.935 57.5883L12.037 57.5924L11.206 56.8575C10.3715 56.1194 9.72713 55.3573 9.33017 54.8356L9.32981 54.835L9.32935 54.8345C9.02938 54.4429 8.98659 53.9181 9.21798 53.5215L9.22402 53.511L9.24325 53.4732C9.63599 52.8446 10.5302 52.7417 11.0833 53.2792L11.0842 53.2802L11.0851 53.281C11.5729 53.7495 12.0179 54.085 12.3435 54.3046C12.5064 54.4146 12.6397 54.4957 12.7339 54.5501C12.781 54.5774 12.8184 54.5979 12.8449 54.6122C12.858 54.6193 12.8685 54.6248 12.8762 54.6287C12.8799 54.6307 12.8831 54.6323 12.8854 54.6335L12.8871 54.6344C12.8874 54.6345 12.8877 54.6346 12.888 54.6348C14.4549 55.4357 15.2196 56.5445 15.5961 57.5015L15.5962 57.5017C16.1232 58.8381 15.9935 60.3355 15.3001 61.6095L15.1734 61.8423C14.8331 62.4003 14.4482 62.8075 14.1364 63.0819C13.9597 63.2374 13.8073 63.3494 13.7013 63.4214C13.6484 63.4575 13.6072 63.4833 13.5804 63.4994C13.5671 63.5076 13.5573 63.5132 13.5517 63.5165C13.5487 63.5181 13.5469 63.5192 13.5461 63.5196L13.5457 63.5198L13.4334 63.5809L13.3749 63.6969C13.3093 63.8268 13.2462 63.9542 13.1846 64.0789C12.7265 65.0048 12.3427 65.7806 11.5504 66.3025L11.5498 66.3029L11.5491 66.3034C11.1565 66.564 10.6982 66.4585 10.5097 66.0833C10.3698 65.8047 10.3428 65.5204 10.3539 65.2974C10.3595 65.1869 10.3742 65.0955 10.387 65.0337C10.3919 65.0103 10.3964 64.9914 10.3999 64.9776L11.5376 62.7398C11.6417 62.5351 11.562 62.2837 11.3595 62.1784C11.1571 62.0731 10.9086 62.1538 10.8045 62.3585L9.65724 64.6153C9.10151 65.4912 8.60371 65.9368 8.20386 66.151C7.81155 66.3612 7.49359 66.36 7.25783 66.3015C6.81562 66.1906 6.47289 65.8026 6.40881 65.3427L6.40864 65.3416C6.34635 64.9033 6.49798 64.4368 6.69795 64.0486C6.79515 63.8599 6.89736 63.7022 6.97507 63.5921C7.01374 63.5372 7.04588 63.4949 7.06764 63.467C7.07657 63.4556 7.08372 63.4467 7.08883 63.4404C7.43796 63.0895 7.97716 62.5603 8.47648 62.0965C8.72971 61.8614 8.96944 61.646 9.16733 61.4801C9.26643 61.3971 9.35179 61.3291 9.42103 61.2784C9.45565 61.2531 9.48395 61.2336 9.5063 61.2193C9.51738 61.2123 9.52609 61.2072 9.5325 61.2035C9.53845 61.2002 9.54138 61.1989 9.54156 61.1988C9.74892 61.1038 9.84097 60.8568 9.74718 60.6471C9.6533 60.4373 9.40912 60.3442 9.20176 60.4391C9.04651 60.5101 8.83837 60.673 8.64141 60.8381C8.42805 61.0169 8.17672 61.243 7.91897 61.4824C7.42411 61.942 6.89361 62.4619 6.53882 62.8177C6.27514 62.9504 6.06959 62.9634 5.91459 62.9368C5.74302 62.9074 5.59702 62.823 5.47995 62.7247L5.479 62.7239L5.47804 62.7232C5.31041 62.584 5.18626 62.3898 5.12711 62.176L5.12704 62.1757C5.00524 61.7365 5.14903 61.2892 5.37005 60.9113C5.47769 60.7273 5.5955 60.5742 5.68673 60.4672C5.73204 60.4141 5.77 60.3732 5.79573 60.3464C5.80857 60.3331 5.81829 60.3234 5.82428 60.3174C5.82727 60.3145 5.82933 60.3125 5.83035 60.3115ZM5.91085 63.7761C5.6983 64.2196 5.50242 64.8242 5.59267 65.46C5.70329 66.2513 6.28643 66.9174 7.06042 67.111L7.06126 67.1113C7.48492 67.2164 8.01105 67.1979 8.58967 66.8879C8.92342 66.7091 9.2667 66.4377 9.61612 66.0496C9.65358 66.1839 9.70505 66.3222 9.77475 66.4609C10.23 67.3674 11.284 67.4763 12.0009 67.0008C12.9936 66.3465 13.4811 65.3526 13.9273 64.443C13.9702 64.3554 14.0129 64.2686 14.0555 64.1829C14.0857 64.1638 14.121 64.1407 14.1608 64.1137C14.2918 64.0247 14.4719 63.8919 14.6774 63.711C15.088 63.3496 15.6037 62.7938 16.0296 62.0118L16.3616 61.4026L16.3111 61.4019C16.8547 60.0659 16.9028 58.5648 16.3619 57.1931M5.91085 63.7761C5.86556 63.7722 5.82092 63.7664 5.77697 63.7589C5.42363 63.6984 5.14775 63.5293 4.9542 63.3669C4.65339 63.117 4.43688 62.7751 4.33328 62.4007C4.12361 61.644 4.38929 60.9506 4.66061 60.4867C4.79917 60.2498 4.94829 60.0566 5.06242 59.9228C5.11979 59.8555 5.16912 59.8022 5.20503 59.7649C5.22301 59.7462 5.23767 59.7314 5.24838 59.7209C5.25373 59.7156 5.2581 59.7113 5.2614 59.7082L5.26349 59.7062C6.74635 58.2413 8.14376 57.5016 9.18381 57.1292C9.49962 57.0161 9.78171 56.9372 10.0226 56.882C9.44594 56.3055 8.99001 55.7555 8.67741 55.3447C8.19228 54.7111 8.09108 53.8235 8.50156 53.1089L8.52509 53.0626L8.5333 53.0491C9.21275 51.9306 10.7394 51.7898 11.6535 52.6771C12.1022 53.1079 12.5089 53.414 12.8009 53.611C12.9469 53.7096 13.064 53.7806 13.1429 53.8262C13.1824 53.849 13.2122 53.8655 13.2315 53.8758C13.2411 53.881 13.2479 53.8846 13.2521 53.8866L13.2558 53.8886L13.2559 53.8887L13.2562 53.8887L13.2564 53.8889L13.2572 53.8893L13.2588 53.8901C15.0234 54.7919 15.9186 56.0664 16.3619 57.1931" fill="black"/>
<path fill-rule="evenodd" clip-rule="evenodd" d="M41.2733 59.33C42.3158 59.7918 42.7908 61.0211 42.3342 62.0756C41.497 64.009 40.2303 67.2469 39.1771 70.6159C38.1041 74.0485 37.3325 77.373 37.3325 79.5832C37.3325 84.4824 38.2461 89.1603 38.6823 90.8111C38.9761 91.9233 38.323 93.0662 37.2234 93.3627C36.1238 93.6601 34.9943 92.9995 34.7004 91.8874C34.1901 89.9558 33.2109 84.912 33.2109 79.5832C33.2109 76.6794 34.1642 72.8238 35.2474 69.359C36.3504 65.8305 37.671 62.4534 38.5589 60.4031C39.0155 59.3485 40.2308 58.868 41.2733 59.33Z" fill="black"/>
<path d="M32.4974 87.3652H38.7282C39.0376 87.3652 39.3137 87.5617 39.418 87.8563L42.1261 95.4998C42.2972 95.9825 41.9435 96.4911 41.4364 96.4911H27.9863C27.6225 96.4911 27.3069 96.2206 27.2982 95.8528C27.2459 93.6385 28.7535 92.2758 31.8488 92.0483C32.3325 92.0127 32.6855 91.5465 32.5552 91.074L31.7916 88.3056C31.6614 87.8331 32.0125 87.3652 32.4974 87.3652Z" fill="#755FFF"/>
<path d="M32.4974 87.3652H38.7282C39.0376 87.3652 39.3137 87.5617 39.418 87.8563L42.1261 95.4998C42.2972 95.9825 41.9435 96.4911 41.4364 96.4911H27.9863C27.6225 96.4911 27.3069 96.2206 27.2982 95.8528C27.2459 93.6385 28.7535 92.2758 31.8488 92.0483C32.3325 92.0127 32.6855 91.5465 32.5552 91.074L31.7916 88.3056C31.6614 87.8331 32.0125 87.3652 32.4974 87.3652Z" fill="url(#paint1_linear_360_1751)" fill-opacity="0.8"/>
<path fill-rule="evenodd" clip-rule="evenodd" d="M39.8119 87.7156C39.6488 87.2554 39.2175 86.9482 38.7341 86.9482H32.5033C31.7456 86.9482 31.197 87.6793 31.4006 88.4175L32.2803 91.6073C30.6246 91.6694 29.3171 92.0239 28.3977 92.6805C27.3557 93.4244 26.8604 94.5223 26.8921 95.862C26.9069 96.4892 27.438 96.9079 27.9921 96.9079H41.4423C42.2345 96.9079 42.7873 96.114 42.52 95.3598L39.8119 87.7156ZM33.1334 91.5974L32.1945 88.1934C32.1375 87.9867 32.2911 87.7821 32.5033 87.7821H38.7341C38.8695 87.7821 38.9902 87.868 39.0359 87.9969L41.7441 95.6405C41.8189 95.8518 41.6641 96.0741 41.4423 96.0741H27.9921C27.8188 96.0741 27.7187 95.9518 27.7162 95.8425C27.6903 94.7493 28.0795 93.9284 28.8732 93.3614C29.6917 92.7769 30.9862 92.4312 32.8204 92.4312H35.1338C35.3614 92.4312 35.546 92.2445 35.546 92.0143C35.546 91.7841 35.3614 91.5974 35.1338 91.5974H33.1334Z" fill="black"/>
<path fill-rule="evenodd" clip-rule="evenodd" d="M51.2452 83.1638C51.2091 83.2181 51.1303 83.2185 51.0937 83.1646L7.97052 19.6666C7.85099 19.4905 7.96418 19.2496 8.17457 19.2321L59.9288 14.9448C60.5231 14.8956 61.1213 14.9292 61.7065 15.0449L92.0624 21.0439C92.2557 21.082 92.3473 21.3068 92.2383 21.4718L51.2452 83.1638Z" fill="#755FFF"/>
<path fill-rule="evenodd" clip-rule="evenodd" d="M49.9619 83.9505L6.83876 20.4525C6.12155 19.3964 6.80069 17.9507 8.06307 17.8461L59.8173 13.5588C60.5371 13.4992 61.2617 13.54 61.9705 13.6801L92.3269 19.679C93.4846 19.9078 94.0368 21.256 93.3792 22.246L52.3861 83.9381C51.8089 84.8066 50.5477 84.8131 49.9619 83.9505ZM51.2458 83.1628C51.2098 83.2171 51.1309 83.2176 51.0943 83.1636L7.97116 19.6656C7.85163 19.4896 7.96482 19.2486 8.17522 19.2312L59.9294 14.9438C60.5238 14.8946 61.1219 14.9283 61.7071 15.044L92.0631 21.043C92.2563 21.0811 92.3479 21.3058 92.2389 21.4708L51.2458 83.1628Z" fill="black"/>
<path d="M7.69531 19.2711L51.155 83.3355L60.8178 14.7314L7.69531 19.2711Z" fill="#755FFF"/>
<path d="M7.69531 19.2711L51.155 83.3355L60.8178 14.7314L7.69531 19.2711Z" fill="url(#paint2_linear_360_1751)" fill-opacity="0.8"/>
<path d="M92.4636 21.1237L60.819 14.8701L51.1562 83.2889L92.4636 21.1237Z" fill="#755FFF"/>
<path d="M92.4636 21.1237L60.819 14.8701L51.1562 83.2889L92.4636 21.1237Z" fill="url(#paint3_linear_360_1751)" fill-opacity="0.8"/>
<path fill-rule="evenodd" clip-rule="evenodd" d="M60.4343 14.3223L93.2262 20.8025L51.585 84.2404L50.75 83.9196L60.4343 14.3223ZM60.8205 14.8705L51.2036 83.9842L92.4651 21.1241L60.8205 14.8705Z" fill="black"/>
<path fill-rule="evenodd" clip-rule="evenodd" d="M28.2707 24.7949C28.2014 25.0143 27.9695 25.1353 27.7527 25.0653C27.252 24.9036 26.8135 25.0051 26.452 25.2091C26.0806 25.4188 25.8057 25.7301 25.6745 25.9397C25.5526 26.1343 25.298 26.192 25.1057 26.0688C24.9134 25.9455 24.8563 25.688 24.9781 25.4935C25.172 25.1839 25.5425 24.7676 26.0503 24.481C26.5681 24.1888 27.2428 24.0255 28.0033 24.271C28.2201 24.3409 28.3398 24.5755 28.2707 24.7949Z" fill="black"/>
<path d="M29.1909 31.9473C27.6481 31.9473 26.3974 30.6822 26.3974 29.1216C26.3974 27.561 27.6481 26.2959 29.1909 26.2959C30.7337 26.2959 31.9844 27.561 31.9844 29.1216C31.9844 30.6822 30.7337 31.9473 29.1909 31.9473Z" fill="white"/>
<path d="M29.4416 28.3485C29.4801 28.3955 29.5391 28.4203 29.5993 28.4149L30.4105 28.3408C30.5617 28.327 30.6629 28.4946 30.5818 28.6243L30.1459 29.3218C30.1136 29.3733 30.1086 29.4376 30.1323 29.4936L30.4526 30.2511C30.5123 30.3924 30.3859 30.5417 30.2389 30.5036L29.4511 30.2998C29.3926 30.2847 29.3305 30.2996 29.2851 30.3397L28.6704 30.8828C28.556 30.9838 28.3766 30.9083 28.367 30.7549L28.3155 29.9315C28.3116 29.8705 28.2784 29.8154 28.2265 29.7841L27.5268 29.3614C27.3964 29.2827 27.4119 29.087 27.553 29.0302L28.3105 28.7253C28.3666 28.7027 28.4081 28.6538 28.4214 28.5943L28.6026 27.7907C28.6364 27.6409 28.8254 27.5953 28.9223 27.7137L29.4416 28.3485Z" fill="black"/>
<path fill-rule="evenodd" clip-rule="evenodd" d="M42.2149 24.4248C42.2841 24.6441 42.5161 24.7651 42.7328 24.6952C43.2336 24.5335 43.6721 24.635 44.0336 24.839C44.405 25.0486 44.6799 25.36 44.8111 25.5696C44.9329 25.7641 45.1876 25.8219 45.3799 25.6986C45.5722 25.5754 45.6293 25.3179 45.5075 25.1234C45.3136 24.8138 44.9431 24.3975 44.4352 24.1109C43.9175 23.8187 43.2426 23.6554 42.4823 23.9008C42.2655 23.9708 42.1458 24.2054 42.2149 24.4248Z" fill="black"/>
<path d="M41.3002 31.5772C39.7574 31.5772 38.5067 30.3121 38.5067 28.7515C38.5067 27.1909 39.7574 25.9258 41.3002 25.9258C42.8431 25.9258 44.0938 27.1909 44.0938 28.7515C44.0938 30.3121 42.8431 31.5772 41.3002 31.5772Z" fill="white"/>
<path d="M40.6376 27.9774C40.5991 28.0244 40.5402 28.0492 40.48 28.0438L39.6688 27.9697C39.5176 27.9559 39.4164 28.1235 39.4975 28.2533L39.9334 28.9507C39.9656 29.0022 39.9707 29.0665 39.9469 29.1225L39.6266 29.88C39.5668 30.0213 39.6932 30.1706 39.8404 30.1325L40.6282 29.9287C40.6866 29.9136 40.7486 29.9285 40.7941 29.9686L41.4089 30.5117C41.5233 30.6127 41.7025 30.5372 41.7122 30.3838L41.7638 29.5604C41.7676 29.4994 41.8009 29.4443 41.8527 29.413L42.5525 28.9903C42.6828 28.9116 42.6674 28.7159 42.5263 28.6591L41.7687 28.3542C41.7127 28.3316 41.6712 28.2827 41.6578 28.2232L41.4767 27.4196C41.4429 27.2698 41.2538 27.2242 41.1569 27.3426L40.6376 27.9774Z" fill="black"/>
<path fill-rule="evenodd" clip-rule="evenodd" d="M25.6609 36.8978C22.4741 36.4926 23.6351 33.1057 26.5992 33.8925C29.6577 34.5462 28.0555 37.0369 25.6609 36.8978Z" fill="#DED1FA"/>
<path fill-rule="evenodd" clip-rule="evenodd" d="M43.3164 35.651C42.3595 35.4174 41.8625 34.1751 42.616 33.43C43.5737 32.5708 45.9139 32.4201 46.4786 33.8102C46.8223 35.3346 44.4454 36.0237 43.3164 35.651Z" fill="#DED1FA"/>
<path fill-rule="evenodd" clip-rule="evenodd" d="M31.9314 35.493C31.822 36.031 31.8785 36.7175 32.1519 37.4137C32.4251 38.1099 32.8492 38.6487 33.2938 38.9643C33.7417 39.2824 34.1628 39.3471 34.4857 39.2175C34.7701 39.1033 35.0053 38.8297 35.1345 38.3949C35.1779 38.249 35.2081 38.0878 35.2232 37.914C35.2428 37.6846 35.4427 37.5149 35.6695 37.5348C35.8542 37.5511 35.9998 37.6883 36.0367 37.8627L37.3872 37.3203C37.5988 37.2353 37.8384 37.34 37.9224 37.554C38.0064 37.7681 37.903 38.0103 37.6914 38.0953L35.8573 38.8318C35.6595 39.3502 35.3074 39.7846 34.7898 39.9925C34.1254 40.2592 33.4106 40.066 32.8201 39.6467C32.2262 39.225 31.7097 38.5468 31.3857 37.7214C31.0617 36.8959 30.9778 36.0438 31.124 35.325C31.2694 34.6102 31.6586 33.9737 32.323 33.7068C32.8981 33.476 33.5117 33.5898 34.0485 33.8964L35.7719 33.2043C35.9834 33.1194 36.223 33.224 36.307 33.438C36.391 33.652 36.2876 33.8944 36.076 33.9793L34.7253 34.5218C34.7512 34.6468 34.7201 34.7824 34.6296 34.8851C34.4782 35.057 34.2176 35.0721 34.0477 34.9188C33.9591 34.839 33.8692 34.7683 33.779 34.7072C33.3454 34.413 32.9405 34.356 32.6272 34.4818C32.3043 34.6115 32.0418 34.9507 31.9314 35.493Z" fill="black"/>
<path d="M67.5518 16.0075C67.5518 16.0075 67.3691 16.2232 66.8976 16.4825C65.1089 17.4651 62.7823 17.4537 60.7946 17.2887C58.979 17.1381 57.1217 16.8289 55.474 16.0923C55.1352 15.9409 54.746 15.7545 54.3851 15.5284C53.9206 15.2372 53.5026 14.8801 53.2969 14.4447L53.6165 13.9726L55.3715 11.3802L56.3466 9.93963L58.2062 7.19333L59.317 5.55242L61.3428 2.56059L62.4211 0.967773L62.8786 2.30844L63.7886 4.97622L64.3168 6.52473L65.2244 9.18466L65.7468 10.7158L66.6525 13.3711L67.1678 14.8817L67.5518 16.0075Z" fill="#AD5DDB"/>
<path d="M63.7838 4.97608C62.3507 5.27444 60.8468 5.4667 59.3125 5.55257L61.3383 2.56075C61.8581 2.49096 62.3709 2.40709 62.874 2.30859L63.7841 4.97637L63.7838 4.97608Z" fill="#DAA6FF"/>
<path d="M65.2212 9.18432C65.0226 9.23167 64.8221 9.27726 64.6206 9.32062C62.0201 9.87918 59.1803 10.0862 56.3438 9.93958L58.2033 7.19327C60.1936 7.18973 62.1531 6.99134 63.9773 6.59943C64.0901 6.57527 64.2024 6.55027 64.314 6.52441L65.2215 9.18435L65.2212 9.18432Z" fill="#DAA6FF"/>
<path d="M66.6529 13.371C66.2064 13.4919 65.7518 13.602 65.2901 13.7011C62.093 14.3878 58.5338 14.5434 55.064 14.163C54.5796 14.1099 54.0969 14.0462 53.6172 13.9723L55.3722 11.3799C58.5258 11.7353 61.7562 11.6006 64.6472 10.9797C65.0199 10.8995 65.3869 10.8114 65.7475 10.7158L66.6531 13.3711L66.6529 13.371Z" fill="#DAA6FF"/>
<path d="M67.5496 16.0073C67.5496 16.0073 67.3668 16.2232 66.8953 16.4824C65.1067 17.4649 62.78 17.4535 60.7923 17.2885C58.9767 17.138 57.1194 16.8287 55.4717 16.0922C55.1328 15.9408 54.7437 15.7544 54.3828 15.5282C58.0436 16.1488 61.9118 16.0905 65.3106 15.3604C65.9469 15.2235 66.5665 15.0637 67.1657 14.8818L67.5498 16.0077L67.5496 16.0073Z" fill="#DAA6FF"/>
<path fill-rule="evenodd" clip-rule="evenodd" d="M62.5486 0.0498047L63.2695 2.16264L64.1796 4.83044L64.7077 6.37894L65.6153 9.03886L66.1377 10.57L67.5587 14.7359L68.0191 16.0854L67.8626 16.2702L67.5508 16.0072C67.8626 16.2702 67.8625 16.2703 67.8624 16.2705L67.8622 16.2707L67.8617 16.2711L67.8609 16.2722L67.859 16.2744C67.8583 16.2751 67.8577 16.2759 67.8571 16.2766C67.8562 16.2776 67.8552 16.2787 67.8543 16.2798C67.8507 16.2837 67.8464 16.2885 67.8414 16.294C67.8311 16.3051 67.8178 16.3191 67.8009 16.3358C67.7672 16.3693 67.7199 16.4132 67.6572 16.4649C67.5319 16.5683 67.346 16.7023 67.0864 16.845L67.0863 16.8451C65.1758 17.8945 62.7343 17.8672 60.7465 17.7022C58.9125 17.5502 57.0028 17.2358 55.2947 16.4723C54.9502 16.3183 54.5412 16.1231 54.157 15.8823C53.6717 15.5781 53.1756 15.1712 52.9209 14.6319L52.8203 14.419L53.2755 13.7466L62.5486 0.0498047ZM67.2427 15.74C67.2431 15.7395 67.2434 15.7393 67.2434 15.7393L67.243 15.7397L67.2427 15.74ZM67.0688 15.8891C66.9839 15.9527 66.8651 16.0325 66.7068 16.1195C65.04 17.0351 62.8282 17.0395 60.8406 16.8746C59.0434 16.7256 57.2386 16.4214 55.6513 15.7118C55.3182 15.5631 54.9487 15.3855 54.6112 15.174C54.2551 14.9508 53.9658 14.7089 53.7845 14.4506L62.2916 1.88525L62.4856 2.45373L63.3956 5.12149L63.9238 6.67001L64.8314 9.32995L65.3538 10.8611L66.2595 13.5164L66.7747 15.027L67.0688 15.8891Z" fill="black"/>
<path d="M47.6328 9.17285L48.5461 11.489L50.1058 9.95826L47.6328 9.17285Z" fill="#FEEB00"/>
<path d="M34.3429 6.30078L36.5461 8.29965L33.6351 12.0448L31.875 10.9815L34.3429 6.30078Z" fill="#CBDB2A"/>
<path d="M44.6223 2.44433C44.2414 1.90715 43.6014 1.60871 42.9583 1.67783C42.4767 1.72809 42.0287 1.97626 41.724 2.36265C41.5197 2.62025 41.3918 2.9124 41.3369 3.23912C41.2881 3.55326 41.3125 3.86111 41.41 4.15955C41.4253 4.25379 41.4497 4.34804 41.4802 4.44228C41.4802 4.45485 41.4862 4.46427 41.4893 4.47684C41.5746 4.83182 41.8854 5.15852 42.1994 5.36586C42.2086 5.37214 42.2177 5.37843 42.2268 5.38471C42.2878 5.42555 42.3518 5.4601 42.4127 5.48838C42.4432 5.50094 42.4737 5.5135 42.5042 5.52608C42.5164 5.52922 42.5255 5.5355 42.5377 5.53864C42.6322 5.5732 42.7267 5.60147 42.8273 5.62032C42.8364 5.62032 42.8455 5.6266 42.8578 5.62974C42.873 5.62974 42.8882 5.62974 42.9035 5.63602C42.9248 5.63917 42.9492 5.64231 42.9735 5.64545C43.004 5.64859 43.0345 5.65173 43.0649 5.65173C43.1107 5.65173 43.1533 5.65173 43.199 5.65173C43.2052 5.65173 43.2082 5.65173 43.2143 5.65173C43.4155 5.64545 43.6166 5.60775 43.8087 5.53236C43.9397 5.47895 44.0585 5.4067 44.1744 5.32503C44.2475 5.27476 44.3206 5.21507 44.3877 5.15538C44.3877 5.15538 44.3877 5.15538 44.3938 5.15224C44.6803 4.88836 44.8815 4.53338 44.9302 4.12186C44.9393 4.04018 44.9485 3.9585 44.9577 3.87683C45.0186 3.36477 44.9333 2.87156 44.6346 2.44747L44.6223 2.44433Z" fill="#CDEC25"/>
<path d="M25.8316 11.5842C24.0683 11.6953 24.3493 14.561 26.1057 14.4499C27.8691 14.3388 27.588 11.4731 25.8316 11.5842Z" fill="#00B9EF"/>
<path d="M52.4859 1.78798C52.4146 1.07361 51.6714 0.311624 50.8985 0.490216C50.4288 0.59737 49.9174 0.752145 49.6439 1.19267C49.3824 1.61533 49.2812 1.95466 49.2812 2.44877C49.2812 3.06193 49.8639 3.5858 50.4347 3.687C50.9223 3.77034 51.392 3.57985 51.7011 3.23457C52.2124 2.96668 52.5394 2.35946 52.48 1.78798H52.4859Z" fill="#F9CBDF"/>
<path d="M26.7417 38.9207C26.7417 38.9207 28.3148 39.7514 27.8009 41.0028C27.8009 41.0028 16.243 49.1638 11.1141 46.7339C11.1141 46.7339 6.97861 44.9365 6.66587 41.6384C6.66587 41.6384 6.28936 37.08 10.2477 35.2587C10.2477 35.2587 14.6992 33.2856 16.2781 37.2492C16.2781 37.2492 17.8159 40.8019 13.8894 42.5124C13.8894 42.5124 12.2092 43.3351 11.1451 41.3458C11.1451 41.3458 10.2596 39.5769 12.0505 38.8681C12.0505 38.8681 14.0586 38.2619 13.492 40.4821C13.492 40.4821 15.4893 39.0893 13.9897 37.5739C13.9897 37.5739 12.665 36.2515 10.7014 38.0932C10.7014 38.0932 8.57065 39.8669 9.869 42.1705C9.869 42.1705 12.2484 46.5126 19.3008 42.1013C19.3008 42.1013 21.4443 40.9524 23.5643 39.9837C24.8374 39.4014 26.2803 38.6304 26.7417 38.9207Z" fill="#DAA6FF"/>
<path d="M25.1163 42.7334C25.6085 42.4351 26.0518 42.1593 26.4287 41.9182C25.8113 40.9517 24.9215 40.2385 24.0962 39.7363C23.919 39.8198 23.7418 39.9032 23.5669 39.9824C23.1528 40.1712 22.7362 40.3697 22.3359 40.5636C23.1626 40.9347 24.399 41.6337 25.1163 42.7334Z" fill="#AD5DDB"/>
<path d="M22.2314 44.3532C22.7024 44.1075 23.1573 43.8607 23.5924 43.6194C22.9529 42.5195 21.9578 41.7317 21.0553 41.1992C20.2019 41.6269 19.5573 41.9695 19.3672 42.0708C20.2205 42.4487 21.522 43.1852 22.2323 44.3566L22.2314 44.3532Z" fill="#AD5DDB"/>
<path d="M19.0959 45.8129C19.5719 45.6175 20.0451 45.4122 20.5135 45.1957C19.989 44.1085 19.1129 43.2965 18.2519 42.7148C17.6425 43.044 17.0725 43.3032 16.5391 43.5021C17.4169 43.9502 18.5262 44.7025 19.0959 45.8129Z" fill="#AD5DDB"/>
<path d="M15.6085 46.9244C16.0981 46.8183 16.5979 46.6845 17.1021 46.5278C16.7566 45.4479 16.1032 44.5309 15.4717 43.8369C14.7323 44.0269 14.0762 44.0934 13.5 44.0769C14.129 44.6122 15.1655 45.6427 15.6073 46.9266L15.6085 46.9244Z" fill="#AD5DDB"/>
<path d="M11.7893 46.9837C12.2623 47.1149 12.7754 47.1796 13.3166 47.1845C13.4842 46.0655 13.3047 44.9519 13.0389 44.0413C12.2665 43.9542 11.659 43.7118 11.1875 43.4297C11.5371 44.2452 11.9986 45.6472 11.7873 46.9825L11.7893 46.9837Z" fill="#AD5DDB"/>
<path d="M9.51704 45.803C9.57135 45.7359 9.62448 45.671 9.67458 45.6015C9.81984 45.4071 9.95035 45.2042 10.0671 44.9963C10.4032 44.3978 10.6278 43.7605 10.7743 43.1485C10.3733 42.8396 10.1184 42.5276 9.98443 42.3412C9.90905 42.2333 9.87351 42.168 9.87351 42.168C9.74602 41.9404 9.64966 41.7166 9.58418 41.5021C9.54983 41.3954 9.5262 41.2892 9.50559 41.1875C9.45659 42.1446 9.23696 43.6576 8.38599 44.7434C8.3684 44.7698 8.34991 44.7929 8.32812 44.8168C8.71851 45.2039 9.13239 45.5342 9.51915 45.8042L9.51704 45.803Z" fill="#AD5DDB"/>
<path d="M7.07031 38.8256C7.94141 39.2361 8.87769 39.3922 9.72868 39.4235C10.0958 38.6016 10.7059 38.0931 10.7059 38.0931C10.8003 38.0042 10.8931 37.9229 10.9845 37.849C10.9991 37.8378 11.0117 37.8253 11.0251 37.8162C11.0044 37.8183 10.9838 37.8206 10.9599 37.8236C10.0709 37.9192 8.81097 37.9196 7.7424 37.4209C7.71528 37.4643 7.68816 37.5076 7.66223 37.5488C7.46228 37.8802 7.29976 38.2191 7.17105 38.5522C7.15856 38.5843 7.14608 38.6165 7.13478 38.6464C7.12855 38.6625 7.12111 38.6807 7.11696 38.698C7.10181 38.7398 7.08665 38.7816 7.0715 38.8235L7.07031 38.8256Z" fill="#AD5DDB"/>
<path d="M10.9798 37.8487C11.3668 37.5349 11.726 37.3399 12.0526 37.2328C12.1922 37.1866 12.3268 37.1545 12.451 37.136C11.9076 36.6161 11.2844 35.8877 10.9155 35.0273C10.8365 35.0494 10.7663 35.0707 10.7013 35.0924C10.6651 35.1025 10.632 35.1171 10.5991 35.1263C10.565 35.1376 10.5342 35.148 10.5022 35.1605C10.4747 35.1699 10.4493 35.1806 10.4263 35.187C10.336 35.2193 10.2774 35.2446 10.2553 35.2543C10.2487 35.2562 10.2475 35.2583 10.2475 35.2583C10.1844 35.2867 10.1246 35.3141 10.0658 35.3447C10.0592 35.3466 10.0514 35.3506 10.0457 35.3558C9.98353 35.3874 9.92464 35.4181 9.86465 35.451C9.81675 35.4769 9.76894 35.5027 9.72323 35.5298C9.70327 35.5407 9.68202 35.5538 9.66196 35.5648C9.64978 35.5717 9.63631 35.5809 9.62285 35.59C9.58612 35.611 9.55141 35.6332 9.51679 35.6554C9.51441 35.6596 9.51111 35.6605 9.50781 35.6614C9.8761 36.5129 10.4224 37.245 10.9572 37.8245C10.9633 37.8336 10.9725 37.8417 10.9798 37.8487Z" fill="#AD5DDB"/>
<path d="M12.0264 36.9902C12.0362 37.0715 12.046 37.1529 12.0537 37.2332C12.7609 36.9966 13.3099 37.1604 13.6402 37.3333C13.6813 37.3541 13.7169 37.3745 13.7493 37.396C13.732 37.2934 13.7138 37.1875 13.7011 37.0764C13.6801 36.9212 13.6606 36.7584 13.6475 36.5937C13.6012 36.0535 13.606 35.4668 13.7023 34.885C13.1387 34.752 12.5694 34.7479 12.0587 34.8025C11.9485 35.5672 11.96 36.3176 12.0297 36.9892L12.0264 36.9902Z" fill="#AD5DDB"/>
<path d="M13.9953 37.5733C14.2035 37.7856 14.345 37.9932 14.4327 38.198C14.935 37.7679 15.5465 37.3558 16.2289 37.119C16.1788 37.0005 16.1233 36.8871 16.0661 36.7813C16.0504 36.7498 16.0348 36.7184 16.0158 36.6879C15.9972 36.6519 15.9773 36.6181 15.9575 36.5842C15.916 36.5099 15.8721 36.4397 15.8238 36.3727C15.8057 36.3454 15.7877 36.3183 15.7664 36.292C15.7402 36.2545 15.7141 36.217 15.6868 36.1817C15.6676 36.1566 15.6484 36.1315 15.6291 36.1065C15.6018 36.0711 15.5733 36.0379 15.5448 36.0047C15.5102 35.9624 15.4745 35.9222 15.4355 35.8829C15.416 35.8634 15.3977 35.8416 15.3761 35.8208C15.368 35.8105 15.3565 35.8011 15.3473 35.793C14.6797 36.0776 14.0873 36.4754 13.5793 36.8909C13.4607 36.9884 13.3487 37.0841 13.2422 37.1801C13.3967 37.2211 13.5322 37.2764 13.6382 37.3346C13.6793 37.3553 13.715 37.3758 13.7473 37.3972C13.9056 37.491 13.9887 37.5752 13.9887 37.5752L13.9953 37.5733Z" fill="#AD5DDB"/>
<path d="M13.7443 40.27C13.8649 40.2775 13.9876 40.2863 14.1166 40.2986C14.2747 40.3137 14.4346 40.3353 14.6008 40.3606C15.0753 40.4396 15.571 40.57 16.0363 40.7839C16.0777 40.7151 16.1179 40.6484 16.1507 40.5802C16.2162 40.4635 16.2701 40.3428 16.3153 40.2229C16.323 40.1992 16.3328 40.1768 16.3426 40.1543C16.3578 40.1125 16.3729 40.0707 16.386 40.0277C16.4 39.988 16.4119 39.9471 16.4237 39.9062C16.4377 39.8664 16.4474 39.8244 16.456 39.7844C16.4678 39.7435 16.4764 39.7035 16.4829 39.6624C16.4971 39.5975 16.5092 39.5314 16.5201 39.4676C16.5284 39.4133 16.5366 39.3591 16.5416 39.3059C15.8758 39.0188 15.1828 38.8593 14.5419 38.7803C14.5399 38.8577 14.5338 38.9329 14.5191 39.0086C14.4748 39.2554 14.3721 39.4827 14.2452 39.6792C14.0875 39.9255 13.8953 40.1295 13.7422 40.2688L13.7443 40.27Z" fill="#AD5DDB"/>
<path d="M6.84616 42.5174C7.81304 42.3572 8.82086 41.9509 9.60552 41.5764C9.36904 40.8708 9.43379 40.2315 9.61945 39.6982C8.72523 40.1838 7.57577 40.6743 6.67151 40.8565C6.63985 41.338 6.66728 41.64 6.66728 41.64C6.69562 41.9454 6.75924 42.2374 6.84616 42.5174Z" fill="#AD5DDB"/>
<path d="M13.5383 42.627C13.7272 41.8654 13.7782 41.0134 13.7729 40.2469C13.6138 40.3969 13.4949 40.4802 13.4949 40.4802C13.6798 39.7555 13.5907 39.331 13.385 39.0894C13.2415 38.9199 13.0426 38.8393 12.8378 38.8087C12.4477 38.7474 12.0514 38.865 12.0514 38.865C12.0494 38.8638 12.0449 38.8668 12.0416 38.8677C12.151 39.9776 12.155 41.3693 11.9219 42.2935C12.527 42.7478 13.1599 42.7128 13.5383 42.627Z" fill="#AD5DDB"/>
<path fill-rule="evenodd" clip-rule="evenodd" d="M6.26102 41.6726C6.26104 41.6728 6.26105 41.673 6.67177 41.6383L6.26105 41.673L6.26126 41.6755L6.2615 41.6781C6.43388 43.4959 7.65227 44.8623 8.75689 45.7493C9.31563 46.198 9.86242 46.5381 10.2692 46.766C10.473 46.8803 10.6426 46.9669 10.7623 47.0254C10.8222 47.0547 10.8697 47.0771 10.9028 47.0922C10.9194 47.0999 10.9324 47.1058 10.9415 47.1098C10.9451 47.1114 10.9481 47.1128 10.9505 47.1138C12.3581 47.7784 14.1518 47.6994 15.9842 47.2695C17.8313 46.8362 19.7882 46.0293 21.567 45.1544C23.3486 44.2781 24.9661 43.3264 26.1374 42.5945C26.7234 42.2283 27.1986 41.9167 27.5278 41.6962C27.6924 41.5859 27.8205 41.4984 27.9078 41.4383C27.9514 41.4082 27.9849 41.385 28.0076 41.3692C28.0189 41.3613 28.0275 41.3552 28.0335 41.3511L28.042 41.3451L28.0426 41.3447C28.0426 41.3446 28.0427 41.3445 27.8069 41.0026L28.0427 41.3445L28.1414 41.2748L28.1875 41.1626C28.5325 40.3223 28.1548 39.6322 27.7741 39.2111C27.5823 38.9988 27.3755 38.8358 27.2196 38.7269C27.1409 38.6719 27.0733 38.6293 27.0242 38.6C26.9996 38.5852 26.9796 38.5738 26.965 38.5656C26.9577 38.5614 26.9517 38.5582 26.9472 38.5558L26.9416 38.5527L26.9397 38.5517L26.939 38.5513L26.9386 38.5511C26.9385 38.5511 26.9383 38.551 26.7476 38.9205L26.9383 38.551L26.8616 38.5105L25.8903 38.4444L25.7895 38.4957C23.406 39.7116 17.9528 42.4231 15.1497 43.5743C13.8557 44.1058 12.779 43.9395 11.951 43.5302C11.1094 43.1143 10.5143 42.4408 10.2311 41.9606C9.66999 40.9623 9.84713 40.0976 10.1711 39.4579C10.3359 39.1326 10.5385 38.8683 10.7014 38.6847C10.7824 38.5934 10.8522 38.5234 10.9006 38.4775C10.9248 38.4545 10.9435 38.4376 10.9554 38.4271C10.9613 38.4218 10.9655 38.4181 10.9679 38.4161L10.9695 38.4147L10.9697 38.4145L10.9699 38.4143L10.9786 38.4071L10.9875 38.3987C11.8906 37.5518 12.5871 37.4787 13.0179 37.5536C13.2447 37.5931 13.4231 37.678 13.544 37.7522C13.6042 37.7892 13.6489 37.8229 13.6768 37.8456C13.6906 37.8569 13.7001 37.8652 13.7052 37.8697C13.7059 37.8705 13.7066 37.871 13.7071 37.8716C13.7074 37.8718 13.7077 37.8721 13.7078 37.8722C14.0221 38.191 14.1238 38.4704 14.1393 38.6964C14.1549 38.9234 14.0869 39.1482 13.9661 39.3632C13.9471 39.2807 13.9218 39.2024 13.8903 39.1284C13.7221 38.7327 13.4089 38.531 13.104 38.4418C12.8124 38.3567 12.5163 38.3688 12.3114 38.3941C12.2055 38.4073 12.1155 38.425 12.0512 38.4396C12.0188 38.4469 11.9925 38.4536 11.9734 38.4587C11.9639 38.4613 11.9561 38.4634 11.9502 38.4651C11.9473 38.4659 11.9448 38.4667 11.9429 38.4672L11.9403 38.468L11.9393 38.4683L11.939 38.4684C11.9387 38.4685 11.9385 38.4685 12.0565 38.868L11.9385 38.4685L11.9222 38.4735L11.9063 38.4798C11.3908 38.6838 11.0356 38.9782 10.8128 39.3286C10.5918 39.6762 10.5215 40.0464 10.52 40.3706C10.5185 40.6925 10.5843 40.9803 10.6475 41.1833C10.6794 41.286 10.7116 41.3702 10.7367 41.43C10.7491 41.46 10.7598 41.4841 10.7679 41.5016C10.7719 41.5104 10.7753 41.5176 10.778 41.5229C10.7792 41.5256 10.7803 41.5279 10.7813 41.5298L10.7824 41.5322L10.7831 41.5336C10.7832 41.5338 10.7833 41.534 11.151 41.3456L10.7833 41.534L10.7858 41.5391L10.7885 41.544C11.3866 42.6621 12.1966 43.0367 12.8906 43.0907C13.2241 43.1165 13.5144 43.0675 13.7204 43.0131C13.824 42.9856 13.9082 42.9564 13.9684 42.933C13.9986 42.9213 14.0229 42.9111 14.0408 42.9032C14.0456 42.901 14.05 42.8991 14.054 42.8973C14.0573 42.8958 14.0602 42.8945 14.0628 42.8933C14.0633 42.893 14.0639 42.8927 14.0643 42.8925C15.1009 42.4399 15.8027 41.8541 16.2596 41.2118C16.717 40.5688 16.9133 39.8911 16.9723 39.2798C17.0311 38.6713 16.9543 38.1266 16.8644 37.7364C16.8194 37.5405 16.7704 37.381 16.732 37.2688C16.7127 37.2126 16.6961 37.1681 16.6838 37.1365C16.6777 37.1208 16.6726 37.1082 16.6689 37.0991C16.6671 37.095 16.6658 37.0916 16.6646 37.0889C16.2381 36.0207 15.6058 35.3266 14.8814 34.9046C14.1623 34.4858 13.3814 34.3517 12.6775 34.3506C11.9736 34.3494 11.3292 34.4809 10.8645 34.6102C10.631 34.6752 10.4401 34.7404 10.3063 34.79C10.2393 34.8147 10.1865 34.8357 10.1496 34.8508C10.1311 34.8584 10.1166 34.8644 10.1063 34.8689C10.1012 34.8711 10.0971 34.8728 10.0941 34.8741L10.0903 34.8758L10.089 34.8764L10.0886 34.8765C10.0884 34.8766 10.0882 34.8767 10.2536 35.2585L10.0882 34.8767L10.0855 34.8778L10.083 34.879C7.96485 35.8536 7.00699 37.5665 6.58315 39.0129C6.37176 39.7343 6.29127 40.3938 6.26335 40.873C6.24937 41.1132 6.2485 41.3094 6.25125 41.4473C6.25264 41.5163 6.25493 41.5707 6.25694 41.6089C6.25796 41.6281 6.2589 41.6431 6.25963 41.6539C6.2599 41.6577 6.26014 41.6611 6.26034 41.6639L6.26056 41.6667L6.26086 41.6707L6.26097 41.6721L6.26102 41.6726ZM10.4208 35.6397C8.58296 36.4866 7.75072 37.9626 7.37347 39.2499C7.18419 39.8958 7.11143 40.4898 7.08624 40.9221C7.07367 41.1378 7.07303 41.3119 7.0754 41.4305C7.07658 41.4897 7.07852 41.5349 7.08008 41.5644C7.08086 41.5791 7.08155 41.5899 7.082 41.5965C7.08216 41.5989 7.0823 41.6008 7.08239 41.6021C7.22404 43.0807 8.22898 44.2608 9.26947 45.0963C9.78366 45.5092 10.2902 45.8246 10.6687 46.0367C10.8576 46.1425 11.0134 46.2221 11.1211 46.2747C11.1748 46.3011 11.2165 46.3206 11.2441 46.3333C11.2518 46.3368 11.2584 46.3399 11.2639 46.3424C11.2682 46.3443 11.2718 46.3459 11.2747 46.3472L11.2816 46.3502L11.2827 46.3507L11.2829 46.3508L11.283 46.3509L11.2888 46.3534L11.2948 46.3563C12.4509 46.9039 14.023 46.8736 15.7979 46.4573C17.5604 46.0438 19.4549 45.2661 21.2065 44.4045C22.9556 43.5442 24.5481 42.6075 25.7042 41.8852C26.2819 41.5241 26.7497 41.2173 27.0726 41.001C27.2341 40.8929 27.3593 40.8073 27.4438 40.7491C27.4506 40.7444 27.4572 40.7399 27.4635 40.7355C27.5674 40.3701 27.4187 40.0536 27.1658 39.7736C27.0285 39.6218 26.8741 39.4989 26.7511 39.4129C26.7015 39.3783 26.6583 39.3505 26.625 39.3301L26.0599 39.2917C23.63 40.5292 18.2595 43.197 15.4599 44.3469C13.933 44.974 12.612 44.785 11.5891 44.2794C10.5814 43.7814 9.87286 42.9826 9.5207 42.3834L9.51878 42.3802L9.51685 42.3769C8.78189 41.0728 9.02093 39.9002 9.43744 39.0777C9.64297 38.6718 9.89192 38.3486 10.0879 38.1277C10.1864 38.0167 10.2728 37.93 10.3359 37.87C10.3675 37.84 10.3934 37.8166 10.4121 37.8C10.4214 37.7917 10.4289 37.7852 10.4345 37.7803C11.492 36.7918 12.4368 36.6064 13.1578 36.732C13.5076 36.7928 13.7831 36.9235 13.9721 37.0396C14.0667 37.0978 14.1409 37.1531 14.1931 37.1956C14.2193 37.2169 14.2402 37.235 14.2555 37.249C14.2632 37.256 14.2695 37.2619 14.2744 37.2666C14.2769 37.2689 14.2791 37.271 14.2808 37.2727L14.2833 37.2751L14.2843 37.2762L14.2848 37.2766C14.285 37.2768 14.2852 37.277 13.9957 37.5737L14.2852 37.277L14.2861 37.2779L14.287 37.2788C14.7198 37.7162 14.93 38.1781 14.9616 38.6386C14.9928 39.0912 14.8479 39.4911 14.6645 39.8071C14.4815 40.1227 14.2484 40.3753 14.0673 40.5458C13.9757 40.6322 13.8945 40.7001 13.8352 40.7471C13.8056 40.7707 13.7812 40.7892 13.7635 40.8023C13.7546 40.8088 13.7475 40.814 13.7421 40.8178C13.7394 40.8198 13.7372 40.8213 13.7355 40.8225L13.7333 40.8241L13.7324 40.8248L13.7321 40.825C13.7319 40.8251 13.7317 40.8252 13.4978 40.482L13.7317 40.8252L12.8228 41.4591L13.0988 40.3777C13.2294 39.8661 13.1905 39.593 13.133 39.4578C13.0841 39.3427 13.0016 39.2798 12.8753 39.2429C12.7357 39.2022 12.5653 39.2028 12.4113 39.2218C12.3377 39.2309 12.2753 39.2432 12.232 39.253C12.2127 39.2575 12.1976 39.2613 12.1874 39.264C11.8197 39.4131 11.619 39.6021 11.5061 39.7796C11.3895 39.9631 11.3453 40.1679 11.3443 40.3746C11.3433 40.5835 11.3869 40.7822 11.4338 40.9331C11.4569 41.0073 11.4798 41.0668 11.4963 41.1064C11.5045 41.1261 11.511 41.1408 11.5151 41.1495C11.5161 41.1515 11.5168 41.1533 11.5175 41.1547C11.9827 42.0197 12.5428 42.2273 12.9537 42.2593C13.1733 42.2763 13.3695 42.244 13.5118 42.2064C13.5824 42.1878 13.6377 42.1683 13.6735 42.1544C13.6914 42.1475 13.7042 42.142 13.7114 42.1389C13.7127 42.1383 13.7138 42.1377 13.7148 42.1374C13.7161 42.1367 13.717 42.1364 13.7176 42.1361C13.7177 42.136 13.7178 42.1359 13.7179 42.1359L13.7239 42.133L13.7322 42.1293C14.6555 41.7271 15.2322 41.2284 15.5905 40.7248C15.9491 40.2207 16.1046 39.6895 16.1519 39.1987C16.1996 38.7052 16.1374 38.255 16.0615 37.9255C16.0239 37.7617 15.9833 37.6303 15.953 37.5415C15.9378 37.4972 15.9252 37.4637 15.9169 37.4424C15.9128 37.4317 15.9097 37.4241 15.9079 37.4197L15.9064 37.416L15.9062 37.4157V37.4156L15.9061 37.4153L15.9041 37.4107L15.9018 37.4049C15.5388 36.4938 15.0234 35.9496 14.47 35.6273C13.9103 35.3012 13.2823 35.1854 12.6761 35.1844C12.0696 35.1834 11.5024 35.2974 11.0832 35.4142C10.8747 35.4722 10.7054 35.5302 10.5897 35.573C10.5318 35.5945 10.4874 35.6121 10.4584 35.6239C10.4438 35.6298 10.4332 35.6343 10.4265 35.6372C10.4253 35.6377 10.4242 35.6382 10.4232 35.6386C10.4222 35.639 10.4214 35.6394 10.4208 35.6397Z" fill="black"/>
<path d="M27.8461 40.9362C27.9194 39.8245 26.8386 39.0215 26.2891 38.7591C27.7392 37.6627 32.6546 35.5628 32.6546 35.5628C34.2574 35.4238 34.5475 37.3539 34.4864 38.2032C32.2424 39.5774 27.7728 42.048 27.8461 40.9362Z" fill="#3D1EFE"/>
<path fill-rule="evenodd" clip-rule="evenodd" d="M34.5663 36.335C34.8697 36.9886 34.9303 37.7595 34.8962 38.2333L34.8807 38.4481L34.6986 38.5597C33.5706 39.2505 31.8776 40.2205 30.4692 40.8801C29.7714 41.207 29.1143 41.4718 28.6227 41.5789C28.3892 41.6298 28.1243 41.6618 27.8991 41.5937C27.7751 41.5562 27.64 41.4811 27.5441 41.3414C27.4483 41.2018 27.4246 41.0454 27.4336 40.9084C27.4603 40.5041 27.2797 40.1312 26.9928 39.8071C26.7055 39.4825 26.3451 39.2473 26.1118 39.1359L25.4922 38.8399L26.0411 38.425C26.8073 37.8457 28.4413 37.0286 29.8409 36.3715C30.5494 36.0388 31.2121 35.7408 31.6974 35.526C31.9401 35.4185 32.1388 35.3318 32.2768 35.2719C32.3458 35.2419 32.3997 35.2186 32.4364 35.2029C32.4548 35.195 32.4688 35.1889 32.4783 35.1848L32.4927 35.1787L32.4929 35.1786C32.4929 35.1786 32.493 35.1786 32.6534 35.5626L32.493 35.1786L32.5531 35.1529L32.6182 35.1473C33.1074 35.1049 33.5222 35.2206 33.8576 35.4534C34.1863 35.6816 34.4124 36.0035 34.5663 36.335ZM32.7504 35.9739C33.0304 35.961 33.2345 36.0322 33.3911 36.1409C33.5657 36.2621 33.7088 36.4496 33.8201 36.6895C34.0087 37.0957 34.0779 37.5915 34.0804 37.9629C32.9715 38.6349 31.4158 39.518 30.1229 40.1235C29.4319 40.4471 28.8451 40.6774 28.4491 40.7638C28.3744 40.7801 28.3117 40.79 28.2603 40.795C28.2502 40.1631 27.9495 39.6379 27.6069 39.251C27.4334 39.0549 27.2419 38.8856 27.0549 38.7454C27.8473 38.2608 29.0581 37.6583 30.1879 37.1278C30.8894 36.7984 31.5463 36.503 32.0279 36.2898C32.2686 36.1833 32.4654 36.0974 32.6018 36.0382C32.6646 36.0109 32.7147 35.9893 32.7504 35.9739Z" fill="black"/>
<path fill-rule="evenodd" clip-rule="evenodd" d="M95.4762 31.8957C94.6556 31.0976 93.3513 31.1232 92.5618 31.9529C90.3779 34.2497 87.85 36.8902 85.0734 39.7695C80.2903 44.7296 76.3563 46.2713 73.5709 46.4575C70.7701 46.6448 68.8816 45.487 68.051 44.5673C67.2834 43.7172 65.9799 43.6577 65.1397 44.4341C64.2993 45.2106 64.2404 46.5291 65.008 47.3792C66.6665 49.2155 69.7667 50.89 73.8428 50.6175C77.9343 50.3439 82.7653 48.1336 88.0238 42.6806C90.8066 39.7949 93.3412 37.1475 95.5321 34.8432C96.3216 34.0134 96.2959 32.6939 95.4762 31.8957Z" fill="black"/>
<path d="M97.0633 35.6284C95.563 36.0298 93.9666 35.7783 92.7054 34.8593C91.805 34.2046 90.8635 33.1013 90.4504 31.2599C90.4504 31.2599 90.2682 30.4141 89.6321 29.2767C89.1246 28.3819 89.538 27.2196 90.5108 26.9084C90.5271 26.9046 90.5402 26.9014 90.5565 26.8975C91.1691 26.7137 91.8325 26.9555 92.23 27.4668C92.6458 27.9981 93.2375 28.8381 93.7587 29.8662C93.7587 29.8662 94.3568 27.4035 97.7832 25.2676C97.7832 25.2676 99.103 24.4015 100.17 25.0165C100.432 25.1678 100.648 25.4001 100.778 25.6774C100.953 26.0455 101.061 26.629 100.506 27.2435C100.506 27.2435 101.802 26.5861 102.847 27.0174C103.427 27.2546 103.82 27.8369 103.819 28.4707C103.816 29.1575 103.377 30.1194 101.321 30.817C101.321 30.817 102.074 30.761 102.68 31.2929C103.216 31.7641 103.136 32.5324 102.648 32.9876C101.762 33.8209 100.652 33.9829 99.5197 34.2477C99.5197 34.2477 98.656 35.2088 97.0614 35.6359L97.0633 35.6284Z" fill="#755FFF"/>
<path d="M97.0633 35.6284C95.563 36.0298 93.9666 35.7783 92.7054 34.8593C91.805 34.2046 90.8635 33.1013 90.4504 31.2599C90.4504 31.2599 90.2682 30.4141 89.6321 29.2767C89.1246 28.3819 89.538 27.2196 90.5108 26.9084C90.5271 26.9046 90.5402 26.9014 90.5565 26.8975C91.1691 26.7137 91.8325 26.9555 92.23 27.4668C92.6458 27.9981 93.2375 28.8381 93.7587 29.8662C93.7587 29.8662 94.3568 27.4035 97.7832 25.2676C97.7832 25.2676 99.103 24.4015 100.17 25.0165C100.432 25.1678 100.648 25.4001 100.778 25.6774C100.953 26.0455 101.061 26.629 100.506 27.2435C100.506 27.2435 101.802 26.5861 102.847 27.0174C103.427 27.2546 103.82 27.8369 103.819 28.4707C103.816 29.1575 103.377 30.1194 101.321 30.817C101.321 30.817 102.074 30.761 102.68 31.2929C103.216 31.7641 103.136 32.5324 102.648 32.9876C101.762 33.8209 100.652 33.9829 99.5197 34.2477C99.5197 34.2477 98.656 35.2088 97.0614 35.6359L97.0633 35.6284Z" fill="url(#paint4_linear_360_1751)" fill-opacity="0.8"/>
<path fill-rule="evenodd" clip-rule="evenodd" d="M98.012 25.6173V25.6174V25.6177V25.6178L98.0111 25.6179L98.0083 25.6199L98.0047 25.6224C96.3441 26.6572 95.3815 27.7635 94.8347 28.5979C94.5618 29.0157 94.3914 29.367 94.2907 29.6092C94.2412 29.7303 94.2082 29.8241 94.1881 29.8853C94.178 29.9159 94.1716 29.9383 94.1679 29.9519C94.1661 29.9588 94.1652 29.9633 94.1643 29.9656C94.1643 29.9662 94.1643 29.9666 94.1643 29.9669C94.1643 29.9672 94.1643 29.9673 94.1643 29.9673L93.9005 31.05L93.3977 30.0562C92.8912 29.0584 92.3169 28.2416 91.9121 27.7256V27.7251L91.9111 27.7245C91.6089 27.3352 91.1156 27.1662 90.6791 27.2972L90.6676 27.3006L90.6267 27.3103C89.9286 27.5434 89.6132 28.3961 89.9949 29.0691L89.9955 29.0702L89.9961 29.0713C90.3273 29.6635 90.5413 30.1815 90.6732 30.5543C90.7392 30.7408 90.7847 30.8912 90.8141 30.9969C90.8287 31.0497 90.8394 31.0914 90.8467 31.1207C90.8503 31.1355 90.853 31.147 90.855 31.1555C90.8559 31.1597 90.8568 31.1632 90.8573 31.1658L90.8577 31.1676C90.8578 31.1679 90.8579 31.1683 90.8579 31.1685C91.2467 32.9004 92.1246 33.9195 92.9516 34.5206V34.5208C94.1057 35.3617 95.5738 35.5971 96.9633 35.2253L97.2179 35.1573C97.8352 34.9586 98.3188 34.6794 98.6577 34.4399C98.85 34.3041 98.9938 34.1817 99.0891 34.0951C99.1358 34.0519 99.1706 34.0177 99.1926 33.9954C99.2036 33.9842 99.2118 33.9761 99.2164 33.9713C99.2182 33.9688 99.2201 33.9673 99.221 33.9666V33.9663L99.3061 33.8708L99.4316 33.8415C99.5727 33.8086 99.7101 33.7776 99.8447 33.7472C100.844 33.522 101.681 33.3333 102.374 32.6821V32.6816L102.374 32.6811C102.72 32.3589 102.729 31.8836 102.415 31.6077C102.182 31.4029 101.916 31.3075 101.699 31.2644C101.591 31.2431 101.501 31.2354 101.438 31.233C101.415 31.2322 101.395 31.232 101.381 31.2321L98.959 31.8066C98.7374 31.8591 98.5157 31.7201 98.4635 31.4959C98.4122 31.2717 98.5496 31.0474 98.7713 30.9948L101.213 30.4155C102.188 30.0823 102.736 29.7017 103.038 29.3611C103.335 29.027 103.411 28.7147 103.412 28.4692C103.413 28.0083 103.124 27.578 102.698 27.4037L102.697 27.4032C102.292 27.236 101.807 27.2718 101.387 27.374C101.182 27.4237 101.006 27.4858 100.882 27.5353C100.82 27.56 100.772 27.5813 100.74 27.5959C100.727 27.602 100.716 27.6068 100.708 27.6103C100.287 27.8679 99.6496 28.2689 99.0836 28.6466C98.7969 28.8381 98.5322 29.0212 98.3252 29.1753C98.2217 29.2524 98.1356 29.3197 98.0697 29.3754C98.0376 29.4032 98.012 29.4262 97.9927 29.4448C97.9836 29.4539 97.9763 29.4613 97.9717 29.4667C97.9662 29.4717 97.9643 29.4742 97.9643 29.4743C97.8233 29.6549 97.5641 29.6854 97.3855 29.5425C97.2069 29.3997 97.1767 29.1375 97.3177 28.9569C97.424 28.8217 97.631 28.6569 97.8361 28.5036C98.0596 28.3376 98.3371 28.1456 98.6293 27.9507C99.1898 27.5764 99.8172 27.1816 100.245 26.9197C100.435 26.693 100.498 26.4945 100.511 26.3359C100.523 26.1604 100.478 25.9967 100.412 25.858V25.8568L100.411 25.8557C100.318 25.6575 100.162 25.4886 99.9711 25.3787V25.3786C99.5791 25.1527 99.1156 25.1855 98.6989 25.3108C98.4965 25.3719 98.3216 25.4504 98.197 25.5141C98.1347 25.5457 98.0862 25.573 98.0541 25.5918C98.0385 25.6012 98.0266 25.6083 98.0193 25.6128C98.0156 25.615 98.0138 25.6166 98.012 25.6173ZM101.316 26.5355C101.793 26.4343 102.42 26.3886 103.008 26.6311C103.74 26.9314 104.238 27.665 104.236 28.4715V28.4725C104.235 28.9136 104.089 29.4255 103.652 29.9183C103.399 30.2025 103.056 30.4737 102.599 30.7226C102.719 30.7918 102.839 30.8759 102.955 30.9779C103.714 31.6443 103.563 32.705 102.934 33.2934C102.066 34.1092 100.994 34.3468 100.014 34.5644C99.9198 34.5853 99.8255 34.6062 99.733 34.6272C99.7073 34.6522 99.6771 34.6813 99.6414 34.7138C99.5241 34.8207 99.3538 34.9653 99.1303 35.1232C98.6843 35.4387 98.0257 35.8102 97.173 36.0387L96.5081 36.2169L96.52 36.1672C95.1067 36.3771 93.655 36.0606 92.4708 35.1976M101.316 26.5355C101.323 26.4901 101.328 26.4449 101.332 26.4C101.36 26.0386 101.264 25.7268 101.155 25.4975C100.989 25.1418 100.713 24.8465 100.379 24.6542C99.7037 24.265 98.9746 24.3579 98.4635 24.5118C98.2034 24.5903 97.9818 24.6899 97.8251 24.7695C97.7473 24.8095 97.6841 24.845 97.6392 24.8712C97.6172 24.8843 97.5998 24.8951 97.587 24.9031C97.5806 24.9071 97.5751 24.9103 97.5714 24.9128L97.5687 24.9143C95.8046 26.0148 94.7569 27.207 94.1478 28.1375C93.9628 28.42 93.819 28.6779 93.7072 28.9008C93.2942 28.1953 92.8774 27.6146 92.5587 27.2083C92.0687 26.5787 91.2417 26.2644 90.4569 26.4941L90.4068 26.5061L90.3918 26.5108C89.1545 26.9067 88.6495 28.3708 89.2792 29.4828C89.5837 30.0276 89.7788 30.5008 89.8971 30.8351C89.9561 31.0023 89.996 31.1344 90.0206 31.2229C90.0329 31.2671 90.0414 31.3005 90.0467 31.3218C90.0493 31.3324 90.0511 31.3401 90.0521 31.3447L90.0531 31.3488V31.3489V31.3492L90.0532 31.3495L90.0534 31.3504L90.0538 31.3521C90.4913 33.3024 91.497 34.4897 92.4708 35.1976" fill="black"/>
<path fill-rule="evenodd" clip-rule="evenodd" d="M82.8971 57.453C82.7932 57.2482 82.8731 56.9969 83.0756 56.8918C89.0424 53.794 94.7017 48.1958 96.7808 45.7863C96.93 45.6129 97.1911 45.5949 97.3624 45.7464C97.5336 45.8978 97.5519 46.1611 97.4017 46.3346C95.2888 48.7835 89.5492 54.468 83.452 57.6336C83.2495 57.7387 83.0011 57.6578 82.8971 57.453Z" fill="black"/>
<path fill-rule="evenodd" clip-rule="evenodd" d="M84.375 52.5895C84.2697 52.3854 84.3478 52.1335 84.5496 52.027C87.8115 50.3043 90.923 47.1982 92.0658 45.8627C92.215 45.6887 92.4752 45.6697 92.6474 45.8205C92.8195 45.9712 92.8379 46.2344 92.6895 46.4085C91.5128 47.783 88.3222 50.9751 84.9311 52.7661C84.7294 52.8727 84.4804 52.7936 84.375 52.5895Z" fill="black"/>
<path fill-rule="evenodd" clip-rule="evenodd" d="M57.595 63.5874C58.1844 62.6025 59.4516 62.2875 60.4252 62.8836L73.279 70.7545L74.4636 85.482C74.5558 86.6296 73.7111 87.6354 72.5766 87.7288C71.4423 87.8221 70.4479 86.9676 70.3556 85.8201L69.3419 73.2171L58.2907 66.4501C57.3171 65.8539 57.0056 64.5722 57.595 63.5874Z" fill="black"/>
<path d="M74.8445 82.1339L69.0374 84.4183C68.7491 84.5317 68.5622 84.8162 68.5706 85.1289L68.7855 93.2462C68.7991 93.7585 69.311 94.1031 69.7835 93.9169L82.319 88.9856C82.6581 88.8522 82.8551 88.4838 82.7314 88.1378C81.987 86.0555 80.0936 85.3379 77.1271 86.2608C76.6637 86.4049 76.1675 86.0999 76.1196 85.6117L75.8393 82.7516C75.7914 82.2635 75.2965 81.9562 74.8445 82.1339Z" fill="#755FFF"/>
<path d="M74.8445 82.1339L69.0374 84.4183C68.7491 84.5317 68.5622 84.8162 68.5706 85.1289L68.7855 93.2462C68.7991 93.7585 69.311 94.1031 69.7835 93.9169L82.319 88.9856C82.6581 88.8522 82.8551 88.4838 82.7314 88.1378C81.987 86.0555 80.0936 85.3379 77.1271 86.2608C76.6637 86.4049 76.1675 86.0999 76.1196 85.6117L75.8393 82.7516C75.7914 82.2635 75.2965 81.9562 74.8445 82.1339Z" fill="url(#paint5_linear_360_1751)" fill-opacity="0.8"/>
<path fill-rule="evenodd" clip-rule="evenodd" d="M68.1645 85.1403C68.1516 84.6515 68.4435 84.2072 68.894 84.03L74.7011 81.7456C75.4073 81.4678 76.1806 81.9479 76.2554 82.7106L76.5784 86.006C78.1438 85.4569 79.4894 85.3079 80.5816 85.5827C81.8194 85.8942 82.6744 86.7359 83.1249 87.9961C83.3356 88.5855 82.9908 89.1712 82.4744 89.3743L69.9389 94.3053C69.2005 94.5962 68.4007 94.0579 68.3794 93.2575L68.1645 85.1403ZM75.779 86.3012L75.4351 82.7929C75.4141 82.5793 75.1976 82.4449 74.9999 82.5227L69.1928 84.8071C69.0666 84.8567 68.9848 84.9812 68.9885 85.118L69.2035 93.2352C69.2094 93.4594 69.4334 93.6095 69.6401 93.528L82.1756 88.5972C82.3373 88.5336 82.3864 88.3825 82.3497 88.2797C81.9823 87.2516 81.3253 86.6291 80.3825 86.3919C79.4102 86.1472 78.0797 86.2995 76.3702 86.9719L76.3654 86.9739L73.6816 87.9514C73.4675 88.0293 73.2313 87.9169 73.1542 87.7003C73.0771 87.4837 73.1882 87.2449 73.4023 87.1669L75.779 86.3012Z" fill="black"/>
<path d="M69.1673 94.7771C69.6676 95.924 73.1328 95.4883 76.9072 93.8039C80.6816 92.1194 83.3357 89.8242 82.8355 88.6773C82.3352 87.5303 78.87 87.9661 75.0956 89.6505C71.3213 91.3349 68.6671 93.6302 69.1673 94.7771Z" fill="#551FBC"/>
<path fill-rule="evenodd" clip-rule="evenodd" d="M80.2453 88.5159C78.8945 88.6857 77.1241 89.2014 75.2631 90.0319C73.402 90.8625 71.832 91.8376 70.7974 92.7321C70.2781 93.1814 69.9122 93.5946 69.7069 93.9429C69.495 94.3024 69.501 94.5072 69.5455 94.6091C69.5901 94.711 69.7354 94.8536 70.1408 94.937C70.5334 95.0186 71.0817 95.0241 71.7597 94.9389C73.1105 94.7684 74.8809 94.2533 76.742 93.4223C78.603 92.5919 80.173 91.6168 81.2076 90.7221C81.727 90.273 82.0929 89.86 82.2981 89.5118C82.5101 89.1522 82.504 88.9476 82.4595 88.8456C82.415 88.7435 82.2696 88.601 81.8643 88.5171C81.4716 88.4357 80.9233 88.4306 80.2453 88.5159ZM82.0297 87.7002C82.5327 87.8044 83.008 88.0376 83.2137 88.509C83.4193 88.9804 83.2691 89.4928 83.0061 89.9388C82.7365 90.3962 82.2967 90.8773 81.7433 91.3559C80.6322 92.3166 78.988 93.3315 77.0747 94.1857C75.1613 95.0389 73.312 95.5837 71.8614 95.7662C71.1388 95.857 70.4911 95.8607 69.9754 95.7542C69.4724 95.6504 68.997 95.4169 68.7914 94.9454C68.5858 94.4738 68.736 93.9615 68.9989 93.5158C69.2686 93.0582 69.7084 92.5771 70.2618 92.0985C71.3729 91.1377 73.017 90.123 74.9303 89.2691C76.8437 88.4152 78.693 87.8709 80.1436 87.6884C80.8662 87.5975 81.5139 87.5933 82.0297 87.7002Z" fill="black"/>
<path d="M3.56595 32.9797C3.55089 32.819 3.5057 32.6786 3.44545 32.5481C3.25466 32.1216 2.86303 31.8055 2.38604 31.7152C2.21031 31.68 2.03458 31.68 1.86387 31.6951C1.8488 31.6951 1.83374 31.6951 1.81868 31.7001C1.70319 31.7152 1.58772 31.7403 1.46722 31.7805C1.22622 31.8657 1.03542 32.0162 0.884791 32.2019C0.884791 32.2019 0.874751 32.2069 0.874751 32.2119C0.593581 32.5531 0.513248 32.9546 0.573499 33.3258C0.573499 33.3559 0.583541 33.386 0.593583 33.4161C0.598604 33.4362 0.603621 33.4613 0.613663 33.4813C0.65383 33.652 0.719102 33.8176 0.829561 33.9631C0.97015 34.1538 1.16094 34.2992 1.37182 34.3946C1.4873 34.4548 1.61282 34.5 1.74838 34.53C2.05968 34.6003 2.36596 34.525 2.66219 34.4297C3.0739 34.2992 3.37014 33.933 3.50068 33.5266C3.56093 33.3559 3.59105 33.1652 3.57098 32.9696L3.56595 32.9797Z" fill="#00B9EF"/>
<path d="M8.61724 29.0011C6.97438 29.1079 7.23723 31.7884 8.87133 31.6818C10.5142 31.575 10.2513 28.8945 8.61724 29.0011Z" fill="#F9CBDF"/>
<defs>
<linearGradient id="paint0_linear_360_1751" x1="3.708" y1="58.9273" x2="16.7012" y2="68.8263" gradientUnits="userSpaceOnUse">
<stop stop-color="#DCD6FF"/>
<stop offset="0.547617" stop-color="#9968F6"/>
</linearGradient>
<linearGradient id="paint1_linear_360_1751" x1="33.0022" y1="85.5734" x2="33.0627" y2="101.664" gradientUnits="userSpaceOnUse">
<stop stop-color="#9F8FFF"/>
<stop offset="0.547617" stop-color="#5514D0"/>
</linearGradient>
<linearGradient id="paint2_linear_360_1751" x1="40.8526" y1="1.26148" x2="75.0897" y2="103.448" gradientUnits="userSpaceOnUse">
<stop stop-color="#DCD6FF"/>
<stop offset="0.547617" stop-color="#9968F6"/>
</linearGradient>
<linearGradient id="paint3_linear_360_1751" x1="76.9389" y1="1.43653" x2="75.689" y2="122.059" gradientUnits="userSpaceOnUse">
<stop stop-color="#9F8FFF"/>
<stop offset="0.547617" stop-color="#5514D0"/>
</linearGradient>
<linearGradient id="paint4_linear_360_1751" x1="97.1933" y1="23.1975" x2="103.832" y2="38.2183" gradientUnits="userSpaceOnUse">
<stop stop-color="#DCD6FF"/>
<stop offset="0.547617" stop-color="#9968F6"/>
</linearGradient>
<linearGradient id="paint5_linear_360_1751" x1="73.7321" y1="80.649" x2="79.5577" y2="95.6223" gradientUnits="userSpaceOnUse">
<stop stop-color="#9F8FFF"/>
<stop offset="0.547617" stop-color="#5514D0"/>
</linearGradient>
</defs>
</svg>
