<svg width="110" height="125" viewBox="0 0 110 125" fill="none" xmlns="http://www.w3.org/2000/svg">
<g clip-path="url(#clip0_353_1322)">
<path fill-rule="evenodd" clip-rule="evenodd" d="M40.8081 74.2154C41.0672 75.3373 40.3809 76.46 39.2752 76.7229C37.1453 77.2294 34.7672 78.257 32.6753 79.5533C30.5528 80.8687 28.9215 82.3386 28.1029 83.6211C27.6998 84.2526 27.5763 84.7096 27.5665 84.9932C27.559 85.2099 27.6077 85.4247 27.8609 85.7038C28.5212 86.4314 30.4457 87.424 34.9391 87.8696C36.0694 87.9818 36.8962 89.0023 36.7857 90.1492C36.6752 91.2961 35.6693 92.135 34.539 92.0228C29.916 91.5644 26.6046 90.48 24.8354 88.5305C23.8739 87.4709 23.4095 86.197 23.4563 84.8465C23.5008 83.5629 23.999 82.374 24.6508 81.3527C25.9421 79.3297 28.153 77.4661 30.5316 75.992C32.9407 74.4991 35.7222 73.2817 38.3367 72.66C39.4425 72.397 40.5489 73.0934 40.8081 74.2154Z" fill="black"/>
<path d="M33.5104 87.6358C33.5104 87.6358 34.7074 87.064 36.2451 87.1201C38.4826 87.2035 40.608 89.0146 40.8072 91.34C40.8988 92.4195 40.4886 93.3937 39.7179 94.1281C39.0947 94.7198 37.9898 95.5448 36.6723 95.5591C36.6723 95.5591 35.7181 97.8623 33.1464 96.5008C33.1464 96.5008 30.6413 95.1859 31.166 93.6226C31.2595 93.3474 31.4512 93.1033 31.6993 92.9558C32.0207 92.767 32.5567 92.6065 33.3229 92.9047C33.3229 92.9047 32.7623 91.9823 33.0368 90.1942L33.5104 87.6358Z" fill="#755FFF"/>
<path d="M33.5104 87.6358C33.5104 87.6358 34.7074 87.064 36.2451 87.1201C38.4826 87.2035 40.608 89.0146 40.8072 91.34C40.8988 92.4195 40.4886 93.3937 39.7179 94.1281C39.0947 94.7198 37.9898 95.5448 36.6723 95.5591C36.6723 95.5591 35.7181 97.8623 33.1464 96.5008C33.1464 96.5008 30.6413 95.1859 31.166 93.6226C31.2595 93.3474 31.4512 93.1033 31.6993 92.9558C32.0207 92.767 32.5567 92.6065 33.3229 92.9047C33.3229 92.9047 32.7623 91.9823 33.0368 90.1942L33.5104 87.6358Z" fill="url(#paint0_linear_353_1322)" fill-opacity="0.8"/>
<path fill-rule="evenodd" clip-rule="evenodd" d="M33.6767 89.0815C33.78 88.5518 34.0538 88.1264 34.46 87.9357C34.9299 87.7152 35.5568 87.5123 36.2338 87.5368C38.2889 87.6135 40.2218 89.2847 40.4012 91.3755C40.4012 91.3756 40.4012 91.3758 40.4012 91.3758C40.4809 92.3165 40.1275 93.1687 39.4402 93.8236C38.8456 94.388 37.8561 95.1103 36.7159 95.1408C36.1513 95.0155 35.3437 94.7475 34.7024 94.3482C34.0664 93.9521 33.7243 93.5154 33.7284 93.0554C34.0657 92.6456 35.0707 92.0411 36.8833 92.9748C37.1669 93.1208 37.4703 93.305 37.7934 93.5342C37.9796 93.6663 38.2359 93.6202 38.3662 93.4313C38.4963 93.2425 38.4509 92.9823 38.2647 92.8502C38.0339 92.6864 37.8095 92.5418 37.5917 92.415C37.6452 92.3142 37.7143 92.2039 37.8002 92.0954C37.9873 91.859 38.2385 91.6506 38.5601 91.5513C38.7774 91.4841 38.8999 91.251 38.8338 91.0306C38.7677 90.8101 38.5379 90.6857 38.3206 90.7528C37.8014 90.9132 37.4204 91.2424 37.159 91.5726C37.0352 91.7289 36.9347 91.8898 36.8559 92.0414C35.3182 91.3789 34.1694 91.6493 33.4874 92.1516C33.4852 92.1424 33.483 92.1331 33.4808 92.1237C33.3872 91.7218 33.3184 91.1014 33.4456 90.2665L33.6767 89.0815ZM32.9104 93.2078C32.9742 94.0417 33.6215 94.6544 34.2721 95.0594C34.8301 95.4069 35.4774 95.6601 36.0295 95.8234C35.9279 95.9506 35.7982 96.085 35.6385 96.2007C35.4128 96.3641 35.1264 96.4915 34.764 96.5112C34.4002 96.5308 33.9313 96.4435 33.3404 96.1306L33.3229 96.1214L33.3046 96.1139C33.016 95.9951 32.2146 95.5199 31.6073 94.6639C31.3624 94.3188 31.3812 94.0494 31.4654 93.8418C31.5605 93.6071 31.7588 93.4138 31.915 93.3132C32.1059 93.2026 32.4275 93.0875 32.9104 93.2078ZM36.9308 95.9648C38.292 95.8565 39.3952 95.0094 40.0027 94.4325L40.0032 94.4321C40.8571 93.6183 41.324 92.5221 41.2207 91.3039V91.3036C41.0013 88.7439 38.6836 86.793 36.2639 86.7028H36.2635C35.4128 86.6718 34.6533 86.9253 34.1147 87.1782C33.398 87.5147 33.0066 88.2177 32.8698 88.9195L32.6354 90.1214L32.6341 90.1298C32.4884 91.0789 32.5627 91.8109 32.6803 92.3159C32.6813 92.32 32.6822 92.3241 32.6833 92.3282C32.1789 92.2908 31.7815 92.4273 31.497 92.5944L31.491 92.5979L31.4852 92.6016C31.2249 92.7665 30.8833 93.0837 30.7046 93.5243C30.5139 93.9949 30.5266 94.5693 30.9397 95.1516C31.6378 96.1353 32.5535 96.6998 32.9765 96.8793C33.6646 97.2406 34.2738 97.3735 34.8079 97.3446C35.3477 97.3153 35.782 97.1221 36.1163 96.88C36.4474 96.6402 36.6792 96.3536 36.8275 96.1312C36.8674 96.0711 36.9018 96.0151 36.9308 95.9648Z" fill="black"/>
<path fill-rule="evenodd" clip-rule="evenodd" d="M44.756 87.3858C45.7962 87.848 46.2702 89.0785 45.8146 90.1341C44.9793 92.0693 43.7152 95.3103 42.6644 98.6825C41.5936 102.118 40.8236 105.446 40.8236 107.658C40.8236 112.562 41.7354 117.245 42.1705 118.897C42.4638 120.01 41.812 121.154 40.7148 121.452C39.6176 121.749 38.4905 121.087 38.1973 119.974C37.688 118.041 36.7109 112.992 36.7109 107.658C36.7109 104.752 37.6622 100.893 38.7431 97.4243C39.8436 93.8925 41.1615 90.5123 42.0474 88.4599C42.5031 87.4043 43.7157 86.9235 44.756 87.3858Z" fill="black"/>
<path d="M36.0096 115.448H42.227C42.5358 115.448 42.8112 115.645 42.9153 115.94L45.6177 123.591C45.7883 124.074 45.4354 124.583 44.9294 124.583H31.5083C31.1452 124.583 30.8303 124.312 30.8216 123.944C30.7694 121.728 32.2738 120.364 35.3624 120.136C35.845 120.1 36.1974 119.634 36.0673 119.161L35.3055 116.389C35.1754 115.917 35.5258 115.448 36.0096 115.448Z" fill="#755FFF"/>
<path d="M36.0096 115.448H42.227C42.5358 115.448 42.8112 115.645 42.9153 115.94L45.6177 123.591C45.7883 124.074 45.4354 124.583 44.9294 124.583H31.5083C31.1452 124.583 30.8303 124.312 30.8216 123.944C30.7694 121.728 32.2738 120.364 35.3624 120.136C35.845 120.1 36.1974 119.634 36.0673 119.161L35.3055 116.389C35.1754 115.917 35.5258 115.448 36.0096 115.448Z" fill="url(#paint1_linear_353_1322)" fill-opacity="0.8"/>
<path fill-rule="evenodd" clip-rule="evenodd" d="M43.2996 115.799C43.1369 115.339 42.7065 115.031 42.2242 115.031H36.0068C35.2508 115.031 34.7032 115.763 34.9064 116.502L35.7842 119.695C34.1321 119.757 32.8274 120.112 31.9101 120.769C30.8702 121.513 30.3761 122.612 30.4077 123.954C30.4224 124.581 30.9525 125.001 31.5054 125.001H44.9266C45.7171 125.001 46.2687 124.205 46.002 123.451L43.2996 115.799ZM36.6355 119.685L35.6987 116.278C35.6418 116.071 35.7951 115.866 36.0068 115.866H42.2242C42.3592 115.866 42.4797 115.952 42.5253 116.081L45.2276 123.732C45.3023 123.943 45.1478 124.167 44.9266 124.167H31.5054C31.3323 124.167 31.2325 124.043 31.2299 123.934C31.2042 122.839 31.5925 122.018 32.3844 121.45C33.2012 120.866 34.493 120.519 36.3233 120.519H38.6316C38.8588 120.519 39.0429 120.333 39.0429 120.102C39.0429 119.872 38.8588 119.685 38.6316 119.685H36.6355Z" fill="black"/>
<path fill-rule="evenodd" clip-rule="evenodd" d="M54.7065 111.243C54.6705 111.297 54.5919 111.297 54.5554 111.243L11.5251 47.6847C11.4058 47.5085 11.5187 47.2674 11.7286 47.25L63.3715 42.9585C63.9645 42.9092 64.5614 42.9429 65.1454 43.0587L95.4358 49.0634C95.6286 49.1016 95.7209 49.3265 95.6113 49.4916L54.7065 111.243Z" fill="#755FFF"/>
<path fill-rule="evenodd" clip-rule="evenodd" d="M53.4231 112.031L10.3928 48.4717C9.67714 47.4147 10.3548 45.9676 11.6145 45.863L63.2573 41.5715C63.9756 41.5118 64.6986 41.5527 65.4059 41.6929L95.6967 47.6977C96.8519 47.9265 97.403 49.276 96.7468 50.267L55.842 112.018C55.2661 112.887 54.0077 112.894 53.4231 112.031ZM54.7043 111.242C54.6682 111.296 54.5896 111.297 54.5531 111.243L11.5228 47.6841C11.4036 47.5079 11.5164 47.2668 11.7264 47.2494L63.3692 42.9579C63.9622 42.9086 64.5591 42.9423 65.1431 43.0581L95.4335 49.0628C95.6264 49.101 95.7187 49.3259 95.609 49.491L54.7043 111.242Z" fill="black"/>
<path d="M11.2578 47.2891L54.6239 111.415L64.2658 42.7451L11.2578 47.2891Z" fill="#755FFF"/>
<path d="M11.2578 47.2891L54.6239 111.415L64.2658 42.7451L11.2578 47.2891Z" fill="url(#paint2_linear_353_1322)" fill-opacity="0.8"/>
<path d="M95.8433 49.1433L64.267 42.8838L54.625 111.368L95.8433 49.1433Z" fill="#755FFF"/>
<path d="M95.8433 49.1433L64.267 42.8838L54.625 111.368L95.8433 49.1433Z" fill="url(#paint3_linear_353_1322)" fill-opacity="0.8"/>
<path fill-rule="evenodd" clip-rule="evenodd" d="M63.8822 42.335L96.6033 48.8213L55.0519 112.32L54.2188 111.999L63.8822 42.335ZM64.2675 42.8838L54.6712 112.063L95.8438 49.1433L64.2675 42.8838Z" fill="black"/>
<path fill-rule="evenodd" clip-rule="evenodd" d="M69.3803 75.2163C70.3266 74.579 71.6027 74.8408 72.2308 75.8008C73.517 77.767 75.0286 79.6886 76.6069 81.2047C78.2146 82.7492 79.7375 83.7238 81.0346 84.0524C82.1807 84.3428 83.1952 84.1581 84.2206 83.1535C85.3765 82.0213 86.6317 79.7466 87.6345 75.5873C87.9044 74.468 89.0174 73.7826 90.1206 74.0563C91.2237 74.3302 91.8992 75.4596 91.6294 76.5789C90.553 81.0438 89.0529 84.2203 87.0772 86.1557C84.9709 88.2191 82.4773 88.7191 80.0383 88.1011C77.7502 87.5215 75.6112 85.9948 73.7794 84.2351C71.9182 82.4472 70.2129 80.262 68.8042 78.1086C68.1762 77.1485 68.4341 75.8536 69.3803 75.2163Z" fill="black"/>
<mask id="mask0_353_1322" style="mask-type:luminance" maskUnits="userSpaceOnUse" x="80" y="59" width="21" height="21">
<path d="M100.198 66.9684L90.0312 59.5293L80.989 72.2524L91.1558 79.6915L100.198 66.9684Z" fill="white"/>
</mask>
<g mask="url(#mask0_353_1322)">
<path d="M94.9328 73.6432C94.6459 74.3151 94.0171 75.2311 92.6772 75.6962C92.6699 75.7021 92.6654 75.7028 92.6571 75.7086C89.638 76.5652 87.2537 74.7973 87.102 74.6785C87.0971 74.6749 87.0945 74.6731 87.0945 74.6731C86.4165 73.9982 86.0483 73.1926 86.0114 72.3069C86.01 72.2981 85.8325 70.2331 88.1612 69.2713C88.1146 68.565 87.927 65.9409 87.6253 64.2863C87.5714 63.971 87.6179 63.6591 87.7552 63.3749C87.9428 62.9876 88.2548 62.7146 88.6403 62.5848C89.0406 62.4502 89.4671 62.4825 89.841 62.6745C90.0194 62.7663 90.1834 62.8785 90.3261 63.0101C90.691 63.3432 90.9351 63.8248 91.0112 64.3662C91.201 65.7602 91.2919 67.1595 91.2773 68.4661C91.9333 67.5319 93.1616 65.8736 94.2629 64.9462C94.612 64.6579 95.0123 64.4806 95.4245 64.425C95.8833 64.3754 96.3028 64.5079 96.6327 64.7883C96.9755 65.0778 97.1875 65.5086 97.2177 65.9585C97.2433 66.3191 97.182 66.6357 97.0358 66.9327C96.9599 67.0829 96.8557 67.2242 96.704 67.3779C95.0315 69.0408 94.0948 70.0421 93.5729 70.643C94.0664 70.7631 94.4996 71.0646 94.7893 71.4981C95.2006 72.1027 95.2536 72.9025 94.9356 73.645L94.9328 73.6432Z" fill="#755FFF"/>
<path d="M94.9328 73.6432C94.6459 74.3151 94.0171 75.2311 92.6772 75.6962C92.6699 75.7021 92.6654 75.7028 92.6571 75.7086C89.638 76.5652 87.2537 74.7973 87.102 74.6785C87.0971 74.6749 87.0945 74.6731 87.0945 74.6731C86.4165 73.9982 86.0483 73.1926 86.0114 72.3069C86.01 72.2981 85.8325 70.2331 88.1612 69.2713C88.1146 68.565 87.927 65.9409 87.6253 64.2863C87.5714 63.971 87.6179 63.6591 87.7552 63.3749C87.9428 62.9876 88.2548 62.7146 88.6403 62.5848C89.0406 62.4502 89.4671 62.4825 89.841 62.6745C90.0194 62.7663 90.1834 62.8785 90.3261 63.0101C90.691 63.3432 90.9351 63.8248 91.0112 64.3662C91.201 65.7602 91.2919 67.1595 91.2773 68.4661C91.9333 67.5319 93.1616 65.8736 94.2629 64.9462C94.612 64.6579 95.0123 64.4806 95.4245 64.425C95.8833 64.3754 96.3028 64.5079 96.6327 64.7883C96.9755 65.0778 97.1875 65.5086 97.2177 65.9585C97.2433 66.3191 97.182 66.6357 97.0358 66.9327C96.9599 67.0829 96.8557 67.2242 96.704 67.3779C95.0315 69.0408 94.0948 70.0421 93.5729 70.643C94.0664 70.7631 94.4996 71.0646 94.7893 71.4981C95.2006 72.1027 95.2536 72.9025 94.9356 73.645L94.9328 73.6432Z" fill="url(#paint4_linear_353_1322)" fill-opacity="0.8"/>
<path fill-rule="evenodd" clip-rule="evenodd" d="M95.471 64.8398C95.1402 64.8853 94.813 65.0286 94.5206 65.2689C93.4668 66.1575 92.2677 67.7715 91.6093 68.7086C91.6054 68.7143 91.6013 68.7198 91.5971 68.7251C92.0621 69.1994 92.1864 69.724 92.106 70.1941C92.105 70.1996 92.1041 70.205 92.1032 70.2104C92.4779 70.1608 92.9221 70.1492 93.4065 70.2019C93.9594 69.5786 94.8797 68.6045 96.4124 67.0818C96.5376 66.9534 96.6135 66.8473 96.6665 66.7441C96.7771 66.5182 96.8255 66.2777 96.8045 65.9886V65.9875C96.7816 65.6482 96.6208 65.3239 96.3667 65.1092L96.3658 65.1085C96.1245 64.9034 95.8183 64.8035 95.471 64.8398ZM93.4915 71.0535C92.9934 70.9823 92.5428 70.9917 92.1864 71.041C91.8108 71.093 91.5814 71.1834 91.5022 71.2369L91.4392 71.2794L91.3655 71.2964C91.0953 71.3586 90.6792 71.5533 90.3784 71.8372C90.0813 72.1176 89.968 72.4063 90.0639 72.7092C90.1379 72.9428 90.2482 73.0493 90.3581 73.1036C90.4802 73.164 90.659 73.1875 90.9046 73.1444C91.403 73.0568 92.0246 72.7207 92.5684 72.2792C92.7457 72.1352 93.0044 72.1644 93.1469 72.3444C93.2886 72.5243 93.2593 72.7869 93.082 72.9309C92.4834 73.4167 91.7349 73.8456 91.0449 73.9668C90.6963 74.028 90.3268 74.0166 89.9977 73.8539C89.6563 73.685 89.4124 73.38 89.2808 72.9646C89.1429 72.5292 89.2099 72.1387 89.3742 71.8105C89.1369 71.9383 88.91 72.0907 88.7102 72.2692C88.5397 72.4214 88.2799 72.4046 88.1298 72.2316C87.9797 72.0586 87.9964 71.7948 88.1668 71.6426C88.678 71.1862 89.301 70.8843 89.8621 70.7019C90.3186 70.5534 90.7634 70.4748 91.1039 70.468C91.1874 70.3618 91.2673 70.2142 91.2954 70.051C91.3295 69.8523 91.2958 69.5884 90.9892 69.2891C90.7426 69.0482 90.3232 68.9963 89.7641 69.1152C89.2255 69.2296 88.685 69.4768 88.3372 69.6474L88.3254 69.6531L88.3133 69.6581C87.2614 70.0926 86.8012 70.7594 86.5925 71.2992C86.412 71.7661 86.4155 72.1507 86.4162 72.2315C86.4163 72.2478 86.4164 72.2517 86.4147 72.2415L86.4185 72.2654L86.4195 72.2895C86.4513 73.0518 86.7626 73.753 87.3605 74.3561C87.5649 74.5115 89.7425 76.0676 92.4798 75.3249L92.4834 75.3219L92.5419 75.3017C93.7465 74.8833 94.2994 74.0693 94.5526 73.4774L94.5992 73.3677C94.8167 72.7758 94.75 72.1789 94.4484 71.7358L94.4465 71.7342L94.4456 71.7326C94.2171 71.3907 93.8781 71.1523 93.4915 71.0535ZM95.0771 74.2659C94.6933 74.9233 94.0197 75.6555 92.8609 76.0727L92.8362 76.0907L92.7649 76.1109C89.5809 77.0142 87.074 75.1839 86.8539 75.0138L86.8259 74.9934L86.8037 74.9712C86.0579 74.229 85.6394 73.3258 85.5977 72.3248C85.5862 72.1567 85.5842 71.6216 85.8268 70.9943C86.0899 70.3138 86.6364 69.5382 87.728 69.0084C87.6599 68.0416 87.4828 65.8144 87.2181 64.3625L87.2176 64.3602L87.2172 64.3579C87.1482 63.954 87.2084 63.5531 87.3829 63.1915L87.3832 63.191C87.619 62.7044 88.0168 62.3545 88.5079 62.189L88.5082 62.1889C89.012 62.0196 89.5519 62.0601 90.0237 62.3025L90.0239 62.3025C90.2318 62.4095 90.4268 62.5421 90.5991 62.7008C91.042 63.1055 91.3272 63.6793 91.4155 64.3076L91.4156 64.3085L91.4157 64.3094C91.5489 65.2878 91.6344 66.2695 91.6691 67.2221C92.3353 66.3411 93.1926 65.3029 93.9969 64.6254L93.9987 64.624L94.0005 64.6226C94.4054 64.2886 94.8761 64.0779 95.3678 64.0116L95.3733 64.011L95.3787 64.0104C95.9454 63.949 96.4764 64.1139 96.894 64.4683C97.3245 64.8325 97.5868 65.3695 97.6252 65.9294C97.6563 66.3605 97.5822 66.7521 97.4013 67.1196L97.3994 67.1219L97.3985 67.1242C97.2989 67.3201 97.1673 67.4955 96.9927 67.6729L96.9909 67.6745L96.9891 67.6762C95.6813 68.9762 94.8286 69.8672 94.2738 70.4758C94.611 70.6633 94.9035 70.9308 95.1256 71.2626C95.6273 72.0005 95.6767 72.9549 95.3093 73.8117L95.1055 74.2868L95.0771 74.2659ZM88.5264 68.6454C88.8408 68.5133 89.2135 68.3794 89.5954 68.2983C89.9863 68.2152 90.442 68.1761 90.8645 68.293C90.8696 67.0572 90.78 65.7393 90.6011 64.4246C90.5371 63.9709 90.3345 63.5819 90.0481 63.3206L90.0473 63.3198L90.0465 63.3191C89.9338 63.2151 89.8011 63.1236 89.6524 63.0471M88.5264 68.6454C88.4457 67.5616 88.275 65.5727 88.0274 64.2132C87.9891 63.9872 88.022 63.7652 88.1215 63.559C88.261 63.2713 88.4872 63.0754 88.767 62.9812C89.0636 62.8816 89.3764 62.9055 89.6522 63.047" fill="black"/>
</g>
<path d="M28.8984 53.8477C29.1787 53.3023 30.0613 52.2862 31.349 52.5852" stroke="black" stroke-width="9" stroke-linecap="round"/>
<path d="M32.0531 59.9937C33.5926 59.9937 34.8406 58.7274 34.8406 57.1653C34.8406 55.6032 33.5926 54.3369 32.0531 54.3369C30.5136 54.3369 29.2656 55.6032 29.2656 57.1653C29.2656 58.7274 30.5136 59.9937 32.0531 59.9937Z" fill="white"/>
<path d="M32.5553 57.8609C33.2115 57.8609 33.7434 57.0928 33.7434 56.1453C33.7434 55.1978 33.2115 54.4297 32.5553 54.4297C31.8991 54.4297 31.3672 55.1978 31.3672 56.1453C31.3672 57.0928 31.8991 57.8609 32.5553 57.8609Z" fill="black"/>
<path d="M32.505 56.1911C32.7322 56.1911 32.9163 56.0042 32.9163 55.7737C32.9163 55.5433 32.7322 55.3564 32.505 55.3564C32.2779 55.3564 32.0938 55.5433 32.0938 55.7737C32.0938 56.0042 32.2779 56.1911 32.505 56.1911Z" fill="white"/>
<path d="M47.6849 53.1055C47.4046 52.5601 46.522 51.5441 45.2344 51.843" stroke="black" stroke-width="9" stroke-linecap="round"/>
<path d="M44.9 59.6226C43.3605 59.6226 42.1125 58.3563 42.1125 56.7942C42.1125 55.2321 43.3605 53.9658 44.9 53.9658C46.4395 53.9658 47.6875 55.2321 47.6875 56.7942C47.6875 58.3563 46.4395 59.6226 44.9 59.6226Z" fill="white"/>
<path d="M44.3978 59.5298C43.7417 59.5298 43.2097 58.7617 43.2097 57.8142C43.2097 56.8667 43.7417 56.0986 44.3978 56.0986C45.054 56.0986 45.5859 56.8667 45.5859 57.8142C45.5859 58.7617 45.054 59.5298 44.3978 59.5298Z" fill="black"/>
<path d="M44.4403 57.86C44.2132 57.86 44.029 57.6732 44.029 57.4427C44.029 57.2122 44.2132 57.0254 44.4403 57.0254C44.6674 57.0254 44.8516 57.2122 44.8516 57.4427C44.8516 57.6732 44.6674 57.86 44.4403 57.86Z" fill="white"/>
<path fill-rule="evenodd" clip-rule="evenodd" d="M29.1803 64.932C26.0003 64.5265 27.1589 61.1363 30.1165 61.9239C33.1684 62.5782 31.5697 65.0713 29.1803 64.932Z" fill="#DED1FA"/>
<path fill-rule="evenodd" clip-rule="evenodd" d="M46.7984 63.685C45.8437 63.4512 45.3477 62.2077 46.0996 61.4619C47.0553 60.6018 49.3903 60.451 49.954 61.8425C50.2968 63.3683 47.925 64.058 46.7984 63.685Z" fill="#DED1FA"/>
<path fill-rule="evenodd" clip-rule="evenodd" d="M42.4607 62.2795C42.6304 62.4327 42.6454 62.6966 42.4944 62.8687C41.971 63.465 40.4717 64.6063 38.4919 64.5872C36.5625 64.5688 35.0505 63.7665 34.5035 63.3374C34.3238 63.1964 34.2907 62.9343 34.4297 62.752C34.5686 62.5696 34.8268 62.5361 35.0066 62.6771C35.429 63.0085 36.7705 63.7361 38.4997 63.7527C40.1785 63.7688 41.4668 62.7845 41.8801 62.3136C42.0311 62.1415 42.2911 62.1263 42.4607 62.2795Z" fill="black"/>
<path d="M40.6018 63.6466C40.6018 63.6466 39.5912 62.5979 38.1919 63.6276C38.1919 63.6276 37.8565 63.3485 37.258 63.3872C36.6212 63.4276 36.1049 63.9153 35.9845 64.5538C35.8982 65.0084 35.8658 65.6354 36.0373 66.4118C36.1792 67.0552 36.619 67.6045 37.2257 67.8321C37.514 67.9412 37.8817 68.0206 38.3367 68.0331C38.7822 68.0468 39.231 67.9591 39.6209 67.7356C40.0976 67.4649 40.5636 66.9577 40.227 66.0624C40.1841 65.9507 40.144 65.8352 40.1196 65.7177C40.0338 65.292 39.9382 64.3328 40.5982 63.6438L40.6018 63.6466Z" fill="#F75EA8"/>
<path fill-rule="evenodd" clip-rule="evenodd" d="M36.3935 64.6325C36.4808 64.1694 36.8508 63.8317 37.2887 63.8039H37.2891C37.4572 63.793 37.5944 63.8148 37.6989 63.8449C37.655 64.0151 37.6148 64.2121 37.589 64.4215C37.5416 64.8048 37.5372 65.2674 37.6745 65.6906C37.7456 65.9095 37.978 66.0285 38.1938 65.9565C38.4096 65.8844 38.5269 65.6485 38.4558 65.4296C38.3719 65.1713 38.3653 64.8477 38.4051 64.5253C38.4358 64.2769 38.4912 64.0518 38.5409 63.8939C39.0833 63.5338 39.5146 63.5592 39.8056 63.6501C39.8681 63.6695 39.9259 63.6927 39.9785 63.7175C39.9549 63.7647 39.9346 63.8118 39.9174 63.8572C39.8286 64.091 39.7852 64.3647 39.7649 64.6276C39.7241 65.157 39.7707 65.7431 39.8249 66.1226L39.8315 66.1683L39.8477 66.2114C39.981 66.566 39.9414 66.7936 39.8659 66.9471C39.7826 67.1168 39.624 67.2587 39.4252 67.3717L39.4244 67.3721L39.4237 67.3725C39.1115 67.5514 38.7403 67.6282 38.3542 67.6162H38.3536H38.3528C37.939 67.6048 37.6167 67.5329 37.3745 67.4413L37.3733 67.4409C36.9093 67.2668 36.558 66.8391 36.4436 66.3209V66.3208C36.2853 65.6041 36.3171 65.0352 36.3934 64.6329L36.3935 64.6325ZM40.6068 63.6468C40.9009 63.3552 40.9007 63.355 40.9005 63.3548L40.9001 63.3544L40.8993 63.3536L40.8974 63.3516C40.896 63.3502 40.8943 63.3485 40.8924 63.3466C40.8885 63.3427 40.8836 63.3378 40.8777 63.3322C40.8658 63.3208 40.8498 63.3058 40.8298 63.2883C40.7898 63.2532 40.7334 63.207 40.6617 63.1564C40.5192 63.0559 40.3111 62.9346 40.0475 62.8524C39.5526 62.6979 38.9006 62.6942 38.1808 63.1377C38.158 63.1271 38.1338 63.1166 38.1083 63.1061C37.9006 63.0211 37.6057 62.9471 37.237 62.971C36.4017 63.0241 35.7393 63.6619 35.5856 64.4753C35.5856 64.4754 35.5855 64.4755 35.5855 64.4755L35.9895 64.554L35.5856 64.4751C35.5856 64.4752 35.5856 64.4753 35.5856 64.4753C35.4895 64.9823 35.4562 65.6673 35.641 66.5034C35.641 66.5033 35.6409 66.5033 35.6409 66.5033L36.0423 66.4121L35.641 66.5034C35.8106 67.2717 36.3385 67.9423 37.0875 68.2234C37.0873 68.2234 37.0871 68.2233 37.087 68.2233L37.2307 67.8323L37.0881 68.2237C37.0879 68.2236 37.0877 68.2235 37.0875 68.2234C37.4219 68.35 37.8344 68.4367 38.3299 68.4505C38.3296 68.4505 38.3294 68.4505 38.3292 68.4505L38.3417 68.0333L38.3305 68.4505C38.3304 68.4505 38.3301 68.4505 38.3299 68.4505C38.8345 68.4659 39.3601 68.3673 39.8276 68.0996C39.8273 68.0997 39.8271 68.0998 39.8268 68.1L39.6259 67.7359L39.8283 68.0992C39.828 68.0993 39.8277 68.0995 39.8276 68.0996C40.1051 67.9418 40.4175 67.695 40.6019 67.3198C40.7889 66.9394 40.8179 66.4814 40.633 65.9599C40.635 65.9745 40.6369 65.9888 40.6389 66.0027L40.232 66.0626L40.6162 65.9139C40.6219 65.9293 40.6276 65.9447 40.633 65.9599C40.587 65.6191 40.5518 65.1227 40.5849 64.6927C40.6023 64.4666 40.6369 64.2836 40.6849 64.1572C40.7244 64.0532 40.7555 64.0311 40.7554 64.031C40.7554 64.031 40.7526 64.0329 40.7466 64.0352L40.616 63.6789L40.3543 63.9763L40.3508 63.9734M40.616 63.6789L40.9009 63.3552L40.6068 63.6468" fill="black"/>
<path fill-rule="evenodd" clip-rule="evenodd" d="M63.1928 87.3858C62.1526 87.848 61.6786 89.0785 62.1342 90.1341C62.9695 92.0693 64.2336 95.3103 65.2844 98.6825C66.3552 102.118 67.1252 105.446 67.1252 107.658C67.1252 112.562 66.2134 117.245 65.7783 118.897C65.485 120.01 66.1368 121.154 67.234 121.452C68.3312 121.749 69.4583 121.087 69.7515 119.974C70.2608 118.041 71.2379 112.992 71.2379 107.658C71.2379 104.752 70.2865 100.893 69.2057 97.4243C68.1052 93.8925 66.7873 90.5123 65.9014 88.4599C65.4457 87.4043 64.2331 86.9235 63.1928 87.3858Z" fill="black"/>
<path d="M71.9406 115.448H65.7232C65.4145 115.448 65.139 115.645 65.0349 115.94L62.3325 123.591C62.1619 124.074 62.5149 124.583 63.0208 124.583H76.442C76.805 124.583 77.1199 124.312 77.1285 123.944C77.1808 121.728 75.6765 120.364 72.5878 120.136C72.1052 120.1 71.7529 119.634 71.8829 119.161L72.6448 116.389C72.7748 115.917 72.4244 115.448 71.9406 115.448Z" fill="#755FFF"/>
<path d="M71.9406 115.448H65.7232C65.4145 115.448 65.139 115.645 65.0349 115.94L62.3325 123.591C62.1619 124.074 62.5149 124.583 63.0208 124.583H76.442C76.805 124.583 77.1199 124.312 77.1285 123.944C77.1808 121.728 75.6765 120.364 72.5878 120.136C72.1052 120.1 71.7529 119.634 71.8829 119.161L72.6448 116.389C72.7748 115.917 72.4244 115.448 71.9406 115.448Z" fill="url(#paint5_linear_353_1322)" fill-opacity="0.8"/>
<path fill-rule="evenodd" clip-rule="evenodd" d="M64.6453 115.799C64.808 115.339 65.2384 115.031 65.7208 115.031H71.9382C72.6942 115.031 73.2417 115.763 73.0385 116.502L72.1607 119.695C73.8128 119.757 75.1175 120.112 76.0348 120.769C77.0747 121.513 77.5689 122.612 77.5373 123.954C77.5225 124.581 76.9925 125.001 76.4395 125.001H63.0184C62.2278 125.001 61.6763 124.205 61.9429 123.451L64.6453 115.799ZM71.3095 119.685L72.2462 116.278C72.3032 116.071 72.1498 115.866 71.9382 115.866H65.7208C65.5857 115.866 65.4652 115.952 65.4196 116.081L62.7173 123.732C62.6426 123.943 62.7971 124.167 63.0184 124.167H76.4395C76.6126 124.167 76.7124 124.043 76.715 123.934C76.7408 122.839 76.3524 122.018 75.5605 121.45C74.7437 120.866 73.4519 120.519 71.6217 120.519H69.3132C69.0861 120.519 68.902 120.333 68.902 120.102C68.902 119.872 69.0861 119.685 69.3132 119.685H71.3095Z" fill="black"/>
</g>
<defs>
<linearGradient id="paint0_linear_353_1322" x1="31.8358" y1="86.954" x2="35.2458" y2="100.659" gradientUnits="userSpaceOnUse">
<stop stop-color="#DCD6FF"/>
<stop offset="0.547617" stop-color="#9968F6"/>
</linearGradient>
<linearGradient id="paint1_linear_353_1322" x1="36.5133" y1="113.655" x2="36.5741" y2="129.761" gradientUnits="userSpaceOnUse">
<stop stop-color="#9F8FFF"/>
<stop offset="0.547617" stop-color="#5514D0"/>
</linearGradient>
<linearGradient id="paint2_linear_353_1322" x1="44.3438" y1="29.2622" x2="78.6987" y2="131.481" gradientUnits="userSpaceOnUse">
<stop stop-color="#DCD6FF"/>
<stop offset="0.547617" stop-color="#9968F6"/>
</linearGradient>
<linearGradient id="paint3_linear_353_1322" x1="80.3522" y1="29.4373" x2="79.0971" y2="150.175" gradientUnits="userSpaceOnUse">
<stop stop-color="#9F8FFF"/>
<stop offset="0.547617" stop-color="#5514D0"/>
</linearGradient>
<linearGradient id="paint4_linear_353_1322" x1="97.2917" y1="62.7448" x2="90.0602" y2="82.3718" gradientUnits="userSpaceOnUse">
<stop stop-color="#DCD6FF"/>
<stop offset="0.547617" stop-color="#9968F6"/>
</linearGradient>
<linearGradient id="paint5_linear_353_1322" x1="71.4369" y1="113.655" x2="71.3761" y2="129.761" gradientUnits="userSpaceOnUse">
<stop stop-color="#9F8FFF"/>
<stop offset="0.547617" stop-color="#5514D0"/>
</linearGradient>
<clipPath id="clip0_353_1322">
<rect width="109.763" height="97" fill="white" transform="translate(0.234375 28)"/>
</clipPath>
</defs>
</svg>
