<svg width="110" height="97" viewBox="0 0 110 97" fill="none" xmlns="http://www.w3.org/2000/svg">
<path fill-rule="evenodd" clip-rule="evenodd" d="M62.7098 50.4408C63.001 49.3268 64.129 48.6628 65.2293 48.9577C65.7119 49.0871 66.3266 49.2042 67.0508 49.3421C70.499 49.9988 76.432 51.1289 82.4339 56.3123C83.2999 57.0602 83.4031 58.3772 82.6644 59.2539C81.9259 60.1306 80.6252 60.2351 79.7592 59.4873C74.6841 55.1043 70.0246 54.1902 66.5337 53.5055C65.6723 53.3365 64.8823 53.1815 64.1746 52.9918C63.0743 52.6969 62.4185 51.5547 62.7098 50.4408Z" fill="black"/>
<path d="M82.0647 63.1998C80.6605 61.9945 81.4279 60.8531 81.4494 60.8186C80.8334 61.365 80.256 61.4544 79.8062 61.3876C79.2832 61.3087 78.838 60.9801 78.534 60.5384C78.534 60.5384 78.5265 60.5233 78.5142 60.5052C78.3788 60.2846 77.6949 59.0089 78.374 57.2847C78.8521 56.0724 79.7972 55.089 80.9804 54.5775C82.3528 53.9837 84.5156 53.7426 86.9788 56.0156C87.2754 56.2908 87.5133 56.6386 87.5922 57.0365C87.7157 57.6658 87.5197 58.3217 86.9953 58.7373C87.7456 59.5978 87.3647 61.0269 86.2416 61.3876C85.926 61.4891 85.6342 61.4819 85.4205 61.4522C85.4292 61.7845 85.3732 62.5127 84.8118 63.1284C84.7987 63.144 84.7871 63.1573 84.7715 63.1715C84.7111 63.2361 84.6443 63.3002 84.5688 63.3621C84.0991 63.7438 83.5938 63.7932 83.2013 63.7424C82.7762 63.6845 82.3876 63.4814 82.0623 63.1982L82.0647 63.1998Z" fill="#755FFF"/>
<path d="M82.0647 63.1998C80.6605 61.9945 81.4279 60.8531 81.4494 60.8186C80.8334 61.365 80.256 61.4544 79.8062 61.3876C79.2832 61.3087 78.838 60.9801 78.534 60.5384C78.534 60.5384 78.5265 60.5233 78.5142 60.5052C78.3788 60.2846 77.6949 59.0089 78.374 57.2847C78.8521 56.0724 79.7972 55.089 80.9804 54.5775C82.3528 53.9837 84.5156 53.7426 86.9788 56.0156C87.2754 56.2908 87.5133 56.6386 87.5922 57.0365C87.7157 57.6658 87.5197 58.3217 86.9953 58.7373C87.7456 59.5978 87.3647 61.0269 86.2416 61.3876C85.926 61.4891 85.6342 61.4819 85.4205 61.4522C85.4292 61.7845 85.3732 62.5127 84.8118 63.1284C84.7987 63.144 84.7871 63.1573 84.7715 63.1715C84.7111 63.2361 84.6443 63.3002 84.5688 63.3621C84.0991 63.7438 83.5938 63.7932 83.2013 63.7424C82.7762 63.6845 82.3876 63.4814 82.0623 63.1982L82.0647 63.1998Z" fill="url(#paint0_linear_353_1425)" fill-opacity="0.8"/>
<path fill-rule="evenodd" clip-rule="evenodd" d="M80.0449 55.9599C80.6688 55.3858 81.4272 54.8678 82.2453 54.634C83.0094 54.4156 83.8964 54.6145 84.7388 55.0066C85.5731 55.3949 86.2996 55.9432 86.7054 56.3227L86.7061 56.3232L86.7066 56.3238C86.9609 56.5597 87.1377 56.8336 87.1944 57.1189C87.2685 57.4973 87.1941 57.8747 86.9792 58.1687C86.351 57.6464 85.2279 56.8339 84.1031 56.4061C83.89 56.3251 83.6524 56.4343 83.5724 56.65C83.4923 56.8658 83.6002 57.1064 83.8133 57.1874C84.9962 57.6373 86.2247 58.5927 86.7067 59.0306C87.238 59.6638 86.9591 60.7219 86.1233 60.9904H86.1231C85.9761 61.0377 85.8342 61.0544 85.7063 61.0548C85.3865 60.4017 84.586 59.4024 83.1475 58.9329C82.9309 58.8621 82.6986 58.9827 82.6288 59.202C82.5589 59.4214 82.6779 59.6565 82.8946 59.7272C84.2053 60.155 84.8421 61.103 85.0153 61.5307C85.0126 61.8326 84.9391 62.3811 84.5153 62.8459L84.5093 62.8524L84.5036 62.8592C84.5014 62.8618 84.4999 62.8636 84.4989 62.8648L84.4898 62.8731L84.4784 62.8853C84.4291 62.9381 84.3758 62.9891 84.3164 63.0378C83.9573 63.3292 83.5748 63.3695 83.2612 63.3291C82.9309 63.2839 82.6146 63.1237 82.3373 62.8823L82.3372 62.8825L82.3375 62.882C81.7245 62.3558 81.6275 61.89 81.6405 61.589C81.6426 61.5399 81.6477 61.4934 81.6548 61.4498C81.802 61.5704 81.962 61.7274 82.0918 61.9141C82.2229 62.1025 82.48 62.1477 82.6661 62.0151C82.8522 61.8824 82.8968 61.622 82.7658 61.4335C82.4235 60.9414 81.9494 60.6114 81.6924 60.473C81.549 60.3434 81.3323 60.1737 81.0845 60.0275C80.8178 59.8701 80.4658 59.7102 80.1074 59.6999C79.8799 59.6934 79.6902 59.8749 79.6838 60.1053C79.6774 60.3357 79.8567 60.5277 80.0843 60.5342C80.2363 60.5386 80.444 60.6156 80.6694 60.7486C80.7008 60.7672 80.7317 60.7863 80.7617 60.8056C80.415 60.9924 80.1116 61.0108 79.8728 60.9754C79.4907 60.9176 79.1424 60.676 78.8897 60.3166C78.8838 60.3064 78.8762 60.2937 78.8672 60.2799C78.7583 60.0997 78.1679 58.9919 78.7491 57.4755C78.9856 57.1033 79.4402 56.5162 80.0449 55.9599ZM80.8158 61.692C80.4344 61.8298 80.0728 61.8486 79.7527 61.8011L79.7517 61.801C79.0937 61.7016 78.5566 61.2925 78.2021 60.7776L78.185 60.7528L78.1768 60.7361L78.1752 60.7339L78.1705 60.7261C77.9997 60.448 77.2503 59.0279 77.9974 57.1307L78.0113 57.0952L78.0314 57.0629C78.3008 56.6299 78.8122 55.9664 79.4905 55.3422C80.1673 54.7195 81.0358 54.1125 82.0214 53.8307C83.061 53.5336 84.167 53.8219 85.0831 54.2482C86.0069 54.6782 86.8041 55.2791 87.2641 55.709C87.6027 56.0233 87.9014 56.4448 88.0026 56.9548L88.0028 56.9558C88.1287 57.5976 87.9825 58.2784 87.5434 58.7901C88.16 59.8791 87.6417 61.3782 86.3727 61.7858M80.8158 61.692C80.8303 62.2425 81.0747 62.8906 81.8001 63.5149L81.7998 63.5152C82.1728 63.8399 82.6333 64.0858 83.1527 64.1565L83.154 64.1567L83.1554 64.1569C83.6262 64.2178 84.2534 64.1591 84.833 63.6882L84.8337 63.6876L84.8344 63.6871C84.9218 63.6155 84.9987 63.542 85.0677 63.469C85.0931 63.4447 85.1125 63.4225 85.1268 63.4055C85.5924 62.8917 85.7604 62.3156 85.8154 61.8866C85.9865 61.8782 86.1752 61.8494 86.3725 61.7859" fill="black"/>
<path fill-rule="evenodd" clip-rule="evenodd" d="M64.3009 71.7144C64.6326 72.8167 65.784 73.4382 66.8728 73.1024C68.8689 72.4867 72.1959 71.5917 75.6269 70.9268C79.1225 70.2494 82.4767 69.8624 84.6469 70.121C89.4571 70.6941 93.9428 72.16 95.5126 72.7917C96.5705 73.2173 97.7685 72.6941 98.1889 71.6233C98.6093 70.5524 98.0927 69.3392 97.0348 68.9137C95.1985 68.1746 90.3606 66.5998 85.1286 65.9765C82.2774 65.6368 78.3805 66.1443 74.852 66.8282C71.2588 67.5246 67.7887 68.4575 65.6718 69.1104C64.583 69.4462 63.9693 70.612 64.3009 71.7144Z" fill="black"/>
<path d="M92.8503 66.1762L92.1221 72.4416C92.0864 72.7528 92.2467 73.0533 92.5242 73.1927L99.7122 76.8101C100.167 77.0386 100.707 76.7423 100.766 76.2324L102.338 62.7077C102.38 62.3419 102.151 61.9928 101.791 61.9411C99.6234 61.6295 98.1094 62.986 97.5241 66.0719C97.4325 66.554 96.9334 66.8545 96.4855 66.6683L93.8559 65.5766C93.4071 65.3903 92.9071 65.6886 92.8503 66.1762Z" fill="#755FFF"/>
<path d="M92.8503 66.1762L92.1221 72.4416C92.0864 72.7528 92.2467 73.0533 92.5242 73.1927L99.7122 76.8101C100.167 77.0386 100.707 76.7423 100.766 76.2324L102.338 62.7077C102.38 62.3419 102.151 61.9928 101.791 61.9411C99.6234 61.6295 98.1094 62.986 97.5241 66.0719C97.4325 66.554 96.9334 66.8545 96.4855 66.6683L93.8559 65.5766C93.4071 65.3903 92.9071 65.6886 92.8503 66.1762Z" fill="url(#paint1_linear_353_1425)" fill-opacity="0.8"/>
<path fill-rule="evenodd" clip-rule="evenodd" d="M92.3382 73.5657C91.9059 73.3478 91.655 72.8781 91.7109 72.3921L92.439 66.1267C92.5278 65.3648 93.31 64.8986 94.0107 65.1897L97.0396 66.4475C97.2942 64.7899 97.7952 63.5165 98.5472 62.6689C99.3999 61.7081 100.536 61.3386 101.847 61.5271C102.461 61.6153 102.81 62.1985 102.746 62.7557L101.173 76.2805C101.081 77.0771 100.236 77.54 99.5272 77.183L92.3382 73.5657ZM96.9306 67.3042L93.6974 65.9619C93.5014 65.8804 93.2825 66.011 93.2578 66.2243L92.5297 72.4897C92.5141 72.6257 92.5846 72.7572 92.7055 72.8182L99.8935 76.4356C100.092 76.5356 100.329 76.4059 100.355 76.1829L101.927 62.6582C101.947 62.4837 101.838 62.3688 101.731 62.3535C100.661 62.1996 99.8093 62.4949 99.1608 63.2266C98.4904 63.9814 97.9994 65.2427 97.7851 67.0871L97.5149 69.4132C97.4884 69.6422 97.2841 69.8059 97.0579 69.779C96.8317 69.752 96.6696 69.5446 96.6961 69.3158L96.9306 67.3042Z" fill="black"/>
<path d="M99.7137 76.8768C100.659 77.0486 102.019 73.9152 102.749 69.8781C103.48 65.8411 103.306 62.4292 102.361 62.2574C101.415 62.0856 100.056 65.219 99.3249 69.256C98.5939 73.293 98.768 76.705 99.7137 76.8768Z" fill="#551FBC"/>
<path fill-rule="evenodd" clip-rule="evenodd" d="M101.141 64.3446C100.608 65.5736 100.093 67.3332 99.7311 69.3296C99.3693 71.3259 99.2347 73.1546 99.3034 74.4928C99.3373 75.1653 99.4215 75.6902 99.5415 76.0448C99.602 76.2222 99.6642 76.3363 99.7174 76.4029C99.743 76.4349 99.7622 76.4511 99.7741 76.4588C99.7796 76.4626 99.7833 76.4644 99.7851 76.4651C99.787 76.466 99.7879 76.4661 99.7888 76.4662C99.7888 76.4662 99.7888 76.4663 99.7897 76.4663C99.7897 76.4663 99.7906 76.4664 99.7916 76.4663C99.7943 76.4663 99.798 76.466 99.8044 76.4644C99.8181 76.4612 99.8419 76.453 99.8776 76.432C99.95 76.3882 100.049 76.3033 100.167 76.1584C100.403 75.8687 100.667 75.4068 100.935 74.7893C101.468 73.5603 101.982 71.8007 102.344 69.8043C102.706 67.808 102.841 65.9793 102.773 64.6411C102.738 63.9686 102.654 63.4437 102.534 63.0891C102.473 62.9117 102.411 62.7976 102.358 62.731C102.332 62.699 102.313 62.6828 102.301 62.6751C102.296 62.6713 102.292 62.6695 102.29 62.6687C102.288 62.6679 102.287 62.6678 102.286 62.6677C102.286 62.6677 102.286 62.6675 102.284 62.6676C102.282 62.6676 102.277 62.6679 102.271 62.6695C102.257 62.6727 102.233 62.6809 102.199 62.7019C102.125 62.7457 102.026 62.8306 101.908 62.9755C101.672 63.2652 101.408 63.7271 101.141 64.3446ZM101.273 62.4457C101.555 62.1007 101.957 61.7597 102.436 61.8468C102.915 61.9338 103.171 62.3942 103.314 62.8164C103.47 63.2761 103.56 63.8886 103.596 64.5952C103.669 66.0152 103.525 67.911 103.156 69.9518C102.787 71.9924 102.256 73.8179 101.69 75.1221C101.409 75.7709 101.11 76.3126 100.802 76.6882C100.521 77.0332 100.119 77.3742 99.6395 77.2871C99.1605 77.2 98.904 76.7397 98.7612 76.3175C98.6055 75.8578 98.5148 75.2453 98.4791 74.5387C98.4067 73.1187 98.5505 71.2229 98.9196 69.1821C99.2896 67.1414 99.8199 65.316 100.385 64.0118C100.666 63.363 100.967 62.8212 101.273 62.4457Z" fill="black"/>
<path fill-rule="evenodd" clip-rule="evenodd" d="M81.3942 82.9239C81.4589 82.9246 81.5039 82.8591 81.4807 82.798L54.1786 10.8124C54.103 10.6128 53.8425 10.5706 53.7091 10.7363L20.8982 51.4871C20.5215 51.955 20.2101 52.4732 19.9728 53.027L7.66362 81.7567C7.58539 81.9393 7.71628 82.1435 7.91281 82.1457L81.3942 82.9239Z" fill="#755FFF"/>
<path fill-rule="evenodd" clip-rule="evenodd" d="M82.7636 82.299L55.4615 10.3135C55.0074 9.1162 53.4449 8.86312 52.6446 9.85711L19.8337 50.6079C19.3773 51.1747 19.0001 51.8023 18.7127 52.4732L6.40355 81.2028C5.93424 82.2982 6.71952 83.5238 7.89875 83.5363L81.3802 84.3145C82.4148 84.3256 83.1345 83.2769 82.7636 82.299ZM81.3946 82.9236C81.4592 82.9244 81.5042 82.8588 81.481 82.7977L54.1789 10.8121C54.1033 10.6125 53.8428 10.5703 53.7095 10.736L20.8985 51.4868C20.5218 51.9547 20.2103 52.4729 19.9731 53.0267L7.66392 81.7565C7.5857 81.939 7.71659 82.1432 7.91312 82.1453L81.3946 82.9236Z" fill="black"/>
<path d="M54.0103 10.3643L81.5833 82.9518L20.2188 52.1135L54.0103 10.3643Z" fill="#755FFF"/>
<path d="M54.0103 10.3643L81.5833 82.9518L20.2188 52.1135L54.0103 10.3643Z" fill="url(#paint2_linear_353_1425)" fill-opacity="0.8"/>
<path d="M7.5 82.1403L20.3315 52.1914L81.545 82.9246L7.5 82.1403Z" fill="#755FFF"/>
<path d="M7.5 82.1403L20.3315 52.1914L81.545 82.9246L7.5 82.1403Z" fill="url(#paint3_linear_353_1425)" fill-opacity="0.8"/>
<path fill-rule="evenodd" clip-rule="evenodd" d="M20.1013 51.5586L6.80469 82.593L82.0755 83.8206L82.2872 82.9421L20.1013 51.5586ZM20.3292 52.1917L82.0829 83.3571L7.49771 82.1406L20.3292 52.1917Z" fill="black"/>
<path fill-rule="evenodd" clip-rule="evenodd" d="M57.7492 79.466C57.943 80.6015 59.0093 81.363 60.1308 81.1667C62.187 80.8069 65.5981 80.3373 69.084 80.1091C72.6357 79.8766 76.0115 79.9146 78.133 80.4441C82.8357 81.6177 87.1071 83.6366 88.5873 84.4608C89.5845 85.0161 90.8376 84.6478 91.3861 83.6381C91.9345 82.6283 91.5707 81.3596 90.5734 80.8043C88.8415 79.8399 84.2345 77.6689 79.1195 76.3922C76.3322 75.6966 72.4032 75.7101 68.8181 75.9448C65.1673 76.1838 61.6095 76.673 59.4289 77.0546C58.3074 77.2509 57.5554 78.3305 57.7492 79.466Z" fill="black"/>
<path d="M86.7626 77.5614L85.2714 83.6867C85.1973 83.9908 85.3199 84.3092 85.5776 84.4824L92.2664 88.976C92.6886 89.2598 93.262 89.0338 93.3829 88.5354L96.6023 75.3131C96.6893 74.9555 96.5043 74.5803 96.1535 74.4835C94.0414 73.9018 92.3726 75.0573 91.413 78.0457C91.2632 78.5127 90.7312 78.748 90.3088 78.5067L87.8342 77.0929C87.4118 76.8516 86.8787 77.0847 86.7626 77.5614Z" fill="#755FFF"/>
<path d="M86.7626 77.5614L85.2714 83.6867C85.1973 83.9908 85.3199 84.3092 85.5776 84.4824L92.2664 88.976C92.6886 89.2598 93.262 89.0338 93.3829 88.5354L96.6023 75.3131C96.6893 74.9555 96.5043 74.5803 96.1535 74.4835C94.0414 73.9018 92.3726 75.0573 91.413 78.0457C91.2632 78.5127 90.7312 78.748 90.3088 78.5067L87.8342 77.0929C87.4118 76.8516 86.8787 77.0847 86.7626 77.5614Z" fill="url(#paint4_linear_353_1425)" fill-opacity="0.8"/>
<path fill-rule="evenodd" clip-rule="evenodd" d="M85.3479 84.8302C84.9451 84.5596 84.7536 84.0621 84.8693 83.587L86.3606 77.4617C86.5419 76.7168 87.375 76.3526 88.0348 76.7295L90.886 78.3586C91.342 76.7459 91.9952 75.5454 92.8451 74.7989C93.8087 73.9528 94.9819 73.7289 96.2596 74.081C96.8577 74.2456 97.1334 74.8684 97.0006 75.4131L93.7812 88.6354C93.5916 89.4142 92.6968 89.7673 92.0364 89.3238L85.3479 84.8302ZM90.6723 79.1949L87.6297 77.4564C87.445 77.3509 87.2117 77.4529 87.161 77.6614L85.6696 83.7867C85.6373 83.9197 85.6908 84.0591 85.8037 84.1348L92.4925 88.6284C92.6775 88.7525 92.9276 88.6537 92.9807 88.4356L96.2001 75.2133C96.2413 75.0428 96.1479 74.9151 96.0435 74.8863C95.0003 74.5992 94.1192 74.785 93.3855 75.4294C92.6281 76.0941 91.9869 77.2839 91.5477 79.087L90.9939 81.3611C90.9394 81.5849 90.7161 81.7216 90.4951 81.6665C90.2741 81.6113 90.1391 81.3852 90.1936 81.1614L90.6723 79.1949Z" fill="black"/>
<path d="M92.661 89.1093C93.5817 89.3873 95.2791 86.4278 96.4522 82.4992C97.6253 78.5705 97.83 75.1603 96.9093 74.8823C95.9886 74.6043 94.2912 77.5637 93.1181 81.4924C91.9449 85.4211 91.7403 88.8313 92.661 89.1093Z" fill="#551FBC"/>
<path fill-rule="evenodd" clip-rule="evenodd" d="M95.4647 76.8187C94.7988 77.9795 94.0926 79.6696 93.5129 81.6124C92.9322 83.5552 92.5961 85.357 92.5155 86.6945C92.4752 87.3667 92.5017 87.8979 92.5814 88.2639C92.6217 88.4469 92.6702 88.5674 92.716 88.6396C92.738 88.6743 92.7554 88.6927 92.7664 88.7017C92.771 88.706 92.7747 88.7082 92.7765 88.7092C92.7783 88.7102 92.7792 88.7105 92.7802 88.7106C92.7802 88.7106 92.7802 88.7108 92.7811 88.7109C92.7811 88.7109 92.782 88.711 92.7829 88.7111C92.7847 88.7113 92.7893 88.7114 92.7957 88.7107C92.8095 88.7091 92.8342 88.7035 92.8717 88.6867C92.9496 88.6515 93.0568 88.5782 93.1905 88.4477C93.457 88.1866 93.7702 87.7576 94.1045 87.1743C94.7704 86.0136 95.4766 84.3234 96.0563 82.3806C96.637 80.4378 96.9732 78.636 97.0538 77.2985C97.0941 76.6264 97.0675 76.0951 96.9878 75.7292C96.9475 75.5461 96.899 75.4257 96.8532 75.3533C96.8312 75.3186 96.8138 75.3003 96.8028 75.2914C96.7982 75.287 96.7946 75.2848 96.7927 75.2838C96.7909 75.2828 96.79 75.2826 96.7891 75.2825C96.7891 75.2823 96.7881 75.282 96.7863 75.2819C96.7845 75.2817 96.7799 75.2816 96.7735 75.2824C96.7598 75.284 96.735 75.2895 96.6975 75.3063C96.6196 75.3415 96.5125 75.4148 96.3787 75.5454C96.1122 75.8064 95.799 76.2354 95.4647 76.8187ZM95.8063 74.9468C96.125 74.6359 96.5619 74.3427 97.0281 74.4836C97.4943 74.6243 97.6986 75.111 97.7938 75.5467C97.8973 76.0211 97.9193 76.6401 97.8772 77.3464C97.792 78.7656 97.4394 80.6332 96.8468 82.6191C96.2533 84.605 95.5242 86.3589 94.818 87.5906C94.4663 88.2035 94.1091 88.7078 93.7629 89.0463C93.4442 89.3571 93.0073 89.6503 92.5411 89.5095C92.0749 89.3686 91.8707 88.882 91.7754 88.4463C91.6719 87.9719 91.6499 87.3529 91.6921 86.6467C91.7772 85.2275 92.1299 83.3598 92.7225 81.3739C93.316 79.388 94.0441 77.634 94.7512 76.4024C95.1029 75.7895 95.4601 75.2852 95.8063 74.9468Z" fill="black"/>
<path fill-rule="evenodd" clip-rule="evenodd" d="M39.3646 38.4219C39.1438 38.3656 38.9198 38.5011 38.8642 38.7246C38.7358 39.2407 38.4193 39.5643 38.0572 39.7675C37.6852 39.9763 37.2787 40.0483 37.0334 40.0505C36.8058 40.0526 36.6229 40.2411 36.625 40.4715C36.627 40.702 36.8132 40.8872 37.0408 40.885C37.4031 40.8818 37.9482 40.7829 38.4568 40.4975C38.9754 40.2064 39.4685 39.7122 39.6635 38.9285C39.7191 38.705 39.5853 38.4782 39.3646 38.4219Z" fill="black"/>
<path fill-rule="evenodd" clip-rule="evenodd" d="M39.689 43.3584C39.6337 43.0562 39.8308 42.766 40.1292 42.7099L46.3062 41.5514C46.6047 41.4954 46.8914 41.695 46.9467 41.9972C47.002 42.2993 46.8049 42.5897 46.5064 42.6456L40.3295 43.8041C40.0311 43.8601 39.7443 43.6606 39.689 43.3584Z" fill="black"/>
<path fill-rule="evenodd" clip-rule="evenodd" d="M42.6526 39.0036C42.3542 39.0595 42.1571 39.3498 42.2124 39.652L43.3566 45.906C43.4118 46.2083 43.6986 46.4078 43.997 46.3518C44.2954 46.2959 44.4925 46.0055 44.4372 45.7034L43.2931 39.4492C43.2378 39.1471 42.9511 38.9475 42.6526 39.0036Z" fill="black"/>
<path fill-rule="evenodd" clip-rule="evenodd" d="M44.9111 31.5564C44.7801 31.3679 44.8248 31.1076 45.0109 30.975C45.4408 30.6688 45.6258 30.2536 45.6835 29.8385C45.7429 29.4121 45.6636 29.0021 45.5778 28.7694C45.4981 28.5535 45.6065 28.3131 45.8197 28.2326C46.033 28.1519 46.2704 28.2616 46.35 28.4775C46.4768 28.8211 46.5809 29.3718 46.4998 29.9549C46.4172 30.5493 46.1381 31.1925 45.4852 31.6575C45.2991 31.7901 45.042 31.7449 44.9111 31.5564Z" fill="black"/>
<path fill-rule="evenodd" clip-rule="evenodd" d="M49.5824 30.1012C49.2839 30.1572 49.0868 30.4476 49.1421 30.7497L50.2863 37.0038C50.3415 37.306 50.6283 37.5056 50.9267 37.4495C51.2252 37.3936 51.4223 37.1033 51.3669 36.8011L50.2228 30.547C50.1676 30.2448 49.8808 30.0453 49.5824 30.1012Z" fill="black"/>
<path fill-rule="evenodd" clip-rule="evenodd" d="M46.6265 34.4561C46.5712 34.1539 46.7683 33.8636 47.0668 33.8076L53.2437 32.6491C53.5421 32.5931 53.8289 32.7926 53.8841 33.0947C53.9394 33.397 53.7423 33.6872 53.4439 33.7432L47.267 34.9018C46.9685 34.9578 46.6818 34.7582 46.6265 34.4561Z" fill="black"/>
<path fill-rule="evenodd" clip-rule="evenodd" d="M58.1919 35.3427C59.6672 32.4539 56.2501 31.5022 55.212 34.4215C54.012 37.344 56.9488 37.4195 58.1919 35.3427Z" fill="#DED1FA"/>
<path fill-rule="evenodd" clip-rule="evenodd" d="M47.1755 49.3695C47.5272 48.4388 46.7967 47.3196 45.7628 47.5258C44.5202 47.8378 43.0719 49.7048 43.8844 50.9643C44.9316 52.1153 46.8395 50.5229 47.1755 49.3695Z" fill="#DED1FA"/>
<path fill-rule="evenodd" clip-rule="evenodd" d="M49.5121 45.7896C49.2851 45.8067 49.0874 45.6342 49.0705 45.4043C49.0121 44.6081 49.2472 42.7211 50.6406 41.291C51.9985 39.8972 53.6216 39.3527 54.3075 39.2524C54.5328 39.2194 54.7418 39.3776 54.7743 39.6057C54.8069 39.8338 54.6507 40.0455 54.4253 40.0784C53.8958 40.1559 52.4443 40.6279 51.2274 41.8771C50.0459 43.0898 49.8464 44.7137 49.8925 45.3425C49.9094 45.5723 49.739 45.7725 49.5121 45.7896Z" fill="black"/>
<path d="M49.6321 43.8127C49.6321 43.8127 49.3272 42.3788 50.9493 41.7631C50.9493 41.7631 50.9049 41.3252 51.2678 40.8401C51.6533 40.3237 52.3406 40.156 52.9331 40.4064C53.3552 40.5844 53.8895 40.9028 54.4342 41.4766C54.8856 41.9517 55.0947 42.6269 54.9466 43.2659C54.8771 43.5701 54.739 43.925 54.4978 44.3169C54.2627 44.7015 53.9423 45.0328 53.5424 45.2394C53.0559 45.4933 52.3803 45.6077 51.8292 44.8288C51.7608 44.7308 51.688 44.6331 51.6047 44.5476C51.3015 44.2402 50.5644 43.6299 49.6318 43.8082L49.6321 43.8127Z" fill="#F75EA8"/>
<path d="M81.4576 16.6554C81.3859 16.3417 81.4221 16.0579 81.5661 15.8038C81.7101 15.5497 81.9481 15.3838 82.28 15.3061C82.612 15.2283 82.8978 15.2715 83.1373 15.4357C83.3769 15.5999 83.5325 15.8388 83.6042 16.1525C83.6759 16.4663 83.6398 16.7501 83.4957 17.0041C83.3517 17.2582 83.1138 17.4241 82.7818 17.5018C82.4498 17.5796 82.1641 17.5364 81.9246 17.3722C81.685 17.208 81.5293 16.9691 81.4576 16.6554Z" fill="black"/>
<path d="M73.4716 15.896C73.3386 15.3134 73.3093 14.7774 73.384 14.2877C73.466 13.7964 73.6278 13.3651 73.8693 12.9938C74.1165 12.6132 74.4324 12.2953 74.8171 12.0399C75.2091 11.7829 75.6522 11.5965 76.1464 11.4808C76.6407 11.3649 77.1159 11.3362 77.5722 11.3946C78.0359 11.4512 78.4614 11.5955 78.8485 11.8274C79.2339 12.0518 79.5664 12.3674 79.8459 12.774C80.1327 13.179 80.3426 13.6727 80.4757 14.2553C80.6089 14.8378 80.6389 15.3776 80.566 15.8747C80.4914 16.3643 80.3305 16.7993 80.0833 17.1798C79.8417 17.5512 79.5249 17.8654 79.1329 18.1225C78.7409 18.3795 78.2941 18.5669 77.7925 18.6843C77.2909 18.8018 76.8083 18.8323 76.3446 18.7756C75.8792 18.7115 75.4566 18.5627 75.0768 18.329C74.697 18.0954 74.3674 17.7753 74.0879 17.3686C73.8085 16.9619 73.6031 16.4711 73.4716 15.896ZM75.4634 15.4294C75.6187 16.1091 75.8712 16.5849 76.2209 16.8571C76.5707 17.1293 76.9742 17.2118 77.4315 17.1047C77.8963 16.9958 78.2267 16.7414 78.4228 16.3413C78.619 15.9413 78.6393 15.4015 78.4841 14.7218C78.3305 14.0496 78.0788 13.5775 77.7291 13.3053C77.3868 13.0314 76.9832 12.9489 76.5185 13.0578C76.0611 13.1649 75.7307 13.4194 75.5272 13.8211C75.3294 14.2136 75.308 14.7497 75.4634 15.4294Z" fill="black"/>
<path d="M71.4733 18.9942C71.4015 18.6805 71.4377 18.3966 71.5817 18.1426C71.7258 17.8886 71.9637 17.7226 72.2956 17.6449C72.6277 17.5671 72.9134 17.6103 73.1529 17.7746C73.3925 17.9387 73.5481 18.1777 73.6199 18.4914C73.6915 18.805 73.6554 19.0889 73.5113 19.343C73.3673 19.5971 73.1294 19.763 72.7975 19.8407C72.4655 19.9185 72.1797 19.8753 71.9402 19.7111C71.7006 19.5468 71.545 19.3079 71.4733 18.9942Z" fill="black"/>
<path d="M66.5088 18.4592L67.0745 20.935C66.9985 20.9764 66.8745 21.0291 66.7026 21.093C66.5307 21.1568 66.3599 21.2086 66.1902 21.2484C66.0206 21.2881 65.8659 21.3086 65.7263 21.3098C65.5958 21.3168 65.4786 21.297 65.3747 21.2505C65.2708 21.2041 65.1831 21.1263 65.1116 21.0171C65.04 20.908 64.982 20.7564 64.9376 20.5622L63.5859 14.6469C63.6637 14.613 63.7885 14.564 63.9605 14.5001C64.1306 14.4288 64.2969 14.3741 64.4592 14.3361C64.6289 14.2964 64.7798 14.2767 64.912 14.2773C65.0499 14.2686 65.1708 14.2875 65.2747 14.334C65.3785 14.3804 65.4663 14.4582 65.5378 14.5674C65.6094 14.6765 65.6674 14.8281 65.7118 15.0223L66.1188 16.8037L67.8084 13.587C68.3101 13.4695 68.6901 13.4828 68.9484 13.6269C69.2123 13.7617 69.3742 13.9599 69.4339 14.2213C69.4782 14.4155 69.4721 14.6097 69.4155 14.8039C69.3589 14.9981 69.2483 15.2287 69.0838 15.4954L68.0207 17.2198C68.2529 17.3857 68.4943 17.5573 68.7446 17.7347C69.0023 17.9104 69.2519 18.084 69.4932 18.2557C69.7401 18.4182 69.9743 18.5758 70.1957 18.7285C70.4245 18.8795 70.6215 19.0104 70.7867 19.1212C70.8242 19.2855 70.828 19.4381 70.798 19.5788C70.768 19.7197 70.7116 19.8469 70.6289 19.9608C70.5534 20.0728 70.4581 20.166 70.3429 20.2402C70.2278 20.3144 70.1001 20.3679 69.96 20.4007C69.6576 20.4716 69.3933 20.4548 69.1675 20.3503C68.9398 20.2384 68.7135 20.0986 68.4888 19.9309L66.5088 18.4592Z" fill="black"/>
<path fill-rule="evenodd" clip-rule="evenodd" d="M40.3558 72.9198C39.3474 73.454 38.9576 74.7149 39.4853 75.7359C39.7167 76.1838 39.9656 76.7647 40.2587 77.4492C41.6548 80.7084 44.0568 86.3163 50.3781 91.0948C51.2901 91.7842 52.5814 91.5944 53.2623 90.6711C53.9432 89.7477 53.7559 88.4403 52.8439 87.7509C47.4987 83.7103 45.5867 79.3121 44.1543 76.0168C43.8008 75.2038 43.4766 74.4581 43.1371 73.8012C42.6096 72.7802 41.3643 72.3856 40.3558 72.9198Z" fill="black"/>
<path d="M56.9327 89.2121C55.4611 88.0926 54.5316 89.1029 54.5031 89.1317C54.893 88.4026 54.8513 87.8128 54.6874 87.3834C54.4955 86.8844 54.0804 86.5177 53.5878 86.3152C53.5878 86.3152 53.5716 86.3112 53.5514 86.3032C53.309 86.2182 51.9289 85.8255 50.4185 86.8776C49.3568 87.6182 48.6189 88.769 48.3882 90.0505C48.1202 91.5371 48.3668 93.7257 51.1013 95.6546C51.432 95.8864 51.8198 96.045 52.2204 96.0348C52.8539 96.0172 53.4422 95.6778 53.7263 95.0685C54.7213 95.6184 56.0134 94.9257 56.1121 93.7377C56.14 93.403 56.0685 93.1174 55.9926 92.9124C56.3146 92.8475 57.0036 92.631 57.4722 91.9404C57.4845 91.9239 57.4946 91.9095 57.5048 91.891C57.5537 91.817 57.6007 91.7369 57.6436 91.6486C57.9072 91.1004 57.8429 90.5905 57.707 90.2142C57.5572 89.8073 57.2756 89.4686 56.9308 89.2101L56.9327 89.2121Z" fill="#755FFF"/>
<path d="M56.9327 89.2121C55.4611 88.0926 54.5316 89.1029 54.5031 89.1317C54.893 88.4026 54.8513 87.8128 54.6874 87.3834C54.4955 86.8844 54.0804 86.5177 53.5878 86.3152C53.5878 86.3152 53.5716 86.3112 53.5514 86.3032C53.309 86.2182 51.9289 85.8255 50.4185 86.8776C49.3568 87.6182 48.6189 88.769 48.3882 90.0505C48.1202 91.5371 48.3668 93.7257 51.1013 95.6546C51.432 95.8864 51.8198 96.045 52.2204 96.0348C52.8539 96.0172 53.4422 95.6778 53.7263 95.0685C54.7213 95.6184 56.0134 94.9257 56.1121 93.7377C56.14 93.403 56.0685 93.1174 55.9926 92.9124C56.3146 92.8475 57.0036 92.631 57.4722 91.9404C57.4845 91.9239 57.4946 91.9095 57.5048 91.891C57.5537 91.817 57.6007 91.7369 57.6436 91.6486C57.9072 91.1004 57.8429 90.5905 57.707 90.2142C57.5572 89.8073 57.2756 89.4686 56.9308 89.2101L56.9327 89.2121Z" fill="url(#paint5_linear_353_1425)" fill-opacity="0.8"/>
<path fill-rule="evenodd" clip-rule="evenodd" d="M49.5078 88.8149C49.093 89.558 48.762 90.4215 48.718 91.2811C48.6768 92.0838 49.0648 92.9154 49.6289 93.661C50.1876 94.3982 50.8767 94.9945 51.3319 95.3107L51.3327 95.3116H51.3333C51.6168 95.511 51.9198 95.6251 52.2071 95.6176C52.588 95.6065 52.935 95.4498 53.1706 95.1725C52.5284 94.668 51.4972 93.7388 50.8362 92.723C50.711 92.5306 50.7635 92.2718 50.9536 92.145C51.1437 92.0182 51.3993 92.0714 51.5246 92.2639C52.2197 93.3327 53.4119 94.3342 53.9403 94.7126C54.6678 95.0974 55.6252 94.5874 55.6987 93.7027C55.7116 93.5469 55.6965 93.4031 55.6686 93.277C54.9686 93.1055 53.829 92.5365 53.0582 91.2201C52.9422 91.0218 53.0068 90.7659 53.2026 90.6483C53.3984 90.5308 53.6512 90.5963 53.7673 90.7944C54.4696 91.9939 55.5236 92.4128 55.9739 92.4891C56.264 92.4196 56.7761 92.2255 57.1299 91.7043L57.1348 91.6968L57.1401 91.6897C57.1422 91.6869 57.1435 91.6852 57.1444 91.6839L57.1504 91.673L57.1597 91.6591C57.1996 91.5987 57.237 91.5347 57.2707 91.4654C57.4719 91.0463 57.426 90.6597 57.3177 90.359C57.201 90.0428 56.9767 89.766 56.6828 89.5457L56.6829 89.5455L56.6826 89.546C56.04 89.0572 55.5698 89.0645 55.2827 89.144C55.236 89.1569 55.1924 89.1722 55.1519 89.189C55.3006 89.3076 55.4874 89.4308 55.6959 89.5177C55.9064 89.6053 56.0068 89.8492 55.9203 90.0624C55.8336 90.2755 55.5928 90.3772 55.3823 90.2895C54.8324 90.0605 54.4096 89.6655 54.2194 89.4424C54.0628 89.3295 53.8515 89.153 53.6558 88.9408C53.4451 88.7123 53.2131 88.4002 53.1239 88.0486C53.0673 87.8254 53.2001 87.598 53.4206 87.5406C53.641 87.4833 53.8657 87.6177 53.9223 87.8409C53.9601 87.9902 54.0804 88.1782 54.2584 88.3713C54.2833 88.3983 54.3084 88.4244 54.3337 88.4498C54.4369 88.0661 54.3874 87.7626 54.3005 87.5345C54.1602 87.17 53.8504 86.8797 53.4483 86.7097C53.4371 86.7062 53.4233 86.7014 53.4079 86.6956C53.2103 86.628 52.0126 86.2903 50.6807 87.2001C50.3746 87.5159 49.9098 88.0947 49.5078 88.8149ZM55.1994 88.3069C55.2477 87.8999 55.1858 87.5387 55.0692 87.2332L55.0688 87.2321C54.8274 86.6045 54.3144 86.1648 53.74 85.9288L53.7124 85.9174L53.6944 85.9129L53.692 85.9119L53.6833 85.9089C53.3777 85.8019 51.844 85.3764 50.1822 86.534L50.1511 86.5557L50.1244 86.5827C49.767 86.9446 49.2412 87.5963 48.7902 88.4043C48.3402 89.2104 47.9479 90.2023 47.8947 91.2378C47.8388 92.3301 48.3613 93.3586 48.9748 94.1682C49.5935 94.9852 50.3487 95.6399 50.8646 95.9988C51.2424 96.2631 51.7144 96.4652 52.2281 96.4513H52.229C52.8751 96.4337 53.4984 96.1388 53.894 95.5917C55.0794 95.9598 56.4084 95.116 56.5202 93.7732M55.1994 88.3069C55.7329 88.1995 56.4112 88.2973 57.1731 88.8752L57.1734 88.8749C57.5686 89.1713 57.9075 89.5715 58.0906 90.0687L58.091 90.0699L58.0915 90.0712C58.2544 90.5227 58.3368 91.1549 58.0114 91.8315L58.0111 91.8322L58.0107 91.8331C57.9611 91.9352 57.9074 92.0274 57.8524 92.1116C57.8345 92.1421 57.8175 92.1662 57.8044 92.1841C57.4125 92.7577 56.8948 93.0508 56.4939 93.2001C56.5236 93.3707 56.5376 93.5636 56.5202 93.7722" fill="black"/>
<path fill-rule="evenodd" clip-rule="evenodd" d="M53.0609 40.9461C52.6454 40.7331 52.1548 40.8237 51.8647 41.1582L51.8644 41.1586C51.753 41.2869 51.6859 41.4104 51.6453 41.5127C51.8053 41.5814 51.984 41.6698 52.1634 41.777C52.4919 41.9733 52.8562 42.2525 53.1028 42.6217C53.2303 42.8125 53.1809 43.072 52.9924 43.2012C52.8039 43.3303 52.5476 43.2802 52.42 43.0893C52.2695 42.8641 52.0208 42.6609 51.7443 42.4957C51.5314 42.3684 51.3217 42.2753 51.1677 42.2187C50.5539 42.434 50.3095 42.7958 50.2022 43.0851C50.1685 43.1758 50.1471 43.2633 50.1337 43.3424C50.5201 43.4168 50.8807 43.5995 51.1766 43.7931C51.5924 44.0653 51.9388 44.3974 52.1374 44.6285L52.1602 44.655L52.1782 44.6849C52.3737 45.0088 52.5757 45.1161 52.742 45.1494C52.9257 45.1862 53.1337 45.1457 53.3439 45.0551L53.3446 45.0547L53.3454 45.0545C53.6766 44.9131 53.9639 44.662 54.1912 44.3448L54.1916 44.3442L54.192 44.3437C54.4367 44.0044 54.5782 43.7017 54.6548 43.4512L54.6553 43.45C54.8036 42.9709 54.6846 42.4274 54.3496 42.0187L54.3495 42.0186C53.8865 41.4532 53.4224 41.131 53.0612 40.9463L53.0609 40.9461ZM49.7088 43.7263C49.3006 43.7841 49.3005 43.7838 49.3005 43.7835L49.3004 43.783L49.3003 43.7819L49.2999 43.7791C49.2997 43.7771 49.2993 43.7747 49.2991 43.772C49.2984 43.7666 49.2976 43.7596 49.2968 43.7514C49.2952 43.7349 49.2934 43.7129 49.2919 43.6861C49.289 43.6326 49.2873 43.559 49.2918 43.4706C49.3006 43.2947 49.3333 43.0535 49.4305 42.7915C49.613 42.2997 50.0097 41.7738 50.7974 41.4672C50.8032 41.4424 50.8097 41.4165 50.8172 41.3896C50.878 41.1709 51.0008 40.8889 51.2454 40.6074C51.7988 39.9693 52.7031 39.8273 53.433 40.2014L53.4332 40.2015L53.2471 40.5737L53.4329 40.2013L53.433 40.2014C53.8881 40.4342 54.4438 40.8263 54.9841 41.4859L54.984 41.4858L54.6668 41.7523L54.9841 41.4859C55.4807 42.0918 55.6812 42.9258 55.442 43.699C55.442 43.6988 55.4421 43.6986 55.4422 43.6984L55.0486 43.5748L55.4418 43.6996C55.4419 43.6994 55.4419 43.6993 55.442 43.699C55.336 44.0449 55.1511 44.4291 54.8581 44.8353C54.8582 44.8352 54.8584 44.835 54.8585 44.8348L54.5248 44.5898L54.8578 44.8359C54.8579 44.8357 54.858 44.8355 54.8581 44.8353C54.561 45.2499 54.1619 45.6116 53.6662 45.8232C53.6665 45.8231 53.6667 45.8231 53.6669 45.823L53.5054 45.439L53.6655 45.8236C53.6657 45.8234 53.6659 45.8233 53.6662 45.8232C53.3728 45.9496 52.9884 46.0495 52.5821 45.9682C52.1677 45.8852 51.7897 45.6256 51.4946 45.1524C51.5408 45.2047 51.4758 45.2553 51.53 45.2076L51.4946 45.1524C51.488 45.1417 51.5012 45.1632 51.4946 45.1524C51.3359 44.9726 51.0572 44.7088 50.7292 44.4941C50.3779 44.2642 50.026 44.1274 49.7303 44.1431L49.3528 44.163L49.3006 43.7841L49.7088 43.7263Z" fill="black"/>
<defs>
<linearGradient id="paint0_linear_353_1425" x1="77.2931" y1="56.2364" x2="87.1747" y2="66.6835" gradientUnits="userSpaceOnUse">
<stop stop-color="#DCD6FF"/>
<stop offset="0.547617" stop-color="#9968F6"/>
</linearGradient>
<linearGradient id="paint1_linear_353_1425" x1="91.0321" y1="66.4742" x2="106.83" y2="68.3691" gradientUnits="userSpaceOnUse">
<stop stop-color="#9F8FFF"/>
<stop offset="0.547617" stop-color="#5514D0"/>
</linearGradient>
<linearGradient id="paint2_linear_353_1425" x1="20.555" y1="27.8176" x2="86.0154" y2="113.094" gradientUnits="userSpaceOnUse">
<stop stop-color="#DCD6FF"/>
<stop offset="0.547617" stop-color="#9968F6"/>
</linearGradient>
<linearGradient id="paint3_linear_353_1425" x1="0.255624" y1="58.024" x2="99.9789" y2="124.255" gradientUnits="userSpaceOnUse">
<stop stop-color="#9F8FFF"/>
<stop offset="0.547617" stop-color="#5514D0"/>
</linearGradient>
<linearGradient id="paint4_linear_353_1425" x1="84.9219" y1="77.6283" x2="100.375" y2="81.451" gradientUnits="userSpaceOnUse">
<stop stop-color="#9F8FFF"/>
<stop offset="0.547617" stop-color="#5514D0"/>
</linearGradient>
<linearGradient id="paint5_linear_353_1425" x1="49.1694" y1="86.0426" x2="61.586" y2="93.1974" gradientUnits="userSpaceOnUse">
<stop stop-color="#DCD6FF"/>
<stop offset="0.547617" stop-color="#9968F6"/>
</linearGradient>
</defs>
</svg>
