<svg width="110" height="97" viewBox="0 0 110 97" fill="none" xmlns="http://www.w3.org/2000/svg">
<path fill-rule="evenodd" clip-rule="evenodd" d="M68.3136 48.1639C67.5648 49.0317 67.6525 50.3499 68.5096 51.108C71.3351 53.6075 74.9642 56.6767 78.7797 58.0187C80.7388 58.7077 82.8671 58.9881 85.02 58.4192C87.1892 57.846 89.1565 56.4701 90.8809 54.2544C91.5853 53.3493 91.4317 52.0374 90.5378 51.3241C89.6438 50.6109 88.3481 50.7665 87.6437 51.6716C86.3608 53.3199 85.1158 54.0811 83.979 54.3815C82.8258 54.6862 81.5547 54.5771 80.1322 54.0767C77.1847 53.0401 74.1227 50.5321 71.2213 47.9655C70.3643 47.2073 69.0625 47.2961 68.3136 48.1639Z" fill="black"/>
<mask id="mask0_360_1896" style="mask-type:luminance" maskUnits="userSpaceOnUse" x="84" y="44" width="14" height="13">
<path d="M87.1878 44.3047L97.0391 46.4424L94.8126 56.9607L84.9614 54.823L87.1878 44.3047Z" fill="white"/>
</mask>
<g mask="url(#mask0_360_1896)">
<path fill-rule="evenodd" clip-rule="evenodd" d="M95.4582 50.673C95.4454 50.6254 95.4299 50.5782 95.4125 50.5314L95.417 50.5288C95.4143 50.5248 95.4115 50.5208 95.4125 50.5175C95.1697 49.8667 94.7484 49.6446 94.7484 49.6446C94.797 49.5727 94.8391 49.5027 94.8776 49.4321C95.4042 48.4531 94.8382 47.2439 93.7473 47.1034C93.4268 47.0614 93.1868 47.1054 93.1868 47.1054C93.0146 46.0712 92.1482 45.7525 91.682 45.696C91.4957 45.6762 91.3081 45.6802 91.1258 45.7231C90.7161 45.8173 90.4233 46.0508 90.2163 46.3112C89.8685 46.7453 89.7607 47.2565 89.748 47.3216C89.3829 47.2086 89.0438 47.1796 88.7437 47.1899C88.7397 47.1925 88.7332 47.1911 88.73 47.1904C88.6533 47.1939 88.5781 47.2032 88.5046 47.2177C88.0902 47.2776 87.7067 47.4476 87.3924 47.7013C87.004 48.0123 86.7181 48.4487 86.6055 48.9641C86.5791 49.089 86.5584 49.2186 86.545 49.3463C86.3729 50.9455 87.2433 52.4648 88.643 53.2327C89.9309 53.9349 91.0949 54.0192 91.0949 54.0192C93.5504 54.2425 94.6651 53.3567 95.1679 52.5858C95.3483 52.312 95.4674 52.0045 95.5178 51.6886L95.5169 51.692C95.5737 51.355 95.5562 51.0046 95.4582 50.673Z" fill="#755FFF"/>
<path fill-rule="evenodd" clip-rule="evenodd" d="M95.4582 50.673C95.4454 50.6254 95.4299 50.5782 95.4125 50.5314L95.417 50.5288C95.4143 50.5248 95.4115 50.5208 95.4125 50.5175C95.1697 49.8667 94.7484 49.6446 94.7484 49.6446C94.797 49.5727 94.8391 49.5027 94.8776 49.4321C95.4042 48.4531 94.8382 47.2439 93.7473 47.1034C93.4268 47.0614 93.1868 47.1054 93.1868 47.1054C93.0146 46.0712 92.1482 45.7525 91.682 45.696C91.4957 45.6762 91.3081 45.6802 91.1258 45.7231C90.7161 45.8173 90.4233 46.0508 90.2163 46.3112C89.8685 46.7453 89.7607 47.2565 89.748 47.3216C89.3829 47.2086 89.0438 47.1796 88.7437 47.1899C88.7397 47.1925 88.7332 47.1911 88.73 47.1904C88.6533 47.1939 88.5781 47.2032 88.5046 47.2177C88.0902 47.2776 87.7067 47.4476 87.3924 47.7013C87.004 48.0123 86.7181 48.4487 86.6055 48.9641C86.5791 49.089 86.5584 49.2186 86.545 49.3463C86.3729 50.9455 87.2433 52.4648 88.643 53.2327C89.9309 53.9349 91.0949 54.0192 91.0949 54.0192C93.5504 54.2425 94.6651 53.3567 95.1679 52.5858C95.3483 52.312 95.4674 52.0045 95.5178 51.6886L95.5169 51.692C95.5737 51.355 95.5562 51.0046 95.4582 50.673Z" fill="url(#paint0_linear_360_1896)" fill-opacity="0.8"/>
<path fill-rule="evenodd" clip-rule="evenodd" d="M93.5 46.6685C93.1584 45.6593 92.2196 45.3414 91.7287 45.2819L91.7259 45.2816L91.7232 45.2812C91.5038 45.258 91.2688 45.2611 91.0317 45.3167C90.5132 45.4363 90.1454 45.7332 89.8939 46.0492C89.6823 46.3134 89.5468 46.5983 89.4628 46.8245C89.2146 46.78 88.9808 46.7669 88.7657 46.7721L88.7626 46.7714L88.712 46.7738L88.6139 46.7771L88.6076 46.7812C88.5491 46.787 88.4914 46.7955 88.4345 46.8063C87.9513 46.878 87.5033 47.0773 87.1343 47.3748C86.676 47.742 86.3354 48.2602 86.2013 48.8744L86.201 48.8757L86.2008 48.877C86.1714 49.0157 86.1484 49.1595 86.1334 49.302C85.9417 51.0854 86.9127 52.7594 88.4449 53.5998L88.4457 53.6004C89.1284 53.9726 89.7768 54.1804 90.2547 54.2955C90.4942 54.3532 90.6922 54.3879 90.8323 54.4084C90.9024 54.4186 90.958 54.4253 90.9973 54.4294C91.0169 54.4316 91.0324 54.433 91.0436 54.434C91.0492 54.4345 91.0537 54.4349 91.0571 54.4352L91.0589 54.4353C92.3396 54.5515 93.3031 54.3815 94.0285 54.0575C94.7557 53.7322 95.2192 53.2619 95.5095 52.8168C95.722 52.4944 95.8631 52.1308 95.9226 51.7549C95.9895 51.3488 95.9849 50.8707 95.8493 50.4254C95.7486 50.095 95.5718 49.7733 95.2934 49.5225C95.8512 48.3229 95.1551 46.8648 93.7986 46.6898C93.6896 46.6756 93.5889 46.6696 93.5 46.6685ZM92.6336 46.7489C92.4413 46.789 92.2333 46.8514 92.0264 46.9427C91.7287 47.0737 91.42 47.2699 91.1634 47.556C91.0222 47.4375 90.8698 47.3393 90.7231 47.2588C90.5695 47.1745 90.412 47.1041 90.262 47.0472C90.3218 46.9013 90.4095 46.7305 90.5345 46.5744L90.535 46.5738L90.5355 46.5732C90.6978 46.369 90.9152 46.1994 91.2152 46.1304L91.2163 46.1302L91.2174 46.1299C91.3436 46.1001 91.4825 46.0951 91.6343 46.111C91.9384 46.1485 92.3909 46.3116 92.6336 46.7489ZM91.6719 48.2454C91.8468 47.9966 92.0914 47.8241 92.3542 47.7081C92.6776 47.5662 93.0009 47.522 93.1822 47.5231L93.2207 47.5233L93.2564 47.5167L93.2592 47.5164C93.2619 47.5158 93.2692 47.5149 93.2784 47.5136C93.2976 47.5112 93.3288 47.5079 93.3682 47.5056C93.4488 47.501 93.5632 47.5005 93.6924 47.5176L93.6933 47.5177C94.4471 47.6147 94.8776 48.4275 94.5561 49.1471C94.1641 49.0355 93.6622 48.9374 93.1657 48.9283C92.6116 48.9182 91.9531 49.018 91.508 49.4575C91.6087 49.3175 91.6829 49.1503 91.7223 48.9551C91.7745 48.6975 91.7498 48.4587 91.6719 48.2454ZM91.3613 49.6258C91.3567 49.6319 91.3522 49.638 91.3478 49.6443C91.1031 49.9815 90.9928 50.3528 91.0241 50.7157C91.0552 51.0772 91.2242 51.3972 91.4797 51.6354C91.9915 52.1129 92.8214 52.2507 93.6722 51.9007C93.8829 51.814 93.9845 51.5705 93.8985 51.357C93.8133 51.1435 93.5724 51.0407 93.3617 51.1274C92.7472 51.3801 92.2718 51.2397 92.0383 51.0217C91.921 50.9122 91.8569 50.7802 91.845 50.6432C91.834 50.5076 91.8697 50.3341 92.0126 50.1382C92.1967 49.8838 92.5887 49.7525 93.1511 49.7629C93.675 49.7724 94.2264 49.9049 94.5799 50.0281C94.8199 50.1635 94.9756 50.3875 95.0617 50.6715C95.1532 50.9703 95.1597 51.316 95.1084 51.6224L95.1322 51.6269L95.1084 51.6231C95.0681 51.8784 94.971 52.1297 94.8235 52.3547L94.8226 52.3554V52.3562C94.6101 52.6819 94.2648 53.0396 93.6951 53.2939C93.1236 53.5494 92.3039 53.7106 91.13 53.6038L91.1262 53.6034L91.1233 53.6033H91.1231L91.1228 53.6032H91.1226H91.1224C91.1213 53.6031 91.1192 53.6029 91.1159 53.6026C91.1094 53.6021 91.0986 53.601 91.0839 53.5995C91.0544 53.5963 91.0091 53.5909 90.9499 53.5823C90.8315 53.565 90.658 53.5347 90.4455 53.4835C90.0195 53.3811 89.4421 53.1957 88.8371 52.8658C87.5703 52.1706 86.8008 50.8062 86.953 49.3918L86.9531 49.3909C86.9649 49.2784 86.9831 49.1637 87.0065 49.0532C87.0975 48.6374 87.3284 48.2835 87.6463 48.0288L87.647 48.0284L87.6475 48.0279C87.9044 47.8205 88.2194 47.6805 88.5611 47.6311L88.5715 47.6296L88.5817 47.6276C88.6281 47.6184 88.6755 47.6121 88.7239 47.6089C88.7371 47.6093 88.7572 47.6093 88.7821 47.6065C89.038 47.6001 89.3217 47.6268 89.6258 47.7209L89.6379 47.7247L89.6501 47.7277C89.8373 47.7732 90.0929 47.8622 90.3302 47.9925C90.5733 48.1259 90.7573 48.2808 90.8521 48.4387C90.9171 48.547 90.9415 48.6568 90.9151 48.7872C90.884 48.94 90.8117 49.0245 90.7053 49.0843C90.5817 49.1537 90.3966 49.1958 90.1545 49.2003C89.6706 49.2092 89.1092 49.0664 88.7733 48.9513C88.5576 48.8774 88.3237 48.9946 88.2508 49.2129C88.1778 49.4311 88.2935 49.6681 88.5091 49.7419C88.8844 49.8705 89.5491 50.0463 90.1696 50.0348C90.4799 50.029 90.8167 49.9762 91.1052 49.8141C91.1983 49.7618 91.2844 49.6991 91.3613 49.6258ZM88.8146 46.7827C88.8158 46.7829 88.8141 46.7825 88.8101 46.7817L88.8146 46.7827Z" fill="black"/>
</g>
<path fill-rule="evenodd" clip-rule="evenodd" d="M61.547 59.293C60.5045 59.7553 60.0295 60.9858 60.4861 62.0413C61.3233 63.9765 62.59 67.2175 63.6431 70.5897C64.7162 74.0256 65.4879 77.3533 65.4879 79.5656C65.4879 84.4695 64.5742 89.1518 64.1381 90.8042C63.8443 91.9174 64.4974 93.0612 65.597 93.3589C66.6965 93.6566 67.8261 92.9945 68.1199 91.8816C68.6302 89.9481 69.6094 84.8995 69.6094 79.5656C69.6094 76.659 68.6561 72.7998 67.573 69.3316C66.47 65.7998 65.1493 62.4195 64.2615 60.3671C63.8048 59.3115 62.5896 58.8307 61.547 59.293Z" fill="black"/>
<path d="M70.3129 87.3555H64.0821C63.7728 87.3555 63.4968 87.5522 63.3924 87.8471L60.6842 95.4985C60.5131 95.9816 60.8669 96.4907 61.374 96.4907H74.8241C75.1878 96.4907 75.5034 96.219 75.5121 95.8509C75.5645 93.6354 74.057 92.2708 70.9616 92.043C70.478 92.0074 70.1249 91.5407 70.2551 91.0678L71.0187 88.2967C71.1491 87.8238 70.7979 87.3555 70.3129 87.3555Z" fill="#755FFF"/>
<path d="M70.3129 87.3555H64.0821C63.7728 87.3555 63.4968 87.5522 63.3924 87.8471L60.6842 95.4985C60.5131 95.9816 60.8669 96.4907 61.374 96.4907H74.8241C75.1878 96.4907 75.5034 96.219 75.5121 95.8509C75.5645 93.6354 74.057 92.2708 70.9616 92.043C70.478 92.0074 70.1249 91.5407 70.2551 91.0678L71.0187 88.2967C71.1491 87.8238 70.7979 87.3555 70.3129 87.3555Z" fill="url(#paint1_linear_360_1896)" fill-opacity="0.8"/>
<path fill-rule="evenodd" clip-rule="evenodd" d="M63.0107 87.7066C63.1737 87.2459 63.605 86.9385 64.0884 86.9385H70.3192C71.0769 86.9385 71.6256 87.6702 71.422 88.4091L70.5423 91.602C72.1978 91.6641 73.5055 92.0191 74.4248 92.6761C75.4669 93.4206 75.9621 94.5195 75.9304 95.8614C75.9157 96.4882 75.3845 96.9083 74.8303 96.9083H61.3802C60.588 96.9083 60.0352 96.1127 60.3025 95.3578L63.0107 87.7066ZM69.6892 91.5921L70.628 88.1849C70.685 87.9779 70.5314 87.7731 70.3192 87.7731H64.0884C63.9531 87.7731 63.8323 87.8591 63.7867 87.9881L61.0785 95.6388C61.0036 95.8502 61.1584 96.0737 61.3802 96.0737H74.8303C75.0037 96.0737 75.1038 95.9504 75.1064 95.841C75.1322 94.7467 74.7431 93.9251 73.9494 93.3575C73.1308 92.7733 71.8362 92.4267 70.0021 92.4267H67.6887C67.4611 92.4267 67.2765 92.2398 67.2765 92.0094C67.2765 91.7789 67.4611 91.5921 67.6887 91.5921H69.6892Z" fill="black"/>
<path fill-rule="evenodd" clip-rule="evenodd" d="M51.5711 83.1499C51.6072 83.2043 51.6859 83.2047 51.7226 83.1507L94.8454 19.5919C94.9654 19.4158 94.8518 19.1746 94.6421 19.1572L42.8874 14.8657C42.2932 14.8164 41.695 14.8502 41.1097 14.9659L10.7536 20.9706C10.5607 21.0088 10.4686 21.2337 10.5782 21.3989L51.5711 83.1499Z" fill="#755FFF"/>
<path fill-rule="evenodd" clip-rule="evenodd" d="M52.855 83.9378L95.9784 20.3789C96.6955 19.322 96.0159 17.8748 94.7538 17.7702L42.9996 13.4788C42.2797 13.419 41.5551 13.4599 40.8463 13.6002L10.4902 19.6049C9.33274 19.8338 8.78014 21.1832 9.43798 22.1743L50.4309 83.9253C51.008 84.7947 52.2692 84.8012 52.855 83.9378ZM51.5711 83.1493C51.6072 83.2037 51.6859 83.204 51.7226 83.1501L94.8454 19.5913C94.9654 19.4151 94.8518 19.174 94.6421 19.1566L42.8874 14.8651C42.2932 14.8158 41.695 14.8496 41.1097 14.9653L10.7536 20.97C10.5607 21.0082 10.4686 21.2331 10.5782 21.3983L51.5711 83.1493Z" fill="black"/>
<path d="M95.1142 19.1963L51.655 83.322L41.9922 14.6523L95.1142 19.1963Z" fill="#755FFF"/>
<path d="M95.1142 19.1963L51.655 83.322L41.9922 14.6523L95.1142 19.1963Z" fill="url(#paint2_linear_360_1896)" fill-opacity="0.8"/>
<path d="M10.3516 21.0506L41.996 14.791L51.6588 83.2752L10.3516 21.0506Z" fill="#755FFF"/>
<path d="M10.3516 21.0506L41.996 14.791L51.6588 83.2752L10.3516 21.0506Z" fill="url(#paint3_linear_360_1896)" fill-opacity="0.8"/>
<path fill-rule="evenodd" clip-rule="evenodd" d="M42.3774 14.2422L9.58594 20.7286L51.2267 84.2272L52.0617 83.9061L42.3774 14.2422ZM41.9912 14.791L51.6082 83.9707L10.3468 21.0505L41.9912 14.791Z" fill="black"/>
<path fill-rule="evenodd" clip-rule="evenodd" d="M59.6626 25.4355C59.3327 25.7044 59.0569 26.0521 58.8666 26.4676C58.205 27.9115 58.8247 29.6248 60.2509 30.2946C61.6771 30.9645 63.3692 30.3368 64.0308 28.893C64.1828 28.5612 64.2671 28.2152 64.2897 27.8708C63.606 27.8376 62.7578 27.6601 61.8368 27.1937C60.7094 26.6229 60.0348 25.9641 59.6626 25.4355Z" fill="white"/>
<path fill-rule="evenodd" clip-rule="evenodd" d="M61.4045 30.5784C60.8386 30.4208 60.44 29.7048 60.4883 28.8722C60.5418 27.9524 61.1209 27.2386 61.7816 27.2779C62.4424 27.3173 62.9346 28.095 62.8811 29.0148C62.8397 29.7286 62.4818 30.3183 62.0148 30.5283C61.8148 30.567 61.6101 30.5841 61.4045 30.5784Z" fill="#010427"/>
<path d="M61.7595 28.9483C61.966 28.9606 62.1433 28.8011 62.1554 28.5921C62.1676 28.383 62.0101 28.2035 61.8036 28.1912C61.5971 28.1789 61.4198 28.3384 61.4077 28.5475C61.3955 28.7566 61.5531 28.936 61.7595 28.9483Z" fill="white"/>
<path fill-rule="evenodd" clip-rule="evenodd" d="M64.7495 27.1696C64.3881 27.2912 63.8808 27.2499 63.3159 27.1331C63.1018 27.0889 62.7705 26.9388 62.3672 26.6931C61.9738 26.4537 61.5452 26.1441 61.1446 25.8145C60.7435 25.4845 60.3795 25.1419 60.1119 24.8385C59.9779 24.6866 59.8738 24.551 59.802 24.4372C59.7256 24.3161 59.705 24.2494 59.702 24.2305C59.6661 24.0029 59.4548 23.8478 59.23 23.8842C59.0053 23.9205 58.8521 24.1345 58.888 24.3621C58.9174 24.5484 59.0084 24.7296 59.1072 24.8863C59.2105 25.05 59.345 25.2221 59.4971 25.3945C59.8017 25.7398 60.2002 26.113 60.6249 26.4623C61.0501 26.8122 61.5104 27.1454 61.9423 27.4084C62.3643 27.6652 62.7944 27.8771 63.151 27.9509C63.7274 28.0699 64.4245 28.1585 65.0097 27.9615C65.3151 27.8587 65.5966 27.6761 65.8069 27.3814C66.0148 27.09 66.1318 26.719 66.1633 26.2735C66.1795 26.0436 66.0086 25.8439 65.7816 25.8275C65.5545 25.811 65.3572 25.9842 65.341 26.214C65.3176 26.5474 65.235 26.7577 65.1387 26.8926C65.0447 27.0243 64.9173 27.1131 64.7495 27.1696Z" fill="black"/>
<path fill-rule="evenodd" clip-rule="evenodd" d="M76.385 25.9922C76.7149 26.261 76.9906 26.6088 77.181 27.0242C77.8424 28.4681 77.2227 30.1815 75.7966 30.8513C74.3704 31.5211 72.6782 30.8935 72.0167 29.4496C71.8647 29.1178 71.7803 28.7718 71.7578 28.4275C72.4415 28.3943 73.2898 28.2167 74.2108 27.7503C75.3382 27.1796 76.0127 26.5208 76.385 25.9922Z" fill="white"/>
<path fill-rule="evenodd" clip-rule="evenodd" d="M74.6447 31.1351C75.2107 30.9774 75.6093 30.2614 75.5608 29.4288C75.5073 28.509 74.9284 27.7952 74.2676 27.8346C73.6068 27.874 73.1146 28.6516 73.168 29.5715C73.2095 30.2852 73.5675 30.8749 74.0344 31.085C74.2345 31.1237 74.4391 31.1407 74.6447 31.1351Z" fill="#010427"/>
<path d="M74.2951 29.505C74.0887 29.5173 73.9114 29.3578 73.8993 29.1487C73.8871 28.9396 74.0446 28.7602 74.2511 28.7479C74.4576 28.7356 74.6349 28.8951 74.647 29.1041C74.6592 29.3132 74.5016 29.4927 74.2951 29.505Z" fill="white"/>
<path fill-rule="evenodd" clip-rule="evenodd" d="M71.3054 27.7262C71.6669 27.8479 72.1741 27.8065 72.7391 27.6898C72.9531 27.6455 73.2845 27.4954 73.6878 27.2498C74.0811 27.0103 74.5098 26.7008 74.9103 26.3712C75.3115 26.0411 75.6755 25.6985 75.9431 25.3952C76.0772 25.2433 76.1812 25.1077 76.253 24.9938C76.3293 24.8727 76.35 24.806 76.3529 24.7871C76.3888 24.5595 76.6001 24.4045 76.825 24.4408C77.0498 24.4772 77.2029 24.6911 77.167 24.9188C77.1376 25.105 77.0465 25.2862 76.9478 25.4429C76.8445 25.6067 76.71 25.7787 76.5579 25.9511C76.2532 26.2964 75.8548 26.6696 75.4302 27.0189C75.0049 27.3688 74.5446 27.702 74.1126 27.965C73.6908 28.2219 73.2607 28.4338 72.904 28.5075C72.3276 28.6266 71.6304 28.7151 71.0454 28.5182C70.7398 28.4153 70.4585 28.2327 70.2482 27.938C70.0402 27.6467 69.9231 27.2756 69.8917 26.8301C69.8755 26.6002 70.0464 26.4006 70.2734 26.3842C70.5005 26.3677 70.6977 26.5408 70.7139 26.7706C70.7374 27.1041 70.8201 27.3143 70.9163 27.4492C71.0102 27.5809 71.1377 27.6697 71.3054 27.7262Z" fill="black"/>
<path fill-rule="evenodd" clip-rule="evenodd" d="M76.2244 36.8767C79.4351 36.9686 78.7988 33.4387 75.7508 33.7588C72.6295 33.9327 73.8369 36.6442 76.2244 36.8767Z" fill="#DED1FA"/>
<path fill-rule="evenodd" clip-rule="evenodd" d="M59.5397 35.5922C60.4965 35.3584 60.9936 34.1149 60.2401 33.3691C59.2823 32.5091 56.9422 32.3583 56.3774 33.7498C56.0338 35.2755 58.4107 35.9653 59.5397 35.5922Z" fill="#DED1FA"/>
<path d="M69.8845 37.7217C68.923 38.0155 68.1057 36.832 67.1975 36.712C66.2893 36.5919 65.9187 37.1277 65.163 37.0977C63.1411 37.0175 63.707 35.1283 64.4257 34.5687C65.1444 34.009 66.7141 33.6553 67.5769 33.7694C68.4397 33.8835 70.0211 34.5133 70.5106 35.373C71.0002 36.2326 70.846 37.428 69.8845 37.7217Z" fill="#7C59EF"/>
<path d="M69.8846 37.7217C68.923 38.0155 68.1057 36.832 67.1975 36.712C66.2893 36.5919 65.9187 37.1277 65.1631 37.0977C63.1411 37.0175 63.707 35.1283 64.4257 34.5687C65.1445 34.009 66.7141 33.6553 67.5769 33.7694C68.4398 33.8835 70.0212 34.5133 70.5107 35.373C71.0003 36.2326 70.8461 37.428 69.8846 37.7217Z" stroke="black" stroke-width="10" stroke-linecap="round"/>
<path fill-rule="evenodd" clip-rule="evenodd" d="M42.9609 59.293C44.0033 59.7553 44.4783 60.9858 44.0217 62.0413C43.1846 63.9765 41.9178 67.2175 40.8647 70.5897C39.7917 74.0256 39.02 77.3533 39.02 79.5656C39.02 84.4695 39.9336 89.1518 40.3698 90.8042C40.6636 91.9174 40.0105 93.0612 38.9109 93.3589C37.8114 93.6566 36.6818 92.9945 36.388 91.8816C35.8776 89.9481 34.8984 84.8995 34.8984 79.5656C34.8984 76.659 35.8517 72.7998 36.9349 69.3316C38.0379 65.7998 39.3586 62.4195 40.2464 60.3671C40.703 59.3115 41.9183 58.8307 42.9609 59.293Z" fill="black"/>
<path d="M34.1927 87.3555H40.4235C40.7328 87.3555 41.0089 87.5522 41.1133 87.8471L43.8214 95.4985C43.9925 95.9816 43.6387 96.4907 43.1317 96.4907H29.6815C29.3177 96.4907 29.0022 96.219 28.9935 95.8509C28.9411 93.6354 30.4487 92.2708 33.5441 92.043C34.0277 92.0074 34.3808 91.5407 34.2505 91.0678L33.4869 88.2967C33.3566 87.8238 33.7078 87.3555 34.1927 87.3555Z" fill="#755FFF"/>
<path d="M34.1927 87.3555H40.4235C40.7328 87.3555 41.0089 87.5522 41.1133 87.8471L43.8214 95.4985C43.9925 95.9816 43.6387 96.4907 43.1317 96.4907H29.6815C29.3177 96.4907 29.0022 96.219 28.9935 95.8509C28.9411 93.6354 30.4487 92.2708 33.5441 92.043C34.0277 92.0074 34.3808 91.5407 34.2505 91.0678L33.4869 88.2967C33.3566 87.8238 33.7078 87.3555 34.1927 87.3555Z" fill="url(#paint4_linear_360_1896)" fill-opacity="0.8"/>
<path fill-rule="evenodd" clip-rule="evenodd" d="M41.4993 87.7066C41.3363 87.2459 40.905 86.9385 40.4215 86.9385H34.1907C33.4331 86.9385 32.8844 87.6702 33.088 88.4091L33.9677 91.602C32.312 91.6641 31.0045 92.0191 30.0852 92.6761C29.0431 93.4206 28.5479 94.5195 28.5796 95.8614C28.5943 96.4882 29.1255 96.9083 29.6796 96.9083H43.1298C43.922 96.9083 44.4748 96.1127 44.2075 95.3578L41.4993 87.7066ZM34.8208 91.5921L33.882 88.1849C33.8249 87.9779 33.9786 87.7731 34.1907 87.7731H40.4215C40.5569 87.7731 40.6777 87.8591 40.7233 87.9881L43.4315 95.6388C43.5064 95.8502 43.3516 96.0737 43.1298 96.0737H29.6796C29.5063 96.0737 29.4062 95.9504 29.4036 95.841C29.3778 94.7467 29.7669 93.9251 30.5606 93.3575C31.3792 92.7733 32.6737 92.4267 34.5079 92.4267H36.8213C37.0489 92.4267 37.2335 92.2398 37.2335 92.0094C37.2335 91.7789 37.0489 91.5921 36.8213 91.5921H34.8208Z" fill="black"/>
<path fill-rule="evenodd" clip-rule="evenodd" d="M38.4861 44.8335C38.7458 45.9554 38.058 47.0782 36.95 47.3411C34.8155 47.8476 32.4322 48.8752 30.3358 50.1716C28.2088 51.4868 26.5739 52.9568 25.7536 54.2393C25.3497 54.8708 25.2259 55.3278 25.2161 55.6114C25.2085 55.8281 25.2573 56.043 25.5111 56.322C26.1727 57.0496 28.1014 58.0421 32.6046 58.4878C33.7373 58.5999 34.5658 59.6206 34.4551 60.7674C34.3443 61.9142 33.3363 62.7531 32.2036 62.641C27.5706 62.1825 24.252 61.0982 22.479 59.1486C21.5154 58.089 21.0501 56.8152 21.097 55.4647C21.1416 54.181 21.6408 52.9922 22.2941 51.9709C23.588 49.9478 25.8038 48.0842 28.1875 46.6102C30.6019 45.1173 33.3893 43.8999 36.0094 43.2782C37.1176 43.0152 38.2264 43.7115 38.4861 44.8335Z" fill="black"/>
<path d="M32.3125 58.2442C32.3125 58.2442 33.5121 57.6724 35.0531 57.7285C37.2955 57.8119 39.4254 59.623 39.6251 61.9484C39.7169 63.0279 39.3058 64.0021 38.5335 64.7365C37.9089 65.3282 36.8016 66.1532 35.4813 66.1675C35.4813 66.1675 34.525 68.4707 31.9477 67.1092C31.9477 67.1092 29.4372 65.7943 29.963 64.231C30.0567 63.9558 30.249 63.7117 30.4975 63.5642C30.8196 63.3754 31.3569 63.2149 32.1246 63.5131C32.1246 63.5131 31.5627 62.5907 31.8379 60.8026L32.3125 58.2442Z" fill="#755FFF"/>
<path d="M32.3125 58.2442C32.3125 58.2442 33.5121 57.6724 35.0531 57.7285C37.2955 57.8119 39.4254 59.623 39.6251 61.9484C39.7169 63.0279 39.3058 64.0021 38.5335 64.7365C37.9089 65.3282 36.8016 66.1532 35.4813 66.1675C35.4813 66.1675 34.525 68.4707 31.9477 67.1092C31.9477 67.1092 29.4372 65.7943 29.963 64.231C30.0567 63.9558 30.249 63.7117 30.4975 63.5642C30.8196 63.3754 31.3569 63.2149 32.1246 63.5131C32.1246 63.5131 31.5627 62.5907 31.8379 60.8026L32.3125 58.2442Z" fill="url(#paint5_linear_360_1896)" fill-opacity="0.8"/>
<path fill-rule="evenodd" clip-rule="evenodd" d="M35.0473 58.1464C37.1028 58.2284 39.0336 59.8974 39.213 61.9846C39.213 61.9848 39.213 61.9849 39.213 61.985C39.2929 62.9257 38.9387 63.7778 38.2499 64.4327C37.6541 64.9971 36.6624 65.7195 35.5197 65.7499C34.9539 65.6246 34.1446 65.3566 33.5019 64.9573C32.8645 64.5612 32.5218 64.1245 32.5259 63.6646C32.8638 63.2547 33.871 62.6502 35.6875 63.5839C35.9718 63.7299 36.2759 63.9141 36.5995 64.1433C36.7861 64.2754 37.0431 64.2293 37.1735 64.0404C37.304 63.8516 37.2584 63.5914 37.072 63.4593C36.8405 63.2955 36.6158 63.1509 36.3975 63.0241C36.451 62.9233 36.5202 62.813 36.6064 62.7045C36.7939 62.4681 37.0457 62.2597 37.3679 62.1604C37.5857 62.0933 37.7085 61.8601 37.6422 61.6396C37.576 61.4192 37.3456 61.2948 37.1279 61.362C36.6075 61.5223 36.2258 61.8515 35.9638 62.1817C35.8397 62.338 35.739 62.4989 35.6601 62.6505C34.1263 61.9912 32.9788 62.2559 32.2941 62.7534C32.1801 62.2748 32.169 61.7589 32.2116 61.2292C32.2517 60.732 32.3325 60.2687 32.4107 59.8211C32.4542 59.5717 32.4969 59.3273 32.5311 59.0846C32.5473 58.97 32.6135 58.8524 32.7667 58.7302C32.9236 58.6048 33.1489 58.4944 33.4237 58.4041C33.9682 58.2252 34.6152 58.1544 35.0473 58.1464ZM31.7058 63.8142C31.7685 64.6494 32.418 65.263 33.0708 65.6685C33.6299 66.016 34.2786 66.2692 34.8319 66.4325C34.7301 66.5597 34.6 66.6941 34.4399 66.8098C34.2138 66.9732 33.9268 67.1006 33.5636 67.1203C33.2013 67.1399 32.7349 67.0537 32.1478 66.7455C31.8398 66.5575 31.3781 66.2411 30.988 65.9011C30.7903 65.7288 30.6212 65.5592 30.5005 65.4049C30.3721 65.2405 30.3346 65.1383 30.3298 65.0972C30.2971 64.8155 30.4045 64.3662 30.674 64.0699C30.8011 63.9301 30.9594 63.8295 31.1555 63.7886C31.2998 63.7586 31.4811 63.7576 31.7058 63.8142ZM35.7351 66.5739C37.0992 66.4655 38.2048 65.6186 38.8137 65.0417L38.8141 65.0412C39.6698 64.2275 40.1379 63.1312 40.0343 61.913L40.0342 61.9127C39.8144 59.353 37.4917 57.4021 35.0667 57.3119L35.0559 57.3115L35.045 57.3117C34.5598 57.3196 33.8197 57.3966 33.1692 57.6103C32.8443 57.717 32.5183 57.8655 32.2561 58.0748C31.9902 58.2873 31.7696 58.5802 31.7151 58.9665C31.6881 59.1573 31.6502 59.3763 31.6092 59.6129C31.5271 60.0869 31.4328 60.6312 31.3901 61.1613C31.344 61.7328 31.35 62.3422 31.4901 62.9378C31.3155 62.9266 31.1484 62.9381 30.9894 62.9712C30.604 63.0515 30.2971 63.2524 30.0678 63.5045C29.6242 63.992 29.4523 64.6882 29.5112 65.1948C29.5431 65.469 29.6965 65.7209 29.854 65.9226C30.0194 66.1343 30.2312 66.3428 30.4502 66.5337C30.889 66.916 31.3973 67.2628 31.7341 67.4675L31.7447 67.4739L31.7556 67.4796C32.452 67.8476 33.0681 67.9829 33.6077 67.9537C34.1486 67.9244 34.5838 67.7312 34.919 67.4891C35.2507 67.2493 35.4831 66.9627 35.6315 66.7403C35.6716 66.6802 35.7061 66.6242 35.7351 66.5739Z" fill="black"/>
<path d="M86.7301 32.5498H48.4453V42.2869H86.7301V32.5498Z" fill="black"/>
<path d="M80.324 34.0674C80.5482 34.1008 80.746 34.1642 80.9175 34.2577C81.0955 34.3445 81.1911 34.4647 81.2043 34.6182C81.2043 34.7251 81.178 34.8352 81.1252 34.9487C81.0724 35.0622 81.0032 35.1791 80.9175 35.2993L77.4949 40.3169C77.2839 40.2835 77.1058 40.2235 76.9608 40.1367C76.8223 40.0432 76.7464 39.9197 76.7333 39.7661C76.7333 39.6593 76.7399 39.5558 76.753 39.4556C76.7728 39.3488 76.8256 39.2286 76.9113 39.0951L80.324 34.0674ZM78.4742 35.6598C78.4742 36.1606 78.3258 36.5512 78.0291 36.8316C77.7323 37.112 77.3498 37.2522 76.8816 37.2522C76.4068 37.2522 76.0211 37.112 75.7243 36.8316C75.4341 36.5512 75.2891 36.1606 75.2891 35.6598C75.2891 35.1657 75.4341 34.7785 75.7243 34.498C76.0211 34.2176 76.4068 34.0774 76.8816 34.0774C77.3498 34.0774 77.7323 34.2176 78.0291 34.498C78.3258 34.7785 78.4742 35.1657 78.4742 35.6598ZM76.486 35.6598C76.486 35.8601 76.5222 36.0103 76.5948 36.1105C76.6739 36.204 76.7695 36.2507 76.8816 36.2507C76.9937 36.2507 77.0861 36.204 77.1586 36.1105C77.2377 36.0103 77.2773 35.8601 77.2773 35.6598C77.2773 35.4662 77.2377 35.3226 77.1586 35.2292C77.0861 35.1357 76.9937 35.0889 76.8816 35.0889C76.7695 35.0889 76.6739 35.1357 76.5948 35.2292C76.5222 35.3226 76.486 35.4662 76.486 35.6598ZM82.6189 38.7345C82.6189 39.2353 82.4705 39.6259 82.1737 39.9063C81.877 40.1867 81.4945 40.3269 81.0263 40.3269C80.5515 40.3269 80.1657 40.1867 79.8689 39.9063C79.5788 39.6259 79.4337 39.2353 79.4337 38.7345C79.4337 38.2404 79.5788 37.8532 79.8689 37.5727C80.1657 37.2923 80.5515 37.1521 81.0263 37.1521C81.4945 37.1521 81.877 37.2923 82.1737 37.5727C82.4705 37.8532 82.6189 38.2404 82.6189 38.7345ZM80.6306 38.7345C80.6306 38.9348 80.6669 39.085 80.7394 39.1852C80.8186 39.2787 80.9142 39.3254 81.0263 39.3254C81.1384 39.3254 81.2307 39.2787 81.3033 39.1852C81.3824 39.085 81.422 38.9348 81.422 38.7345C81.422 38.5409 81.3824 38.3973 81.3033 38.3039C81.2307 38.2104 81.1384 38.1636 81.0263 38.1636C80.9142 38.1636 80.8186 38.2104 80.7394 38.3039C80.6669 38.3973 80.6306 38.5409 80.6306 38.7345Z" fill="white"/>
<path d="M72.733 40.2363C72.6407 40.2497 72.555 40.2563 72.4759 40.2563C72.4033 40.263 72.3308 40.2664 72.2582 40.2664C71.9813 40.2664 71.7768 40.2129 71.6449 40.1061C71.5131 39.9993 71.4471 39.8257 71.4471 39.5853C71.4471 39.4317 71.4669 39.2581 71.5065 39.0645L71.5263 38.9543H70.636L70.359 40.2363C70.2667 40.2497 70.181 40.2563 70.1018 40.2563C70.0293 40.263 69.9568 40.2664 69.8842 40.2664C69.6072 40.2664 69.4028 40.2129 69.2709 40.1061C69.139 39.9993 69.0731 39.8257 69.0731 39.5853C69.0731 39.4317 69.0929 39.2581 69.1324 39.0645L69.1522 38.9543H68.4103C68.3774 38.8809 68.3411 38.7908 68.3015 38.6839C68.262 38.5704 68.2422 38.4569 68.2422 38.3434C68.2422 38.1097 68.2949 37.9428 68.4005 37.8427C68.5126 37.7358 68.6478 37.6824 68.806 37.6824H69.4292L69.6468 36.6709H68.6774C68.6445 36.5974 68.6082 36.5073 68.5686 36.4005C68.529 36.2869 68.5093 36.1734 68.5093 36.0599C68.5093 35.8262 68.562 35.6593 68.6675 35.5592C68.7796 35.4523 68.9148 35.3989 69.0731 35.3989H69.9238L70.2106 34.1069C70.303 34.0936 70.3887 34.0869 70.4678 34.0869C70.547 34.0869 70.6228 34.0869 70.6953 34.0869C70.9723 34.0869 71.1767 34.1403 71.3086 34.2472C71.4471 34.3473 71.5164 34.5176 71.5164 34.7579C71.5164 34.8314 71.5098 34.9148 71.4966 35.0083C71.4834 35.1018 71.4669 35.1953 71.4471 35.2888L71.4174 35.3989H72.2978L72.5847 34.1069C72.677 34.0936 72.7627 34.0869 72.8419 34.0869C72.921 34.0869 72.9968 34.0869 73.0694 34.0869C73.3463 34.0869 73.5508 34.1403 73.6827 34.2472C73.8211 34.3473 73.8904 34.5176 73.8904 34.7579C73.8904 34.8314 73.8838 34.9148 73.8706 35.0083C73.8574 35.1018 73.8409 35.1953 73.8211 35.2888L73.7915 35.3989H74.5333C74.5795 35.4657 74.6191 35.5558 74.652 35.6693C74.6916 35.7828 74.7114 35.8997 74.7114 36.0199C74.7114 36.2536 74.6553 36.4205 74.5432 36.5206C74.4377 36.6208 74.3091 36.6709 74.1575 36.6709H73.5145L73.2969 37.6824H74.2663C74.3124 37.7492 74.352 37.8393 74.385 37.9528C74.4245 38.0663 74.4443 38.1832 74.4443 38.3034C74.4443 38.537 74.3883 38.704 74.2762 38.8041C74.1706 38.9043 74.0421 38.9543 73.8904 38.9543H73.01L72.733 40.2363ZM70.9229 37.6824H71.8032L72.0208 36.6709H71.1405L70.9229 37.6824Z" fill="white"/>
<path d="M67.3435 34.4382C67.3435 34.5917 67.3402 34.8154 67.3336 35.1092C67.327 35.3963 67.3138 35.7101 67.2941 36.0506C67.2743 36.3845 67.2479 36.7217 67.2149 37.0622C67.182 37.396 67.1424 37.6865 67.0962 37.9335C67.0698 37.9535 67.0303 37.9736 66.9775 37.9936C66.9248 38.0136 66.8687 38.0303 66.8094 38.0437C66.75 38.057 66.6907 38.067 66.6313 38.0737C66.572 38.0804 66.5192 38.0837 66.4731 38.0837C66.2818 38.0837 66.1202 38.0537 65.9883 37.9936C65.8631 37.9335 65.7839 37.8167 65.7509 37.6431C65.718 37.4895 65.6883 37.2558 65.6619 36.942C65.6421 36.6282 65.6224 36.2877 65.6026 35.9204C65.5828 35.5532 65.5663 35.1893 65.5531 34.8288C65.5465 34.4682 65.5432 34.1611 65.5432 33.9074C65.6751 33.8339 65.8235 33.7772 65.9883 33.7371C66.1598 33.6904 66.328 33.667 66.4928 33.667C66.7632 33.667 66.9709 33.7304 67.116 33.8573C67.2677 33.9841 67.3435 34.1778 67.3435 34.4382ZM65.5234 39.4859C65.5234 39.2121 65.6059 38.9885 65.7707 38.8149C65.9422 38.6346 66.1763 38.5444 66.4731 38.5444C66.7698 38.5444 67.0006 38.6346 67.1655 38.8149C67.3369 38.9885 67.4227 39.2121 67.4227 39.4859C67.4227 39.7596 67.3369 39.9866 67.1655 40.1669C67.0006 40.3405 66.7698 40.4273 66.4731 40.4273C66.1763 40.4273 65.9422 40.3405 65.7707 40.1669C65.6059 39.9866 65.5234 39.7596 65.5234 39.4859Z" fill="white"/>
<path d="M61.7846 37.8331C61.4945 37.733 61.2307 37.6328 60.9933 37.5327C60.7559 37.4258 60.5514 37.299 60.38 37.1521C60.2085 37.0052 60.0733 36.8316 59.9744 36.6313C59.8821 36.4243 59.8359 36.1739 59.8359 35.8801C59.8359 35.4261 59.9744 35.0455 60.2514 34.7384C60.5284 34.4246 60.924 34.2109 61.4384 34.0974V33.2862C61.4978 33.2728 61.5901 33.2561 61.7154 33.2361C61.8407 33.2161 61.9693 33.2061 62.1011 33.2061C62.3583 33.2061 62.5595 33.2528 62.7045 33.3463C62.8496 33.4331 62.9222 33.6234 62.9222 33.9171V34.0473C63.331 34.1008 63.6575 34.2076 63.9014 34.3678C64.152 34.5281 64.2773 34.7484 64.2773 35.0288C64.2773 35.2024 64.2378 35.3527 64.1586 35.4795C64.0795 35.5997 63.9839 35.7032 63.8718 35.79C63.7267 35.6965 63.5322 35.6164 63.2882 35.5496C63.0442 35.4762 62.7771 35.4395 62.4869 35.4395C62.1902 35.4395 61.9726 35.4829 61.8341 35.5697C61.6956 35.6498 61.6263 35.7533 61.6263 35.8801C61.6263 35.9803 61.6692 36.0638 61.7549 36.1305C61.8407 36.1906 61.9693 36.2474 62.1407 36.3008L62.665 36.471C63.2849 36.6713 63.7597 36.9284 64.0894 37.2422C64.4257 37.5494 64.5939 37.97 64.5939 38.5041C64.5939 38.9582 64.4521 39.3454 64.1685 39.6659C63.885 39.9797 63.4695 40.1934 62.9222 40.3069V41.1081C62.8628 41.1215 62.7705 41.1382 62.6452 41.1582C62.5199 41.1782 62.3913 41.1882 62.2594 41.1882C62.0022 41.1882 61.8011 41.1415 61.656 41.048C61.5109 40.9612 61.4384 40.7709 61.4384 40.4772V40.377C61.201 40.3503 60.9834 40.3069 60.7855 40.2468C60.5943 40.1867 60.4261 40.1099 60.2811 40.0165C60.1426 39.923 60.0338 39.8128 59.9546 39.686C59.8755 39.5591 59.8359 39.4155 59.8359 39.2553C59.8359 39.0617 59.892 38.8981 60.0041 38.7645C60.1162 38.6243 60.2382 38.5175 60.3701 38.4441C60.5547 38.5909 60.7789 38.7178 61.0427 38.8246C61.3131 38.9315 61.6066 38.9849 61.9231 38.9849C62.2462 38.9849 62.4737 38.9348 62.6056 38.8347C62.7375 38.7345 62.8035 38.6177 62.8035 38.4841C62.8035 38.3506 62.7507 38.2504 62.6452 38.1837C62.5397 38.1102 62.3913 38.0401 62.2001 37.9733L61.7846 37.8331Z" fill="white"/>
<path d="M57.3649 36.4613C57.4902 36.4079 57.6056 36.3711 57.7111 36.3511C57.8232 36.3244 57.9353 36.311 58.0474 36.311C58.2057 36.311 58.3343 36.3344 58.4332 36.3811C58.5321 36.4279 58.608 36.4946 58.6607 36.5814C58.7201 36.6616 58.7596 36.7584 58.7794 36.8719C58.7992 36.9854 58.8091 37.1089 58.8091 37.2425C58.8091 37.7833 58.6739 38.2974 58.4035 38.7848L59.1652 39.5259C59.152 39.7797 59.0663 39.9867 58.908 40.1469C58.7498 40.3071 58.5618 40.3873 58.3442 40.3873C58.0804 40.3873 57.8232 40.2604 57.5726 40.0067L57.3847 39.8264C57.1407 40.0067 56.8604 40.1469 56.5439 40.247C56.234 40.3539 55.8877 40.4073 55.5053 40.4073C55.1162 40.4073 54.7733 40.3539 54.4765 40.247C54.1798 40.1469 53.9292 40.0067 53.7247 39.8264C53.5203 39.6461 53.3653 39.4358 53.2598 39.1954C53.1543 38.9484 53.1016 38.6813 53.1016 38.3942C53.1016 38.1472 53.1378 37.9268 53.2104 37.7332C53.2829 37.5396 53.3785 37.3693 53.4972 37.2224C53.6159 37.0755 53.7478 36.952 53.8929 36.8519C54.038 36.745 54.1864 36.6582 54.338 36.5915C54.2061 36.4312 54.1105 36.261 54.0512 36.0807C53.9984 35.9004 53.972 35.7302 53.972 35.5699C53.972 35.3629 54.0149 35.1693 54.1006 34.989C54.1864 34.8087 54.3084 34.6518 54.4666 34.5183C54.6249 34.3848 54.8161 34.2813 55.0403 34.2078C55.2712 34.1344 55.5316 34.0977 55.8218 34.0977C56.2373 34.0977 56.5307 34.1744 56.7022 34.328C56.8736 34.4749 56.9593 34.6652 56.9593 34.8989C56.9593 35.0124 56.9363 35.1226 56.8901 35.2294C56.8505 35.3362 56.7879 35.433 56.7022 35.5198C56.6296 35.4864 56.5439 35.4597 56.445 35.4397C56.3527 35.4197 56.2537 35.4097 56.1482 35.4097C55.9768 35.4097 55.835 35.4364 55.7229 35.4898C55.6108 35.5432 55.5547 35.64 55.5547 35.7802C55.5547 35.8804 55.5976 35.9839 55.6833 36.0907C55.769 36.1909 55.8746 36.3044 55.9999 36.4312L57.266 37.6731C57.299 37.5262 57.322 37.3526 57.3352 37.1523C57.355 36.952 57.3649 36.7217 57.3649 36.4613ZM54.6842 38.2841C54.6842 38.5177 54.7601 38.7147 54.9118 38.875C55.07 39.0285 55.3008 39.1053 55.6042 39.1053C55.7361 39.1053 55.8746 39.0886 56.0196 39.0552C56.1647 39.0152 56.3032 38.9517 56.4351 38.8649L55.1689 37.573C55.0107 37.6464 54.8887 37.7466 54.8029 37.8734C54.7238 38.0003 54.6842 38.1372 54.6842 38.2841Z" fill="white"/>
<defs>
<linearGradient id="paint0_linear_360_1896" x1="91.4269" y1="44.4803" x2="86.5693" y2="55.1453" gradientUnits="userSpaceOnUse">
<stop stop-color="#DCD6FF"/>
<stop offset="0.547617" stop-color="#9968F6"/>
</linearGradient>
<linearGradient id="paint1_linear_360_1896" x1="69.8082" y1="85.5619" x2="69.7475" y2="101.668" gradientUnits="userSpaceOnUse">
<stop stop-color="#9F8FFF"/>
<stop offset="0.547617" stop-color="#5514D0"/>
</linearGradient>
<linearGradient id="paint2_linear_360_1896" x1="61.9572" y1="1.16947" x2="27.6613" y2="103.433" gradientUnits="userSpaceOnUse">
<stop stop-color="#DCD6FF"/>
<stop offset="0.547617" stop-color="#9968F6"/>
</linearGradient>
<linearGradient id="paint3_linear_360_1896" x1="25.8761" y1="1.34455" x2="27.1285" y2="122.082" gradientUnits="userSpaceOnUse">
<stop stop-color="#9F8FFF"/>
<stop offset="0.547617" stop-color="#5514D0"/>
</linearGradient>
<linearGradient id="paint4_linear_360_1896" x1="34.6975" y1="85.5619" x2="34.7581" y2="101.668" gradientUnits="userSpaceOnUse">
<stop stop-color="#9F8FFF"/>
<stop offset="0.547617" stop-color="#5514D0"/>
</linearGradient>
<linearGradient id="paint5_linear_360_1896" x1="30.6343" y1="57.5624" x2="34.0379" y2="71.2707" gradientUnits="userSpaceOnUse">
<stop stop-color="#DCD6FF"/>
<stop offset="0.547617" stop-color="#9968F6"/>
</linearGradient>
</defs>
</svg>
